<?xml version="1.0" encoding="UTF-8"?>
<svg version="1.1" xmlns="http://www.w3.org/2000/svg" width="200" height="200">
<path d="M0 0 C4.62103035 2.92452305 5.90483389 5.53642181 7.3125 10.75 C7.80169922 12.50570313 7.80169922 12.50570313 8.30078125 14.296875 C8.64689453 15.63492187 8.64689453 15.63492187 9 17 C9.64066406 16.66226562 10.28132813 16.32453125 10.94140625 15.9765625 C11.80636719 15.53054687 12.67132813 15.08453125 13.5625 14.625 C14.40941406 14.18414062 15.25632812 13.74328125 16.12890625 13.2890625 C22.4187 10.46507347 27.96796172 9.70005783 34.75 9.8125 C35.50410156 9.81314453 36.25820312 9.81378906 37.03515625 9.81445312 C40.27309953 9.84033367 42.90916405 9.96972135 46 11 C46.268125 10.21625 46.53625 9.4325 46.8125 8.625 C48 6 48 6 51 4 C54.66011619 4.13309513 57.18357242 4.49249096 60.3125 6.4375 C62.4734118 9.71888458 62.74580214 12.6917014 63.3671875 16.52734375 C64.33578461 20.31204727 66.33449618 22.19780368 69 25 C69.495 26.485 69.495 26.485 70 28 C72.6113008 29.55324003 72.6113008 29.55324003 75.75 30.9375 C85.32551207 35.35968846 91.60937549 42.04779522 95.875 51.75 C99.37233831 62.63546548 98.93208797 75.77563279 93.9765625 86.140625 C92.54975812 88.35056262 90.85713442 90.14286558 89 92 C86.1875 92.4375 86.1875 92.4375 83 92 C80.0728873 89.53856432 78.11917214 87.17875822 76 84 C72.40056264 85.33693388 69.26874082 86.99480605 66 89 C66.09539062 89.93199219 66.19078125 90.86398438 66.2890625 91.82421875 C67.67233166 107.7318141 65.59689005 121.8564332 56 135 C50.98898026 140.40076572 45.72854389 144.06390812 39 147 C39 147.66 39 148.32 39 149 C39.68707031 149.10957031 40.37414062 149.21914062 41.08203125 149.33203125 C41.98308594 149.49058594 42.88414063 149.64914063 43.8125 149.8125 C44.70582031 149.96332031 45.59914063 150.11414063 46.51953125 150.26953125 C49.23156338 151.06819268 50.36452822 151.71033951 52 154 C51.92857823 157.92819709 51.58982358 160.22712772 49.1875 163.375 C46.92030101 165.05920497 45.78971816 165.7538484 43 166 C41.5459375 165.62875 41.5459375 165.62875 40.0625 165.25 C39.051875 165.1675 38.04125 165.085 37 165 C35.31237149 166.6454378 33.6459651 168.31288577 32 170 C28.4212394 170.5964601 26.74344041 170.48223162 23.6875 168.5 C20.77403201 166.87387833 19.73209767 166.87178456 16.5 167 C13.43412331 167.09212985 11.89221928 166.96040708 8.9375 165.875 C7 164 7 164 6.375 161.0625 C7.18575026 157.08982373 8.80370057 156.33875568 12 154 C12.68942139 151.94213731 12.68942139 151.94213731 13 150 C11.741875 150.0825 10.48375 150.165 9.1875 150.25 C4.16597126 150.27379871 0.18984892 148.85375416 -4.421875 146.97265625 C-7.03233085 145.98780245 -9.21378028 145.22218658 -12 145 C-14.32073307 146.09845748 -14.32073307 146.09845748 -16.4375 147.8125 C-23.77578519 152.99741953 -30.10097993 153.7634548 -39 153 C-42.853732 152.13460053 -45.35570261 150.70286988 -48.0625 147.75 C-49.40605898 143.80889365 -48.62308783 141.78720494 -47 138 C-44.375 135.0625 -44.375 135.0625 -42 133 C-42.51949219 132.63648438 -43.03898437 132.27296875 -43.57421875 131.8984375 C-54.38809355 124.10285308 -54.38809355 124.10285308 -55.44140625 118.76171875 C-55.63614631 114.923455 -55.52447544 112.73051936 -53.25 109.5625 C-47.03558371 105.24693314 -41.44985546 105.29702169 -34 106 C-28.01007281 107.58532862 -22.98386217 110.38669993 -18 114 C-17.01 114.495 -17.01 114.495 -16 115 C-15.70867188 114.23816406 -15.41734375 113.47632812 -15.1171875 112.69140625 C-11.16216009 102.72921457 -6.11496604 94.96198581 1 87 C0.46890625 86.45472656 -0.0621875 85.90945312 -0.609375 85.34765625 C-6.27599379 79.29843728 -11 73.56975137 -11 65 C-12.44632813 65.63228516 -12.44632813 65.63228516 -13.921875 66.27734375 C-15.19784676 66.83089032 -16.47389233 67.38426681 -17.75 67.9375 C-18.38421875 68.21529297 -19.0184375 68.49308594 -19.671875 68.77929688 C-27.05712248 71.97187782 -35.12178336 73.83073914 -43.08203125 71.3515625 C-46.10952097 69.62788222 -47.03418547 67.9094085 -48.25 64.6875 C-47.90729467 59.6325964 -45.67247907 57.31397516 -42 54 C-41.01 53.34 -40.02 52.68 -39 52 C-40.06541016 51.18208984 -40.06541016 51.18208984 -41.15234375 50.34765625 C-49.60053137 43.41611381 -49.60053137 43.41611381 -50.3125 38.25 C-50.29230362 34.38575965 -49.71403494 31.88366212 -47 29 C-41.52658285 25.76063066 -36.29137132 25.09442382 -30 26 C-26.84710679 27.07739398 -23.92830528 28.41560294 -21 30 C-20.67128906 28.31583984 -20.67128906 28.31583984 -20.3359375 26.59765625 C-18.2372181 16.46383973 -15.87817337 9.00012771 -8.5 1.4375 C-5.32384637 -0.38878834 -3.61092173 -0.60182029 0 0 Z " fill="#1C394B" transform="translate(70,12)"/>
<path d="M0 0 C0.99 0.33 1.98 0.66 3 1 C3.93167355 3.9750542 4.46612112 6.9602858 5.05859375 10.01953125 C6.11623058 13.36798313 7.49474717 14.62849783 10 17 C10 17.99 10 18.98 10 20 C9.278125 20.20625 8.55625 20.4125 7.8125 20.625 C1.58435896 23.66986895 -0.87011779 29.14986642 -3.15234375 35.38671875 C-6.7719816 46.54587875 -8.52484111 61.19290722 -3.9140625 72.33203125 C-2.57366841 74.77796405 -1.28391558 76.3878243 1 78 C3.64184541 78.79681318 3.64184541 78.79681318 6 79 C8.58816595 93.55843349 7.12900711 107.63971488 -1.37890625 120.00390625 C-8.07601556 128.45284797 -17.48465673 132.35862739 -28 134 C-39.05565527 135.14384376 -50.42351713 135.36897499 -60 129 C-62.87284751 126.6366947 -65.40975172 124.39539498 -67 121 C-65.72904029 104.91578573 -57.29240322 89.90645047 -45.23046875 79.46875 C-43.57187501 77.80831134 -43.57187501 77.80831134 -44 74 C-44.5878125 73.74347656 -45.175625 73.48695312 -45.78125 73.22265625 C-51.79017611 69.91139943 -55.8102256 63.53720427 -58.35546875 57.3203125 C-59.42683235 53.46340354 -59.25269578 49.9799585 -59 46 C-58.22914062 45.81179687 -57.45828125 45.62359375 -56.6640625 45.4296875 C-53.72104306 44.18629205 -53.72104306 44.18629205 -52.5234375 40.9453125 C-52.14445312 39.68460938 -51.76546875 38.42390625 -51.375 37.125 C-51.16536621 36.45605713 -50.95573242 35.78711426 -50.73974609 35.09790039 C-49.45707664 30.91655693 -48.50671295 26.7224099 -47.625 22.4375 C-46.4700387 17.68365378 -45.08650926 15.05003008 -41.1015625 12.17578125 C-34.56460943 8.51848966 -27.70494331 5.7199377 -20.15625 6.11328125 C-19.23972656 6.14357422 -18.32320312 6.17386719 -17.37890625 6.20507812 C-15.45880859 6.27672356 -13.5393408 6.36789758 -11.62109375 6.47851562 C-6.66098202 6.79838132 -6.66098202 6.79838132 -2.453125 4.64208984 C-1.1780495 2.83085339 -1.1780495 2.83085339 0 0 Z " fill="#FB7497" transform="translate(123,22)"/>
<path d="M0 0 C4.62103035 2.92452305 5.90483389 5.53642181 7.3125 10.75 C7.80169922 12.50570313 7.80169922 12.50570313 8.30078125 14.296875 C8.64689453 15.63492187 8.64689453 15.63492187 9 17 C9.64066406 16.66226562 10.28132813 16.32453125 10.94140625 15.9765625 C11.80636719 15.53054687 12.67132813 15.08453125 13.5625 14.625 C14.40941406 14.18414062 15.25632812 13.74328125 16.12890625 13.2890625 C22.50532457 10.4261808 28.06803029 9.72195269 34.9375 9.875 C35.71673828 9.88402344 36.49597656 9.89304687 37.29882812 9.90234375 C39.19935447 9.92566309 41.09972008 9.96152414 43 10 C43 10.66 43 11.32 43 12 C43.99 12.33 44.98 12.66 46 13 C45.34 13 44.68 13 44 13 C44 13.66 44 14.32 44 15 C42.02 15 40.04 15 38 15 C38 15.33 38 15.66 38 16 C36.65808594 16.14695312 36.65808594 16.14695312 35.2890625 16.296875 C25.37246335 17.52323481 14.93020874 19.02097151 8 27 C7.01855952 29.67718378 6.38239083 31.87199554 5.875 34.625 C5.56704435 36.04786615 5.25451203 37.46974917 4.9375 38.890625 C4.78539062 39.58607422 4.63328125 40.28152344 4.4765625 40.99804688 C1.81306018 52.18693982 1.81306018 52.18693982 -2 56 C-3.32 56 -4.64 56 -6 56 C-4.97434746 66.29189277 -2.38757916 74.62596365 5.8125 81.375 C6.39644531 81.79523438 6.98039062 82.21546875 7.58203125 82.6484375 C9.38318367 84.36523843 9.78087429 85.53605309 10 88 C8.39111679 89.80999361 6.782993 91.37549527 5 93 C-3.56826375 101.15333573 -11.50771747 115.10377587 -13 127 C-12.72904256 129.0094012 -12.40694167 131.01366932 -12 133 C-20.22473359 133.47756518 -26.82600586 132.85269479 -34.5390625 129.875 C-37.03579652 128.83249517 -37.03579652 128.83249517 -40 129 C-40 129.99 -40 130.98 -40 132 C-44.06809929 131.47462592 -46.17603456 130.38599539 -49.1875 127.625 C-49.86167969 127.01914063 -50.53585938 126.41328125 -51.23046875 125.7890625 C-54.19393473 122.79288718 -55.30509909 120.70762374 -55.375 116.5625 C-55.30097398 113.30535523 -55.19970779 112.27816442 -53.25 109.5625 C-47.03558371 105.24693314 -41.44985546 105.29702169 -34 106 C-28.01007281 107.58532862 -22.98386217 110.38669993 -18 114 C-17.01 114.495 -17.01 114.495 -16 115 C-15.70867188 114.23816406 -15.41734375 113.47632812 -15.1171875 112.69140625 C-11.16216009 102.72921457 -6.11496604 94.96198581 1 87 C0.46890625 86.45472656 -0.0621875 85.90945312 -0.609375 85.34765625 C-6.27599379 79.29843728 -11 73.56975137 -11 65 C-12.44632813 65.63228516 -12.44632813 65.63228516 -13.921875 66.27734375 C-15.19784676 66.83089032 -16.47389233 67.38426681 -17.75 67.9375 C-18.38421875 68.21529297 -19.0184375 68.49308594 -19.671875 68.77929688 C-27.05712248 71.97187782 -35.12178336 73.83073914 -43.08203125 71.3515625 C-46.10952097 69.62788222 -47.03418547 67.9094085 -48.25 64.6875 C-47.90729467 59.6325964 -45.67247907 57.31397516 -42 54 C-41.01 53.34 -40.02 52.68 -39 52 C-40.06541016 51.18208984 -40.06541016 51.18208984 -41.15234375 50.34765625 C-49.60053137 43.41611381 -49.60053137 43.41611381 -50.3125 38.25 C-50.29230362 34.38575965 -49.71403494 31.88366212 -47 29 C-41.52658285 25.76063066 -36.29137132 25.09442382 -30 26 C-26.84710679 27.07739398 -23.92830528 28.41560294 -21 30 C-20.67128906 28.31583984 -20.67128906 28.31583984 -20.3359375 26.59765625 C-18.2372181 16.46383973 -15.87817337 9.00012771 -8.5 1.4375 C-5.32384637 -0.38878834 -3.61092173 -0.60182029 0 0 Z " fill="#19384E" transform="translate(70,12)"/>
<path d="M0 0 C4.62103035 2.92452305 5.90483389 5.53642181 7.3125 10.75 C7.80169922 12.50570313 7.80169922 12.50570313 8.30078125 14.296875 C8.64689453 15.63492187 8.64689453 15.63492187 9 17 C9.64066406 16.66226562 10.28132813 16.32453125 10.94140625 15.9765625 C11.80636719 15.53054687 12.67132813 15.08453125 13.5625 14.625 C14.40941406 14.18414062 15.25632812 13.74328125 16.12890625 13.2890625 C22.50532457 10.4261808 28.06803029 9.72195269 34.9375 9.875 C35.71673828 9.88402344 36.49597656 9.89304687 37.29882812 9.90234375 C39.19935447 9.92566309 41.09972008 9.96152414 43 10 C43 10.66 43 11.32 43 12 C43.99 12.33 44.98 12.66 46 13 C45.34 13 44.68 13 44 13 C44 13.66 44 14.32 44 15 C42.02 15 40.04 15 38 15 C38 15.33 38 15.66 38 16 C36.65808594 16.14695312 36.65808594 16.14695312 35.2890625 16.296875 C25.37246335 17.52323481 14.93020874 19.02097151 8 27 C7.01855952 29.67718378 6.38239083 31.87199554 5.875 34.625 C5.56704435 36.04786615 5.25451203 37.46974917 4.9375 38.890625 C4.78539062 39.58607422 4.63328125 40.28152344 4.4765625 40.99804688 C1.81306018 52.18693982 1.81306018 52.18693982 -2 56 C-4.75 56.625 -4.75 56.625 -8 56 C-10.43818267 53.63094107 -12.18095102 50.85850554 -14 48 C-20.08268381 38.25548473 -20.08268381 38.25548473 -30 33 C-36.8682065 32.38534629 -36.8682065 32.38534629 -43 35 C-42.92948013 37.9618346 -42.64182241 40.19215412 -40.76171875 42.55859375 C-33.84966167 48.90976792 -24.6436292 51.85399542 -15.99609375 55.10546875 C-14 56 -14 56 -12 58 C-14.48541343 59.24270671 -15.76415379 58.95365685 -18.5 58.625 C-19.69109375 58.48964844 -19.69109375 58.48964844 -20.90625 58.3515625 C-23 58 -23 58 -25 57 C-29.75455661 56.41994409 -33.17358231 56.58679115 -37.5 58.75 C-40.37482242 60.91587152 -40.37482242 60.91587152 -41 65 C-37.04 65.66 -33.08 66.32 -29 67 C-29.33 68.32 -29.66 69.64 -30 71 C-41.73483119 71.77315872 -41.73483119 71.77315872 -46.375 68.9375 C-48 66 -48 66 -48.3125 62.625 C-46.48416039 57.57530013 -43.21765765 55.16084138 -39 52 C-40.06541016 51.18208984 -40.06541016 51.18208984 -41.15234375 50.34765625 C-49.60053137 43.41611381 -49.60053137 43.41611381 -50.3125 38.25 C-50.29230362 34.38575965 -49.71403494 31.88366212 -47 29 C-41.52658285 25.76063066 -36.29137132 25.09442382 -30 26 C-26.84710679 27.07739398 -23.92830528 28.41560294 -21 30 C-20.78085937 28.87722656 -20.56171875 27.75445312 -20.3359375 26.59765625 C-18.2372181 16.46383973 -15.87817337 9.00012771 -8.5 1.4375 C-5.32384637 -0.38878834 -3.61092173 -0.60182029 0 0 Z " fill="#15384E" transform="translate(70,12)"/>
<path d="M0 0 C3.56401843 0.45692544 6.71933053 1.23551708 10.0625 2.5 C13.99106083 3.90258263 17.46325854 4.18349079 21.625 4.3125 C27.05200546 4.61434967 29.46264826 5.48374135 33.17211914 9.36645508 C40.2055322 15.65209242 49.05849395 15.41808151 57.9375 15 C60.15417426 14.89814248 62.37175206 14.81394499 64.58984375 14.75 C65.55784912 14.70359375 66.52585449 14.6571875 67.52319336 14.609375 C70 15 70 15 71.76391602 16.78125 C73.40703473 19.7306205 74.18413732 22.73654929 75 26 C77.97 26 80.94 26 84 26 C84 25.01 84 24.02 84 23 C82.02 23 80.04 23 78 23 C78.33 22.34 78.66 21.68 79 21 C80.6065676 21.25620684 82.2102483 21.53055871 83.8125 21.8125 C84.70582031 21.96332031 85.59914063 22.11414063 86.51953125 22.26953125 C89.23156338 23.06819268 90.36452822 23.71033951 92 26 C91.92857823 29.92819709 91.58982358 32.22712772 89.1875 35.375 C86.92030101 37.05920497 85.78971816 37.7538484 83 38 C82.030625 37.7525 81.06125 37.505 80.0625 37.25 C79.051875 37.1675 78.04125 37.085 77 37 C75.31237149 38.6454378 73.6459651 40.31288577 72 42 C68.4212394 42.5964601 66.74344041 42.48223162 63.6875 40.5 C60.77403201 38.87387833 59.73209767 38.87178456 56.5 39 C53.43412331 39.09212985 51.89221928 38.96040708 48.9375 37.875 C47 36 47 36 46.375 33.0625 C47.18575026 29.08982373 48.80370057 28.33875568 52 26 C52.68942139 23.94213731 52.68942139 23.94213731 53 22 C51.1128125 22.12375 51.1128125 22.12375 49.1875 22.25 C44.16597126 22.27379871 40.18984892 20.85375416 35.578125 18.97265625 C32.96766915 17.98780245 30.78621972 17.22218658 28 17 C25.67926693 18.09845748 25.67926693 18.09845748 23.5625 19.8125 C16.22421481 24.99741953 9.89902007 25.7634548 1 25 C-2.853732 24.13460053 -5.35570261 22.70286988 -8.0625 19.75 C-9.40605898 15.80889365 -8.62308783 13.78720494 -7 10 C-5.37446717 8.29319053 -3.70884005 6.62339805 -2 5 C-0.680982 2.33466965 -0.680982 2.33466965 0 0 Z " fill="#17374C" transform="translate(30,140)"/>
<path d="M0 0 C4.92006067 2.32584686 7.31231435 5.32143608 10 10 C12.21299736 16.63899207 11.13208537 22.21520004 8.38671875 28.4765625 C4.08748263 36.29996118 -1.92414532 41.38978848 -10 45 C-10.77085938 45.36480469 -11.54171875 45.72960937 -12.3359375 46.10546875 C-18.00319056 48.0084027 -25.57062436 48.28450112 -31.2109375 46.171875 C-33.41814822 44.72911287 -34.81770094 43.36459812 -36 41 C-37.242506 30.34994857 -32.4912148 20.80845597 -26.0625 12.5 C-18.37908218 3.56784314 -12.19266667 -1.41569424 0 0 Z " fill="#112C43" transform="translate(97,101)"/>
<path d="M0 0 C8.640429 1.98699761 15.5466131 7.14126833 20.5234375 14.37890625 C25.80531327 23.18832047 25.76782054 35.32648484 23.34765625 45.14453125 C22.41557629 47.67069849 21.4331092 50.10188191 20.2421875 52.515625 C19.5821875 52.515625 18.9221875 52.515625 18.2421875 52.515625 C17.39190586 51.31915727 16.5626917 50.10770624 15.7421875 48.890625 C11.43509133 43.71479393 6.07954943 42.37192881 -0.18359375 40.59521484 C-5.90592958 38.9566123 -10.33360964 36.92974802 -14.63671875 32.64453125 C-17.42888148 27.3423407 -15.39007274 19.97614516 -13.96484375 14.4296875 C-8.87473125 -0.73677014 -8.87473125 -0.73677014 0 0 Z " fill="#FCCF17" transform="translate(136.7578125,45.484375)"/>
<path d="M0 0 C4.04348074 0.99313562 5.28513388 1.41677737 7.5625 4.875 C8.11941041 7.372529 8.520522 9.87667669 8.9296875 12.40234375 C9.89828461 16.18704727 11.89699618 18.07280368 14.5625 20.875 C15.0575 22.36 15.0575 22.36 15.5625 23.875 C18.1738008 25.42824003 18.1738008 25.42824003 21.3125 26.8125 C27.63126898 29.7306507 32.1707795 32.86992487 36.25 38.5625 C36.83136719 39.35011719 37.41273438 40.13773438 38.01171875 40.94921875 C41.69704899 47.90214659 41.84318654 55.21904033 41.6875 62.9375 C41.67847656 63.80310547 41.66945312 64.66871094 41.66015625 65.56054688 C41.63689723 67.66548779 41.60104008 69.77028342 41.5625 71.875 C41.2325 71.875 40.9025 71.875 40.5625 71.875 C40.0675 68.41 40.0675 68.41 39.5625 64.875 C38.9025 65.865 38.2425 66.855 37.5625 67.875 C37.53671875 67.13636719 37.5109375 66.39773437 37.484375 65.63671875 C36.87188165 54.68143991 34.61136535 45.8742435 26.8359375 37.82421875 C22.05710065 33.72689987 16.61695684 30.80610421 10.3125 30 C6.23365943 30.95172947 5.64855864 31.36245739 3.25 34.5625 C-0.93458497 41.78005391 -3.65767909 51.50805766 -2.4375 59.875 C-0.71982418 62.66811693 -0.71982418 62.66811693 1.5625 64.875 C2.14 65.473125 2.7175 66.07125 3.3125 66.6875 C3.725 67.079375 4.1375 67.47125 4.5625 67.875 C3.77875 67.854375 2.995 67.83375 2.1875 67.8125 C-0.41864961 67.68815937 -0.41864961 67.68815937 -2.4375 68.875 C-1.96949289 72.93106165 -1.55796792 76.34088679 0.5625 79.875 C-0.4275 79.875 -1.4175 79.875 -2.4375 79.875 C-2.7675 80.865 -3.0975 81.855 -3.4375 82.875 C-9.98433479 72.10440083 -9.9093831 59.54269303 -7.25854492 47.37133789 C-5.23004858 39.15899528 -2.35068013 31.22713945 4.5625 25.875 C5.8825 25.875 7.2025 25.875 8.5625 25.875 C7.15987525 23.47050042 5.81246589 21.17597934 4.03125 19.03125 C2.32961983 16.53311209 1.88220901 14.59022188 1.375 11.625 C1.21644531 10.73296875 1.05789062 9.8409375 0.89453125 8.921875 C0.78496094 8.24640625 0.67539063 7.5709375 0.5625 6.875 C-0.4275 7.205 -1.4175 7.535 -2.4375 7.875 C-2.829375 8.720625 -3.22125 9.56625 -3.625 10.4375 C-4.223125 11.241875 -4.82125 12.04625 -5.4375 12.875 C-11.16948178 13.55506563 -15.92918008 12.44880569 -21.4375 10.875 C-21.4375 10.545 -21.4375 10.215 -21.4375 9.875 C-17.8075 10.205 -14.1775 10.535 -10.4375 10.875 C-10.7675 9.555 -11.0975 8.235 -11.4375 6.875 C-10.4475 6.875 -9.4575 6.875 -8.4375 6.875 C-8.169375 6.09125 -7.90125 5.3075 -7.625 4.5 C-5.82648704 0.52433978 -4.31422034 -0.15688074 0 0 Z " fill="#15354C" transform="translate(124.4375,16.125)"/>
<path d="M0 0 C3.05593245 2.56037584 4.50873949 5.09093186 5.3125 8.9375 C5.54422328 18.09056945 2.3485448 24.29785072 -3.6875 30.9375 C-6.6875 32.9375 -6.6875 32.9375 -9.875 32.5625 C-10.803125 32.35625 -11.73125 32.15 -12.6875 31.9375 C-12.6875 31.2775 -12.6875 30.6175 -12.6875 29.9375 C-15.3275 29.6075 -17.9675 29.2775 -20.6875 28.9375 C-20.6875 26.6275 -20.6875 24.3175 -20.6875 21.9375 C-21.3475 22.2675 -22.0075 22.5975 -22.6875 22.9375 C-24.68710012 22.977492 -26.68797242 22.98096799 -28.6875 22.9375 C-27.8663441 15.0729083 -23.2401832 9.17522902 -17.484375 3.9296875 C-11.96152993 -0.30449372 -6.92995097 -2.73974806 0 0 Z " fill="#FA7193" transform="translate(97.6875,106.0625)"/>
<path d="M0 0 C2.97 0.495 2.97 0.495 6 1 C6 1.99 6 2.98 6 4 C6.66 4 7.32 4 8 4 C8 4.99 8 5.98 8 7 C13.94 7.66 19.88 8.32 26 9 C25.34 10.32 24.68 11.64 24 13 C23.01 13.33 22.02 13.66 21 14 C20.26676204 16.01508358 20.26676204 16.01508358 20 18 C21.32 18 22.64 18 24 18 C23 21 23 21 21.13671875 22.16796875 C13.34987358 25.40938277 5.0743514 26.79944545 -3.0625 23.8125 C-6.36479504 21.7749137 -7.74510248 20.68103273 -9 17 C-8.18832371 11.318266 -6.06032495 8.85730871 -2 5 C-0.680982 2.33466965 -0.680982 2.33466965 0 0 Z " fill="#183B4B" transform="translate(30,140)"/>
<path d="M0 0 C3 1 3 1 3.94921875 2.828125 C8.53245047 17.86306503 4.63094577 30.52624173 0 45 C-3.75063744 43.30667424 -4.90508078 41.93788996 -6.6875 38.1875 C-7.10386719 37.33542969 -7.52023438 36.48335937 -7.94921875 35.60546875 C-11.45079089 26.92313187 -10.4156068 18.4986752 -7 10 C-5.03513677 6.29271089 -2.97194865 2.97194865 0 0 Z " fill="#F57699" transform="translate(66,18)"/>
<path d="M0 0 C7.47470432 2.06520351 14.34319271 7.17689844 18.62890625 13.60546875 C19.33703439 15.92655544 20.00914777 18.25924022 20.62890625 20.60546875 C7.85484742 21.56034026 -3.82659083 18.85072121 -13.79296875 10.453125 C-16.28762222 7.53240448 -16.44827483 5.3873418 -16.37109375 1.60546875 C-11.41227371 -1.70041127 -5.74891301 -0.95657366 0 0 Z " fill="#4EB6C5" transform="translate(37.37109375,124.39453125)"/>
<path d="M0 0 C8.85601287 2.49866078 13.80332735 9.79594218 18.25 17.375 C18.70890625 18.20773438 19.1678125 19.04046875 19.640625 19.8984375 C20.97928703 22.2731768 20.97928703 22.2731768 24 24 C24 24.99 24 25.98 24 27 C19.57565727 26.55756573 16.30582745 25.24691945 12.40234375 23.1640625 C9.50219307 21.75878624 6.53328932 20.71207478 3.5 19.625 C-3.65927313 16.92573809 -9.76226829 13.55039627 -14 7 C-13.875 4.375 -13.875 4.375 -13 2 C-8.70534248 -0.86310501 -5.03831905 -0.58480489 0 0 Z " fill="#50B7C6" transform="translate(40,44)"/>
<path d="M0 0 C3.80921727 1.75571415 7.27681357 3.63830053 10.5625 6.25 C11.0575 7.735 11.0575 7.735 11.5625 9.25 C15.7315657 7.70705773 15.7315657 7.70705773 18.62890625 4.4921875 C19.34869798 2.77442366 19.9635608 1.01354319 20.5625 -0.75 C21.79634786 2.95154358 21.14581422 3.99651527 19.75 7.5625 C19.37746094 8.53445312 19.00492188 9.50640625 18.62109375 10.5078125 C18.09708984 11.86519531 18.09708984 11.86519531 17.5625 13.25 C16.88568977 15.24659018 16.21288501 17.24464622 15.5625 19.25 C14.634375 18.2290625 14.634375 18.2290625 13.6875 17.1875 C6.14438058 9.68723922 -1.51776929 5.22975554 -12.25 5.0625 C-15.99195312 5.0332187 -15.99195312 5.0332187 -19.4375 6.25 C-19.4375 9.01337926 -19.41389255 10.7154266 -18.4375 13.25 C-16.00082089 15.62486061 -13.32145597 17.45656041 -10.4375 19.25 C-10.7675 20.9 -11.0975 22.55 -11.4375 24.25 C-15.50559929 23.72462592 -17.61353456 22.63599539 -20.625 19.875 C-21.29917969 19.26914063 -21.97335938 18.66328125 -22.66796875 18.0390625 C-25.63143473 15.04288718 -26.74259909 12.95762374 -26.8125 8.8125 C-26.73847398 5.55535523 -26.63720779 4.52816442 -24.6875 1.8125 C-17.25376369 -3.34981688 -8.37361889 -3.22746464 0 0 Z " fill="#0D394C" transform="translate(41.4375,119.75)"/>
<path d="M0 0 C1.16711813 3.5013544 0.75554384 4.30986034 -0.4375 7.6875 C-3.09037452 16.13513268 -2.25676222 22.76877396 1 31 C2.55023033 33.940092 3.94121627 36.47060813 7 38 C8.485 32.06 8.485 32.06 10 26 C11.32 26.66 12.64 27.32 14 28 C14.33 27.34 14.66 26.68 15 26 C14.51947285 31.64619401 13.17262158 38.82737842 9 43 C6.3125 43.5625 6.3125 43.5625 3 43 C0.55620865 40.63787777 -1.1815298 37.85759603 -3 35 C-9.14993993 25.39172524 -9.14993993 25.39172524 -19 20 C-22.35505526 19.75950068 -22.35505526 19.75950068 -25.8125 19.875 C-26.97394531 19.89304687 -28.13539062 19.91109375 -29.33203125 19.9296875 C-30.65267578 19.96449219 -30.65267578 19.96449219 -32 20 C-31.34 19.34 -30.68 18.68 -30 18 C-29.01 18 -28.02 18 -27 18 C-27.33 16.68 -27.66 15.36 -28 14 C-25.56152549 14.11397544 -23.12486826 14.24070974 -20.6875 14.375 C-19.99720703 14.4059375 -19.30691406 14.436875 -18.59570312 14.46875 C-14.93009211 14.68124919 -13.12099208 14.91933861 -10 17 C-9.34 13.7 -8.68 10.4 -8 7 C-7.34 7 -6.68 7 -6 7 C-5.67 6.01 -5.34 5.02 -5 4 C-4.67 4.66 -4.34 5.32 -4 6 C-3.34 6 -2.68 6 -2 6 C-1.34 4.02 -0.68 2.04 0 0 Z " fill="#0B3047" transform="translate(59,25)"/>
<path d="M0 0 C1.0703125 3.734375 1.0703125 3.734375 0.4375 6.125 C0.293125 6.74375 0.14875 7.3625 0 8 C0.66 8.66 1.32 9.32 2 10 C2 16.46332868 -0.6381611 20.37463333 -5 25 C-8.90476305 28.49336837 -12.77322931 31.40852128 -17.5 33.6875 C-20.17289187 34.74558605 -20.17289187 34.74558605 -20.875 37.1875 C-20.91625 37.785625 -20.9575 38.38375 -21 39 C-19.02 39 -17.04 39 -15 39 C-15 39.99 -15 40.98 -15 42 C-16.45742463 42.08096803 -17.91612807 42.13917774 -19.375 42.1875 C-20.18710938 42.22230469 -20.99921875 42.25710937 -21.8359375 42.29296875 C-22.55007812 42.19628906 -23.26421875 42.09960938 -24 42 C-26 39 -26 39 -26 36 C-26.66 35.67 -27.32 35.34 -28 35 C-28.625 32.4375 -28.625 32.4375 -29 30 C-27.71416016 29.56300781 -27.71416016 29.56300781 -26.40234375 29.1171875 C-15.83810538 25.32978299 -9.03241488 21.22100816 -4 11 C-2.53429628 7.37405975 -1.222263 3.71458701 0 0 Z " fill="#193649" transform="translate(129,124)"/>
<path d="M0 0 C0.33 1.32 0.66 2.64 1 4 C0.278125 4.28875 -0.44375 4.5775 -1.1875 4.875 C-7.31422008 9.50407739 -9.52832155 17.33016165 -10.71484375 24.6796875 C-11.60786063 31.03542214 -11.60786063 31.03542214 -9.1875 36.75 C-8.465625 37.4925 -7.74375 38.235 -7 39 C-6.4225 39.598125 -5.845 40.19625 -5.25 40.8125 C-4.8375 41.204375 -4.425 41.59625 -4 42 C-4.78375 41.979375 -5.5675 41.95875 -6.375 41.9375 C-8.98114961 41.81315937 -8.98114961 41.81315937 -11 43 C-10.53199289 47.05606165 -10.12046792 50.46588679 -8 54 C-8.99 54 -9.98 54 -11 54 C-11.33 54.99 -11.66 55.98 -12 57 C-18.54683479 46.22940083 -18.4718831 33.66769303 -15.82104492 21.49633789 C-13.78484034 13.25278856 -10.07294303 0 0 0 Z " fill="#142E48" transform="translate(133,42)"/>
<path d="M0 0 C1.8253125 0.4640625 1.8253125 0.4640625 3.6875 0.9375 C7.70916609 1.87144141 11.50304538 2.12133783 15.625 2.25 C21.09260182 2.59845666 23.50576114 3.54914996 27.25390625 7.4375 C31.73298175 11.44562125 38.20697011 12.95890388 44 14 C44.495 15.485 44.495 15.485 45 17 C45.99 17.66 46.98 18.32 48 19 C33.71081634 19.73173629 33.71081634 19.73173629 26.8671875 15.77734375 C24.48894577 14.78723893 23.39586424 15.17535426 21 16 C17.63458676 16.8208325 16.36002129 17.1200071 13 16 C14.55500981 12.18315774 17.03595495 9.80804268 20 7 C19.31035156 7.01160156 18.62070312 7.02320313 17.91015625 7.03515625 C11.84227348 7.09342124 6.01642604 6.78903948 0 6 C0.66 5.67 1.32 5.34 2 5 C2 4.01 2 3.02 2 2 C1.34 2 0.68 2 0 2 C0 1.34 0 0.68 0 0 Z " fill="#15364C" transform="translate(36,142)"/>
<path d="M0 0 C0.33 0 0.66 0 1 0 C1 1.65 1 3.3 1 5 C3.97 5 6.94 5 10 5 C9.67 5.99 9.34 6.98 9 8 C9.99 7.67 10.98 7.34 12 7 C12 7.66 12 8.32 12 9 C12.66 9.33 13.32 9.66 14 10 C13.01 10.66 12.02 11.32 11 12 C11.33 12.66 11.66 13.32 12 14 C9.94766315 16.2477975 8.99332739 17.0022242 6 18 C3.60509014 18.06970052 1.20832309 18.08448003 -1.1875 18.0625 C-2.45980469 18.05347656 -3.73210937 18.04445312 -5.04296875 18.03515625 C-6.50669922 18.01775391 -6.50669922 18.01775391 -8 18 C-8.33 17.34 -8.66 16.68 -9 16 C-7.68 15.34 -6.36 14.68 -5 14 C-6.32 13.34 -7.64 12.68 -9 12 C-6.5635551 7.53318434 -3.52231888 3.65941512 0 0 Z " fill="#113249" transform="translate(76,130)"/>
<path d="M0 0 C5.52604495 3.23178353 9.51374163 8.57637091 11.48339844 14.67211914 C12.91148913 20.37381516 13.07506166 25.86716561 12.95703125 31.71875 C12.94800781 32.58435547 12.93898437 33.44996094 12.9296875 34.34179688 C12.90642848 36.44673779 12.87057133 38.55153342 12.83203125 40.65625 C12.50203125 40.65625 12.17203125 40.65625 11.83203125 40.65625 C11.50203125 38.34625 11.17203125 36.03625 10.83203125 33.65625 C10.17203125 34.64625 9.51203125 35.63625 8.83203125 36.65625 C8.80625 35.91761719 8.78046875 35.17898437 8.75390625 34.41796875 C8.07010763 22.1872979 5.12253876 12.99431339 -4.16796875 4.65625 C-6.74148393 2.78738778 -9.35776973 1.14356278 -12.16796875 -0.34375 C-7.66970066 -3.23399234 -4.71366068 -1.86779593 0 0 Z " fill="#193A4B" transform="translate(153.16796875,47.34375)"/>
<path d="M0 0 C0.84755859 0.04833984 1.69511719 0.09667969 2.56835938 0.14648438 C3.44943359 0.20255859 4.33050781 0.25863281 5.23828125 0.31640625 C6.13095703 0.36861328 7.02363281 0.42082031 7.94335938 0.47460938 C10.14619685 0.60418805 12.34856998 0.73914871 14.55078125 0.87890625 C12.22196527 6.10507545 8.57533626 8.10023125 3.30078125 10.12890625 C-1.28962943 11.04698839 -5.78474195 11.43342447 -10.44921875 10.87890625 C-11.43921875 10.21890625 -12.42921875 9.55890625 -13.44921875 8.87890625 C-13.11388099 5.74908713 -12.44855474 4.87829466 -10.07421875 2.69140625 C-6.54025498 0.25128841 -4.17844043 -0.25238902 0 0 Z " fill="#F5CE19" transform="translate(41.44921875,148.12109375)"/>
<path d="M0 0 C0 2.97 0 5.94 0 9 C1.423125 8.2575 1.423125 8.2575 2.875 7.5 C6 6 6 6 8 6 C8.33 7.32 8.66 8.64 9 10 C11.475 10.495 11.475 10.495 14 11 C13.63680051 13.6331963 13.14494976 14.84431322 11.3125 16.8125 C8.20761963 18.40689803 6.31383374 17.82845843 3 17 C3 16.34 3 15.68 3 15 C0.36 14.67 -2.28 14.34 -5 14 C-5 11.69 -5 9.38 -5 7 C-5.99 7.495 -5.99 7.495 -7 8 C-8.99960012 8.039992 -11.00047242 8.04346799 -13 8 C-12.67 6.35 -12.34 4.7 -12 3 C-10.88625 2.814375 -10.88625 2.814375 -9.75 2.625 C-7.03427622 2.12244458 -7.03427622 2.12244458 -4.875 0.9375 C-3 0 -3 0 0 0 Z " fill="#FCCE17" transform="translate(82,121)"/>
<path d="M0 0 C0.33 0.66 0.66 1.32 1 2 C1.66 2.33 2.32 2.66 3 3 C2.43152344 3.55945313 1.86304687 4.11890625 1.27734375 4.6953125 C-7.084292 13.37801272 -14.39394803 24.40310261 -14.29296875 36.84375 C-14.15212373 39.22040529 -14.15212373 39.22040529 -12.125 41.4375 C-11.073125 42.2109375 -11.073125 42.2109375 -10 43 C-9.34 43.66 -8.68 44.32 -8 45 C-8.99 45 -9.98 45 -11 45 C-11.33 45.66 -11.66 46.32 -12 47 C-10.02 47.66 -8.04 48.32 -6 49 C-7.485 49.495 -7.485 49.495 -9 50 C-13.76754491 47.40894299 -17.04267958 44.48078852 -20 40 C-18.50106377 24.15095364 -10.89162637 11.15786613 0 0 Z " fill="#EE81A3" transform="translate(76,103)"/>
<path d="M0 0 C0.99 0 1.98 0 3 0 C3.66 1.98 4.32 3.96 5 6 C7.97 6 10.94 6 14 6 C14 5.01 14 4.02 14 3 C12.02 3 10.04 3 8 3 C8.33 2.34 8.66 1.68 9 1 C10.6065676 1.25620684 12.2102483 1.53055871 13.8125 1.8125 C15.15248047 2.03873047 15.15248047 2.03873047 16.51953125 2.26953125 C19.23156338 3.06819268 20.36452822 3.71033951 22 6 C21.92857823 9.92819709 21.58982358 12.22712772 19.1875 15.375 C16.9461497 17.04000308 15.7582062 17.74925398 13 18 C10.25 17.5625 10.25 17.5625 8 17 C8 16.67 8 16.34 8 16 C9.98 15.67 11.96 15.34 14 15 C10.98029212 13.43370292 7.91349586 12.12374836 4.75 10.875 C3.85796875 10.52179688 2.9659375 10.16859375 2.046875 9.8046875 C1.37140625 9.53914062 0.6959375 9.27359375 0 9 C0 6 0 3 0 0 Z " fill="#263F4B" transform="translate(100,160)"/>
<path d="M0 0 C0.33 0 0.66 0 1 0 C1 1.65 1 3.3 1 5 C3.64 4.67 6.28 4.34 9 4 C7.51554886 7.27628862 5.62390715 9.88793452 3.375 12.6875 C1.09349091 15.07795191 1.09349091 15.07795191 0 18 C1.98 18.33 3.96 18.66 6 19 C1.13043478 23 1.13043478 23 -2 23 C-4.92493752 21.00572442 -6.71401402 19.44316999 -7.421875 15.87109375 C-7.58863015 10.94347907 -6.88796726 7.12566752 -4 3 C-1.8125 2.125 -1.8125 2.125 0 2 C0 1.34 0 0.68 0 0 Z " fill="#0E2D44" transform="translate(68,124)"/>
<path d="M0 0 C2.4375 0.8125 2.4375 0.8125 4.4375 3.8125 C5.09756064 8.40989909 5.29888521 12.47256745 2.75 16.4375 C-0.01437769 18.08118403 -1.40138371 18.37987985 -4.5625 17.8125 C-7.3650964 16.11092361 -7.59159473 14.70235567 -8.4375 11.5 C-8.58064113 7.27733661 -7.84884278 5.32366927 -5.5625 1.8125 C-2.5625 -0.1875 -2.5625 -0.1875 0 0 Z " fill="#103049" transform="translate(103.5625,55.1875)"/>
<path d="M0 0 C7.95121051 0.43848587 14.6994496 5.02620251 19.96875 10.73046875 C27.30836993 19.88547339 27.48118928 30.27528556 26.4375 41.5625 C25.4790836 45.4505735 24.20783478 48.97441076 22.4375 52.5625 C21.7775 52.2325 21.1175 51.9025 20.4375 51.5625 C20.9325 50.428125 21.4275 49.29375 21.9375 48.125 C25.0078789 38.72103758 25.07615433 27.88389244 20.875 18.875 C16.60195594 11.58686411 11.86153102 7.40970241 3.7265625 5.01953125 C0.22103619 4.31962241 -2.99771487 4.36805717 -6.5625 4.5625 C-4.823211 1.08392199 -3.91215091 0.61770804 0 0 Z " fill="#F5E24D" transform="translate(134.5625,45.4375)"/>
<path d="M0 0 C3.14210245 1.08364678 6.06493576 2.4457343 9 4 C4.84195657 8.15804343 -0.77610429 9.83852902 -6.55078125 10.2578125 C-9.71010393 10.25090688 -12.84598455 10.17796952 -16 10 C-16.33 8.68 -16.66 7.36 -17 6 C-11.11669164 1.0119777 -7.90281744 -0.93906936 0 0 Z " fill="#F7D521" transform="translate(45,68)"/>
<path d="M0 0 C0.33 0 0.66 0 1 0 C1.061875 1.19625 1.12375 2.3925 1.1875 3.625 C1.75862741 8.44122367 3.74932335 10.5055226 7 14 C7.33 14.99 7.66 15.98 8 17 C10.74694534 18.62070531 10.74694534 18.62070531 14 20.0625 C19.89792786 22.79585572 19.89792786 22.79585572 21 25 C19.046875 24.44661458 17.09375 23.89322917 15.140625 23.33984375 C13.01576964 22.85799785 13.01576964 22.85799785 11.03125 23.5 C8.47056841 24.13032162 6.7932839 23.69832097 4.25 23.0625 C3.05117187 22.77052734 3.05117187 22.77052734 1.828125 22.47265625 C1.22484375 22.31667969 0.6215625 22.16070312 0 22 C0.0825 21.113125 0.165 20.22625 0.25 19.3125 C-0.05208163 15.30991841 -1.29727467 13.87164566 -4 11 C-3.34 9.68 -2.68 8.36 -2 7 C-1.67 7 -1.34 7 -1 7 C-0.67 4.69 -0.34 2.38 0 0 Z " fill="#203E50" transform="translate(132,23)"/>
<path d="M0 0 C0.99 0.66 1.98 1.32 3 2 C-0.3 2 -3.6 2 -7 2 C-7.33 2.99 -7.66 3.98 -8 5 C-9.9375 6.0625 -9.9375 6.0625 -12 7 C-12.66 7.66 -13.32 8.32 -14 9 C-13.7949499 14.43382755 -12.40885398 16.90937522 -9 21 C-9.33 21.99 -9.66 22.98 -10 24 C-13.88789563 22.41604252 -16.40520105 20.29609597 -19 17 C-20.26137657 12.78776673 -20.44775823 9.28730491 -19 5.125 C-13.8805667 -0.31439788 -7.12440311 -0.95905426 0 0 Z " fill="#1F4A5B" transform="translate(40,38)"/>
<path d="M0 0 C5.33549007 8.00323511 4.20433174 17.86254727 3 27 C2.4811377 29.44606514 1.84201978 31.64234461 1 34 C-1.49064888 34.68707555 -3.37886292 35 -6 35 C-5.10031348 29.34482759 -5.10031348 29.34482759 -4.5 27.28125 C-3.77374521 23.96771253 -3.63223065 20.62745954 -3.4375 17.25 C-3.39431641 16.55261719 -3.35113281 15.85523437 -3.30664062 15.13671875 C-3.20110404 13.42468078 -3.1001009 11.71236439 -3 10 C-2.67 10 -2.34 10 -2 10 C-1.67 12.97 -1.34 15.94 -1 19 C2.71444234 13.42833649 1.08221622 6.3580203 0 0 Z " fill="#354B4D" transform="translate(164,62)"/>
<path d="M0 0 C1.32 0 2.64 0 4 0 C4.33 2.64 4.66 5.28 5 8 C8.3 8.99 11.6 9.98 15 11 C14.34 12.65 13.68 14.3 13 16 C9.26512223 15.5020163 7.18762365 15.12508244 4 13 C1.48415109 12.75849227 1.48415109 12.75849227 -1.1875 12.875 C-2.53908203 12.90207031 -2.53908203 12.90207031 -3.91796875 12.9296875 C-4.94857422 12.96449219 -4.94857422 12.96449219 -6 13 C-5.67 12.01 -5.34 11.02 -5 10 C-4.01 9.6596875 -4.01 9.6596875 -3 9.3125 C-0.82484567 8.20686747 -0.82484567 8.20686747 -0.515625 6.09765625 C-0.27357441 4.07226234 -0.13132736 2.03557415 0 0 Z " fill="#E5AA23" transform="translate(88,161)"/>
<path d="M0 0 C-1.25541557 2.51083114 -2.50063488 2.87125446 -5 4 C-5 5.32 -5 6.64 -5 8 C-7.00720727 11.39148814 -9.08973115 14.34279801 -12 17 C-12.495 17.556875 -12.99 18.11375 -13.5 18.6875 C-15 20 -15 20 -18 20 C-17.66924225 12.22719279 -13.84081263 6.91183295 -8.5 1.4375 C-5.46382785 -0.30829899 -3.44759397 -0.32070642 0 0 Z " fill="#1E3F55" transform="translate(70,12)"/>
<path d="M0 0 C0.79664062 0.33773437 1.59328125 0.67546875 2.4140625 1.0234375 C3.47367187 1.46945313 4.53328125 1.91546875 5.625 2.375 C7.19121094 3.03628906 7.19121094 3.03628906 8.7890625 3.7109375 C11.82903202 4.93136322 14.88205905 5.9981391 18 7 C14.50943364 10.60691857 13.20137088 11.9046531 8.0625 12.3125 C4.30697974 12.23766173 4.30697974 12.23766173 2.0625 10.5 C0.57228491 6.99361154 0.31636338 3.79636056 0 0 Z " fill="#F6D51A" transform="translate(121,84)"/>
<path d="M0 0 C1.23384786 3.70154358 0.58331422 4.74651527 -0.8125 8.3125 C-1.18503906 9.28445312 -1.55757812 10.25640625 -1.94140625 11.2578125 C-2.29074219 12.16273438 -2.64007813 13.06765625 -3 14 C-3.67681023 15.99659018 -4.34961499 17.99464622 -5 20 C-5.61875 19.319375 -6.2375 18.63875 -6.875 17.9375 C-11.1827427 13.60492881 -16.5350856 9.7324572 -22 7 C-22 5.68 -22 4.36 -22 3 C-20.68 3 -19.36 3 -18 3 C-18.33 4.32 -18.66 5.64 -19 7 C-14.05250648 8.95031608 -14.05250648 8.95031608 -9 8 C-9 8.66 -9 9.32 -9 10 C-4.8309343 8.45705773 -4.8309343 8.45705773 -1.93359375 5.2421875 C-1.21380202 3.52442366 -0.5989392 1.76354319 0 0 Z " fill="#0C2F45" transform="translate(62,119)"/>
<path d="M0 0 C9.7157064 0.15043674 15.49561986 3.1793622 23.03125 9.21484375 C25.05417101 11.3059982 25.64397213 12.40813465 26 15.25 C22.60191984 13.74852272 20.22959526 12.49821109 17.6875 9.75 C12.20061531 4.64592121 5.32803006 3.93360719 -1.93359375 3.55859375 C-4 3.25 -4 3.25 -6 1.25 C-4.32111573 -0.42888427 -2.30073107 0.03834552 0 0 Z " fill="#63CDD8" transform="translate(29,123.75)"/>
<path d="M0 0 C0 0.99 0 1.98 0 3 C1.32 3.66 2.64 4.32 4 5 C2.25197854 5.81674796 0.50149811 6.62823451 -1.25 7.4375 C-2.22453125 7.88996094 -3.1990625 8.34242187 -4.203125 8.80859375 C-8.75821324 10.74895955 -12.28469466 11.11647071 -17.25 11.0625 C-18.32765625 11.05347656 -19.4053125 11.04445313 -20.515625 11.03515625 C-21.33546875 11.02355469 -22.1553125 11.01195313 -23 11 C-23 10.67 -23 10.34 -23 10 C-19.37 10 -15.74 10 -12 10 C-12 9.01 -12 8.02 -12 7 C-14.31 6.67 -16.62 6.34 -19 6 C-19 5.67 -19 5.34 -19 5 C-17.72125 4.9175 -16.4425 4.835 -15.125 4.75 C-9.65949199 4.16782347 -4.98184622 2.23611052 0 0 Z " fill="#2B464E" transform="translate(52,73)"/>
<path d="M0 0 C1.32 0.66 2.64 1.32 4 2 C4.33 1.34 4.66 0.68 5 0 C4.51947285 5.64619401 3.17262158 12.82737842 -1 17 C-2.99958364 17.04080783 -5.00045254 17.04254356 -7 17 C-7.66 15.68 -8.32 14.36 -9 13 C-8.01 13 -7.02 13 -6 13 C-6.66 11.68 -7.32 10.36 -8 9 C-6.35 9.99 -4.7 10.98 -3 12 C-2.01 8.04 -1.02 4.08 0 0 Z " fill="#0F2A42" transform="translate(69,51)"/>
<path d="M0 0 C0.33 0 0.66 0 1 0 C1 1.65 1 3.3 1 5 C2.98 5 4.96 5 7 5 C4.36307938 8.61355789 2.10943774 11.14096864 -2 13 C-5.3125 13.1875 -5.3125 13.1875 -8 13 C-8.33 12.34 -8.66 11.68 -9 11 C-7.68823998 9.35357683 -6.3755713 7.70787757 -5.0625 6.0625 C-4.33160156 5.14597656 -3.60070312 4.22945312 -2.84765625 3.28515625 C-1 1 -1 1 0 0 Z " fill="#44B0BF" transform="translate(76,130)"/>
<path d="M0 0 C0.99 0 1.98 0 3 0 C3.66 1.98 4.32 3.96 5 6 C6.2375 5.95875 7.475 5.9175 8.75 5.875 C12.01637962 5.86341709 14.2146947 6.1431298 17 8 C13.25 9.125 13.25 9.125 11 8 C11 8.66 11 9.32 11 10 C12.32 10.33 13.64 10.66 15 11 C15 11.66 15 12.32 15 13 C9.03435204 12.49228528 4.36190101 10.61407872 -1 8 C-0.835 7.05125 -0.67 6.1025 -0.5 5.125 C0.0526635 2.19831099 0.0526635 2.19831099 0 0 Z " fill="#E2A820" transform="translate(100,160)"/>
<path d="M0 0 C0.33 1.32 0.66 2.64 1 4 C2.65 4.33 4.3 4.66 6 5 C5.63680051 7.6331963 5.14494976 8.84431322 3.3125 10.8125 C0.20761963 12.40689803 -1.68616626 11.82845843 -5 11 C-5 10.34 -5 9.68 -5 9 C-6.65 8.67 -8.3 8.34 -10 8 C-8.68 7.67 -7.36 7.34 -6 7 C-6.33 5.68 -6.66 4.36 -7 3 C-2.25 0 -2.25 0 0 0 Z " fill="#F8CA20" transform="translate(90,127)"/>
<path d="M0 0 C2 3 2 3 2.328125 5.05078125 C2.83581437 7.21164427 2.83581437 7.21164427 5.109375 8.23046875 C5.98078125 8.54628906 6.8521875 8.86210937 7.75 9.1875 C8.61109375 9.51105469 9.4721875 9.83460938 10.359375 10.16796875 C12.89536685 10.96703127 15.38422991 11.53424238 18 12 C18.33 12.99 18.66 13.98 19 15 C18.37351562 15.04898438 17.74703125 15.09796875 17.1015625 15.1484375 C16.28429687 15.22320312 15.46703125 15.29796875 14.625 15.375 C13.81289062 15.44460937 13.00078125 15.51421875 12.1640625 15.5859375 C9.79665809 15.82892588 9.79665809 15.82892588 8 18 C8 17.01 8 16.02 8 15 C7.34 15 6.68 15 6 15 C6 13.68 6 12.36 6 11 C5.05125 10.87625 4.1025 10.7525 3.125 10.625 C0 10 0 10 -2 8 C-1.67 7.01 -1.34 6.02 -1 5 C-0.65179959 3.33637583 -0.31595508 1.67004829 0 0 Z " fill="#18374B" transform="translate(97,161)"/>
<path d="M0 0 C2 1 2 1 3.1171875 3.94140625 C4.33083978 8.5881982 4.21934032 13.16605684 4.125 17.9375 C4.11597656 18.81212891 4.10695312 19.68675781 4.09765625 20.58789062 C4.0742957 22.72538064 4.03843247 24.86272786 4 27 C3.67 27 3.34 27 3 27 C2.67 24.69 2.34 22.38 2 20 C1.34 20.99 0.68 21.98 0 23 C-0.09087891 21.82244141 -0.09087891 21.82244141 -0.18359375 20.62109375 C-0.62820214 15.04638852 -1.12124643 9.52359384 -2 4 C-1.34 4 -0.68 4 0 4 C0 2.68 0 1.36 0 0 Z " fill="#07304A" transform="translate(162,61)"/>
<path d="M0 0 C0.33 0 0.66 0 1 0 C1.57584762 7.77394285 -0.08981401 14.60478302 -5.25 20.625 C-6.11625 21.305625 -6.11625 21.305625 -7 22 C-7.99 20.68 -8.98 19.36 -10 18 C-9.54625 17.484375 -9.0925 16.96875 -8.625 16.4375 C-6.61799617 13.42699426 -5.87268191 10.49072763 -5 7 C-4.67 7.66 -4.34 8.32 -4 9 C-3.01 9 -2.02 9 -1 9 C-0.67 6.03 -0.34 3.06 0 0 Z " fill="#243049" transform="translate(107,114)"/>
<path d="M0 0 C0.84755859 0.04833984 1.69511719 0.09667969 2.56835938 0.14648438 C3.44943359 0.20255859 4.33050781 0.25863281 5.23828125 0.31640625 C6.13095703 0.36861328 7.02363281 0.42082031 7.94335938 0.47460938 C10.14619685 0.60418805 12.34856998 0.73914871 14.55078125 0.87890625 C14.22078125 1.86890625 13.89078125 2.85890625 13.55078125 3.87890625 C11.42517688 3.57054393 9.3003106 3.25709011 7.17578125 2.94140625 C5.99242188 2.76738281 4.8090625 2.59335938 3.58984375 2.4140625 C0.55078125 1.87890625 0.55078125 1.87890625 -1.44921875 0.87890625 C-1.44921875 1.53890625 -1.44921875 2.19890625 -1.44921875 2.87890625 C-2.90547325 3.55010174 -4.36429742 4.21572432 -5.82421875 4.87890625 C-7.04238281 5.43578125 -7.04238281 5.43578125 -8.28515625 6.00390625 C-10.44921875 6.87890625 -10.44921875 6.87890625 -12.44921875 6.87890625 C-12.77921875 7.53890625 -13.10921875 8.19890625 -13.44921875 8.87890625 C-13.11388099 5.74908713 -12.44855474 4.87829466 -10.07421875 2.69140625 C-6.54025498 0.25128841 -4.17844043 -0.25238902 0 0 Z " fill="#F1DE37" transform="translate(41.44921875,148.12109375)"/>
<path d="M0 0 C7.05210969 -0.50372212 12.14734866 0.70705587 17.61328125 5.37890625 C18.78850526 6.5408883 19.90201865 7.76477098 21 9 C20.67 9.66 20.34 10.32 20 11 C18.9275 10.278125 17.855 9.55625 16.75 8.8125 C11.47440249 5.49153034 5.78808687 3.26700069 0 1 C0 0.67 0 0.34 0 0 Z " fill="#66D2DD" transform="translate(32,44)"/>
<path d="M0 0 C3.37705625 0.53725895 6.696686 1.11064623 10 2 C9.34 3.65 8.68 5.3 8 7 C3.15340923 6.40895235 -0.60748167 5.02055843 -5 3 C-5 2.67 -5 2.34 -5 2 C-3.35 2 -1.7 2 0 2 C0 1.34 0 0.68 0 0 Z " fill="#E1A722" transform="translate(93,170)"/>
<path d="M0 0 C0.66 0.66 1.32 1.32 2 2 C1.625 5.625 1.625 5.625 1 9 C-0.134375 9.268125 -1.26875 9.53625 -2.4375 9.8125 C-3.613125 10.204375 -4.78875 10.59625 -6 11 C-6.33 11.99 -6.66 12.98 -7 14 C-7.66 14 -8.32 14 -9 14 C-7.64002446 7.95566426 -4.14348206 4.36505864 0 0 Z " fill="#1C3C53" transform="translate(68,103)"/>
<path d="M0 0 C5.1103144 1.1454153 9.37234081 2.45478745 14 5 C12 7 12 7 9.94140625 7.08203125 C9.15636719 6.99308594 8.37132812 6.90414062 7.5625 6.8125 C6.38880859 6.69841797 6.38880859 6.69841797 5.19140625 6.58203125 C2.60798701 5.89588247 1.58513548 5.13560053 0 3 C0 2.01 0 1.02 0 0 Z " fill="#082940" transform="translate(44,64)"/>
<path d="M0 0 C2.48865049 0.81395712 4.64679665 1.82339832 7 3 C3.47968622 5.21932825 0.95643613 5.10366609 -3.125 4.6875 C-4.70667969 4.53861328 -4.70667969 4.53861328 -6.3203125 4.38671875 C-9 4 -9 4 -11 3 C-8.32168726 -1.01746911 -4.34565151 -0.61854164 0 0 Z " fill="#E8D84A" transform="translate(139,46)"/>
<path d="M0 0 C0.33 0.66 0.66 1.32 1 2 C1.66 2 2.32 2 3 2 C2.625 4.4375 2.625 4.4375 2 7 C-0.82001327 8.41000664 -2.87007255 8.24548451 -6 8 C-8.875 6.5 -8.875 6.5 -11 5 C-10.34 4.67 -9.68 4.34 -9 4 C-8.67 3.34 -8.34 2.68 -8 2 C-7.071875 2.7425 -7.071875 2.7425 -6.125 3.5 C-4.16119096 5.19222773 -4.16119096 5.19222773 -2 5 C-2.33 4.34 -2.66 3.68 -3 3 C-2.01 2.01 -1.02 1.02 0 0 Z " fill="#233D48" transform="translate(102,174)"/>
<path d="M0 0 C0.33 0 0.66 0 1 0 C1.185625 1.03125 1.37125 2.0625 1.5625 3.125 C3.16747024 8.68066623 7.36947567 11.5171739 12.23828125 14.26171875 C14.13548268 15.22211379 16.06532763 16.11751787 18 17 C14.21637439 18.26120854 12.68605054 17.25482572 9 16 C8.34 16.33 7.68 16.66 7 17 C5.5 15.6875 5.5 15.6875 4 14 C4 13.01 4 12.02 4 11 C3.34 10.236875 2.68 9.47375 2 8.6875 C-0.37199479 5.500132 -0.36071142 3.87764779 0 0 Z " fill="#0A2D41" transform="translate(25,46)"/>
<path d="M0 0 C1.8253125 0.4640625 1.8253125 0.4640625 3.6875 0.9375 C9.73076221 2.29868206 15.82945928 2.63758803 22 3 C22 3.33 22 3.66 22 4 C17.05 4 12.1 4 7 4 C7 4.66 7 5.32 7 6 C4.69 6 2.38 6 0 6 C0.66 5.67 1.32 5.34 2 5 C2 4.01 2 3.02 2 2 C1.34 2 0.68 2 0 2 C0 1.34 0 0.68 0 0 Z " fill="#0A293F" transform="translate(36,142)"/>
<path d="M0 0 C4.16138263 -0.08159574 7.9472484 0.01751476 12 1 C11.01 1.66 10.02 2.32 9 3 C9.33 3.66 9.66 4.32 10 5 C5.38 5.33 0.76 5.66 -4 6 C-3.34 5.34 -2.68 4.68 -2 4 C-1.01 4 -0.02 4 1 4 C0.67 2.68 0.34 1.36 0 0 Z " fill="#073044" transform="translate(31,39)"/>
<path d="M0 0 C2.64 0.33 5.28 0.66 8 1 C8.33 1.99 8.66 2.98 9 4 C9.99 4.66 10.98 5.32 12 6 C8.37 6 4.74 6 1 6 C0 3 0 3 0 0 Z " fill="#083047" transform="translate(72,155)"/>
<path d="M0 0 C1.75570313 0.02707031 1.75570313 0.02707031 3.546875 0.0546875 C4.88492188 0.08949219 4.88492188 0.08949219 6.25 0.125 C6.25 0.455 6.25 0.785 6.25 1.125 C5.52554688 1.15078125 4.80109375 1.1765625 4.0546875 1.203125 C-2.19801858 1.56995042 -5.85829063 2.2116325 -10.75 6.125 C-11.74 6.455 -12.73 6.785 -13.75 7.125 C-13.42 10.095 -13.09 13.065 -12.75 16.125 C-13.41 15.795 -14.07 15.465 -14.75 15.125 C-15.37531017 6.99596774 -15.37531017 6.99596774 -13 3.6875 C-8.46884714 0.54086607 -5.60102132 -0.11202043 0 0 Z " fill="#3A626C" transform="translate(29.75,117.875)"/>
<path d="M0 0 C1.33895632 1.66215268 2.67130142 3.32963607 4 5 C4.598125 5.70125 5.19625 6.4025 5.8125 7.125 C6.204375 7.74375 6.59625 8.3625 7 9 C6.67 9.99 6.34 10.98 6 12 C0.72727273 9.63636364 0.72727273 9.63636364 -1 7 C-0.6875 3.3125 -0.6875 3.3125 0 0 Z " fill="#134052" transform="translate(24,50)"/>
<path d="M0 0 C2 3 2 3 2 5 C3.98 5 5.96 5 8 5 C8 5.99 8 6.98 8 8 C5.03 8 2.06 8 -1 8 C-1.33 5.69 -1.66 3.38 -2 1 C-1.34 0.67 -0.68 0.34 0 0 Z " fill="#082D48" transform="translate(106,158)"/>
<path d="M0 0 C0.66 0.33 1.32 0.66 2 1 C2.59355614 3.64860427 2.74209269 6.29197322 3 9 C1.34385343 9.38218767 -0.32457024 9.71395102 -2 10 C-3 9 -3 9 -3.25 6.125 C-3 3 -3 3 -1.5 1.125 C-1.005 0.75375 -0.51 0.3825 0 0 Z " fill="#254552" transform="translate(80,167)"/>
<path d="M0 0 C0.90105469 0.00902344 1.80210938 0.01804687 2.73046875 0.02734375 C3.41753906 0.03894531 4.10460938 0.05054687 4.8125 0.0625 C4.8125 1.0525 4.8125 2.0425 4.8125 3.0625 C0.5225 3.0625 -3.7675 3.0625 -8.1875 3.0625 C-8.1875 2.4025 -8.1875 1.7425 -8.1875 1.0625 C-5.17259443 0.05753148 -3.14568308 -0.04085303 0 0 Z " fill="#0B374A" transform="translate(35.1875,79.9375)"/>
<path d="M0 0 C0.33 0.66 0.66 1.32 1 2 C2.32 2.33 3.64 2.66 5 3 C2.69 5.64 0.38 8.28 -2 11 C-3.28485596 5.86057616 -2.22194431 4.62164416 0 0 Z " fill="#4BB3C1" transform="translate(68,127)"/>
<path d="M0 0 C3.93673644 1.31224548 6.22719294 2.91910327 9 6 C7.3125 7.1875 7.3125 7.1875 5 8 C2.25 6.9375 2.25 6.9375 0 5 C-0.3125 2.3125 -0.3125 2.3125 0 0 Z " fill="#1C4759" transform="translate(43,121)"/>
<path d="M0 0 C0 0.66 0 1.32 0 2 C0.66 2.33 1.32 2.66 2 3 C-1.85756507 5.15305957 -4.55129785 6.39253254 -9 6 C-4.5 0 -4.5 0 0 0 Z " fill="#4AB4BF" transform="translate(88,137)"/>
<path d="M0 0 C0 0.99 0 1.98 0 3 C-5.75 4.125 -5.75 4.125 -8 3 C-8 2.01 -8 1.02 -8 0 C-4.71023192 -1.09658936 -3.28696233 -0.79953138 0 0 Z " fill="#164558" transform="translate(48,41)"/>
<path d="M0 0 C0.7940625 -0.01417969 1.588125 -0.02835937 2.40625 -0.04296875 C4.5 0.1875 4.5 0.1875 6.5 2.1875 C5.6646875 2.26097656 5.6646875 2.26097656 4.8125 2.3359375 C-0.46567265 2.85305577 -5.38362365 3.79212463 -10.5 5.1875 C-6.91339154 1.48133793 -5.17653238 0.04201731 0 0 Z " fill="#E9DD47" transform="translate(40.5,67.8125)"/>
<path d="M0 0 C0.33 0.66 0.66 1.32 1 2 C1.66 2 2.32 2 3 2 C1.60667426 5.36720387 0.0210714 6.9859524 -3 9 C-3.1875 5.625 -3.1875 5.625 -3 2 C-2.01 1.34 -1.02 0.68 0 0 Z " fill="#0B2D46" transform="translate(72,101)"/>
<path d="M0 0 C0.33 0 0.66 0 1 0 C1.31461385 7.09629025 1.44572039 12.68284595 -2 19 C-2.66 18.67 -3.32 18.34 -4 18 C-3.79503906 17.45472656 -3.59007812 16.90945312 -3.37890625 16.34765625 C-1.41324021 10.84567235 -0.46218398 5.8235181 0 0 Z " fill="#F3DC36" transform="translate(159,79)"/>
<path d="M0 0 C-1.55500981 3.81684226 -4.03595495 6.19195732 -7 9 C-7.33 7.68 -7.66 6.36 -8 5 C-2.25 0 -2.25 0 0 0 Z " fill="#153448" transform="translate(77,128)"/>
<path d="M0 0 C0.99 0 1.98 0 3 0 C3.66 1.98 4.32 3.96 5 6 C4.01 6.99 3.02 7.98 2 9 C1.01 8.67 0.02 8.34 -1 8 C-0.835 7.05125 -0.67 6.1025 -0.5 5.125 C0.0526635 2.19831099 0.0526635 2.19831099 0 0 Z " fill="#EBC129" transform="translate(100,160)"/>
<path d="M0 0 C0.66 0.33 1.32 0.66 2 1 C2.125 7.75 2.125 7.75 1 10 C0.01 10 -0.98 10 -2 10 C-1.46274105 6.62294375 -0.88935377 3.303314 0 0 Z " fill="#EB799A" transform="translate(58,133)"/>
<path d="M0 0 C2.64 0.33 5.28 0.66 8 1 C8.33 1.99 8.66 2.98 9 4 C2.375 4.25 2.375 4.25 -1 2 C-0.67 1.34 -0.34 0.68 0 0 Z " fill="#062C48" transform="translate(107,172)"/>
<path d="M0 0 C1.43861294 0.08746284 2.87597508 0.19565348 4.3125 0.3125 C5.11300781 0.37050781 5.91351563 0.42851562 6.73828125 0.48828125 C9.36272334 1.08206694 10.30820672 1.95780294 12 4 C9.69 4.66 7.38 5.32 5 6 C5.33 4.68 5.66 3.36 6 2 C4.02 2 2.04 2 0 2 C0 1.34 0 0.68 0 0 Z " fill="#2F454D" transform="translate(108,161)"/>
<path d="M0 0 C0.33 1.32 0.66 2.64 1 4 C-0.65 4.66 -2.3 5.32 -4 6 C-4.33 5.34 -4.66 4.68 -5 4 C-5.99 4 -6.98 4 -8 4 C-4.5 0 -4.5 0 0 0 Z " fill="#0C2841" transform="translate(133,42)"/>
<path d="M0 0 C2.475 0.99 2.475 0.99 5 2 C5 2.66 5 3.32 5 4 C6.32 4.66 7.64 5.32 9 6 C4.32538149 6.32613618 1.83325617 5.70582788 -2 3 C-1.34 2.67 -0.68 2.34 0 2 C0 1.34 0 0.68 0 0 Z " fill="#314951" transform="translate(93,176)"/>
<path d="M0 0 C1.32 0 2.64 0 4 0 C4 1.98 4 3.96 4 6 C2.68 6 1.36 6 0 6 C0 4.02 0 2.04 0 0 Z " fill="#D9BE40" transform="translate(88,161)"/>
<path d="M0 0 C4.62 0 9.24 0 14 0 C13.67 0.99 13.34 1.98 13 3 C8.71 2.34 4.42 1.68 0 1 C0 0.67 0 0.34 0 0 Z " fill="#EDDB2C" transform="translate(42,149)"/>
<path d="M0 0 C2.97 0.495 2.97 0.495 6 1 C5.34 2.32 4.68 3.64 4 5 C2.35 4.67 0.7 4.34 -1 4 C-0.67 2.68 -0.34 1.36 0 0 Z " fill="#F2AE1E" transform="translate(97,172)"/>
<path d="M0 0 C0.8971875 0.309375 0.8971875 0.309375 1.8125 0.625 C-3.8125 5.625 -3.8125 5.625 -7.1875 5.625 C-5.69046729 2.17030914 -4.27938051 -0.73360809 0 0 Z " fill="#344E55" transform="translate(30.1875,146.375)"/>
<path d="M0 0 C1.65 0.33 3.3 0.66 5 1 C5 2.32 5 3.64 5 5 C3.02 5 1.04 5 -1 5 C-0.67 3.35 -0.34 1.7 0 0 Z " fill="#ECC42E" transform="translate(70,124)"/>
<path d="M0 0 C0.99 0 1.98 0 3 0 C3.33 0.66 3.66 1.32 4 2 C6.31 2 8.62 2 11 2 C11 2.33 11 2.66 11 3 C9.37828761 3.38897161 7.75245075 3.76078298 6.125 4.125 C5.22007813 4.33382812 4.31515625 4.54265625 3.3828125 4.7578125 C2.59648438 4.83773437 1.81015625 4.91765625 1 5 C0.34 4.34 -0.32 3.68 -1 3 C-0.67 2.01 -0.34 1.02 0 0 Z " fill="#0D263C" transform="translate(84,102)"/>
<path d="M0 0 C0.33 0 0.66 0 1 0 C1 1.65 1 3.3 1 5 C-1.66666667 6.33333333 -4.33333333 7.66666667 -7 9 C-6.02180976 7.68677212 -5.0424189 6.37443848 -4.0625 5.0625 C-3.51722656 4.33160156 -2.97195312 3.60070312 -2.41015625 2.84765625 C-1 1 -1 1 0 0 Z " fill="#5FBCBA" transform="translate(76,130)"/>
<path d="M0 0 C0 3 0 3 -1.2421875 4.60546875 C-1.78101562 5.12753906 -2.31984375 5.64960937 -2.875 6.1875 C-3.40867187 6.71730469 -3.94234375 7.24710937 -4.4921875 7.79296875 C-6 9 -6 9 -8 9 C-6.4169423 4.7257442 -3.49431596 2.73468206 0 0 Z " fill="#E67FA4" transform="translate(84,107)"/>
<path d="M0 0 C1.98 0.66 3.96 1.32 6 2 C6 2.99 6 3.98 6 5 C3.69 4.34 1.38 3.68 -1 3 C-0.67 2.01 -0.34 1.02 0 0 Z " fill="#1B3C49" transform="translate(46,66)"/>
<path d="M0 0 C0.33 0.66 0.66 1.32 1 2 C3.52733235 2.65555119 3.52733235 2.65555119 6 3 C6 3.66 6 4.32 6 5 C3.6568787 4.74438677 1.32156597 4.40729228 -1 4 C-1.33 3.34 -1.66 2.68 -2 2 C-1.34 2 -0.68 2 0 2 C0 1.34 0 0.68 0 0 Z " fill="#D6A425" transform="translate(109,168)"/>
<path d="M0 0 C0.99 0.33 1.98 0.66 3 1 C2.0479279 2.00596297 1.08812654 3.00461563 0.125 4 C-0.40867187 4.556875 -0.94234375 5.11375 -1.4921875 5.6875 C-3 7 -3 7 -5 7 C-3.70700306 4.11562221 -2.34058637 2.12780579 0 0 Z " fill="#031C35" transform="translate(83,135)"/>
<path d="M0 0 C0.33 0 0.66 0 1 0 C1 4.29 1 8.58 1 13 C0.01 12.67 -0.98 12.34 -2 12 C-1.34 8.04 -0.68 4.08 0 0 Z " fill="#395C6A" transform="translate(51,32)"/>
<path d="M0 0 C0.66 0.33 1.32 0.66 2 1 C0.515 3.475 0.515 3.475 -1 6 C-1.66 5.67 -2.32 5.34 -3 5 C-3.66 5 -4.32 5 -5 5 C-5.99 4.67 -6.98 4.34 -8 4 C-6.71349294 3.30289269 -5.42059335 2.61757124 -4.125 1.9375 C-3.40570313 1.55464844 -2.68640625 1.17179688 -1.9453125 0.77734375 C-1.30335937 0.52082031 -0.66140625 0.26429688 0 0 Z " fill="#06253C" transform="translate(90,139)"/>
<path d="M0 0 C1.35015859 4.05047576 0.62084998 6.7920168 0 11 C-0.33 11 -0.66 11 -1 11 C-1 9.35 -1 7.7 -1 6 C-1.66 6 -2.32 6 -3 6 C-3 5.01 -3 4.02 -3 3 C-2.34 3 -1.68 3 -1 3 C-0.67 2.01 -0.34 1.02 0 0 Z " fill="#052948" transform="translate(122,55)"/>
<path d="M0 0 C0.99 0.33 1.98 0.66 3 1 C2.67 1.66 2.34 2.32 2 3 C1.34 3 0.68 3 0 3 C0.33 4.98 0.66 6.96 1 9 C-0.5625 7.8125 -0.5625 7.8125 -2 6 C-1.57894737 1.57894737 -1.57894737 1.57894737 0 0 Z " fill="#5CC5D3" transform="translate(28,45)"/>
<path d="M0 0 C0.66 0.99 1.32 1.98 2 3 C1.01 3.33 0.02 3.66 -1 4 C-1.33 4.99 -1.66 5.98 -2 7 C-2.99 6.34 -3.98 5.68 -5 5 C-4.01 5 -3.02 5 -2 5 C-1.34 3.35 -0.68 1.7 0 0 Z M-4 7 C-3.01 7.495 -3.01 7.495 -2 8 C-2.99 8.495 -2.99 8.495 -4 9 C-4 8.34 -4 7.68 -4 7 Z " fill="#33485C" transform="translate(118,18)"/>
<path d="M0 0 C2.31 0 4.62 0 7 0 C7 0.66 7 1.32 7 2 C7.66 2 8.32 2 9 2 C9 2.66 9 3.32 9 4 C9.66 4.33 10.32 4.66 11 5 C8.03 4.505 8.03 4.505 5 4 C5 3.34 5 2.68 5 2 C3.35 1.67 1.7 1.34 0 1 C0 0.67 0 0.34 0 0 Z " fill="#A3B65A" transform="translate(80,134)"/>
<path d="M0 0 C0.33 0.66 0.66 1.32 1 2 C-0.3125 3.5 -0.3125 3.5 -2 5 C-2.99 5 -3.98 5 -5 5 C-5 4.34 -5 3.68 -5 3 C-2.5 1.375 -2.5 1.375 0 0 Z M-8 6 C-7.01 6.495 -7.01 6.495 -6 7 C-6.99 7.495 -6.99 7.495 -8 8 C-8 7.34 -8 6.68 -8 6 Z " fill="#0F2E47" transform="translate(67,111)"/>
<path d="M0 0 C2.88437779 1.29299694 4.87219421 2.65941363 7 5 C6.67 5.66 6.34 6.32 6 7 C1.2 4.53846154 1.2 4.53846154 0.1875 1.8125 C0.125625 1.214375 0.06375 0.61625 0 0 Z " fill="#6AD8E3" transform="translate(46,48)"/>
<path d="M0 0 C3.375 -0.125 3.375 -0.125 7 0 C7.66 0.66 8.32 1.32 9 2 C6.75 2.6875 6.75 2.6875 4 3 C1.6875 1.5625 1.6875 1.5625 0 0 Z " fill="#0C2A4A" transform="translate(95,169)"/>
<path d="M0 0 C0.7425 0.185625 1.485 0.37125 2.25 0.5625 C4.94990963 0.99203108 6.44631077 0.85122974 9 0 C7.875 1.5 7.875 1.5 6 3 C2.8125 3.1875 2.8125 3.1875 0 3 C0 2.01 0 1.02 0 0 Z " fill="#56C2CD" transform="translate(68,140)"/>
<path d="M0 0 C0.33 0.66 0.66 1.32 1 2 C3.02463255 2.65213292 3.02463255 2.65213292 5 3 C3.68 3.99 2.36 4.98 1 6 C0.34 5.67 -0.32 5.34 -1 5 C-0.67 3.35 -0.34 1.7 0 0 Z " fill="#5BC0C0" transform="translate(68,127)"/>
<path d="M0 0 C0.33 0.66 0.66 1.32 1 2 C0.06553465 4.03144641 -0.93224776 6.03533587 -2 8 C-2.66 8 -3.32 8 -4 8 C-2.25 2.25 -2.25 2.25 0 0 Z " fill="#435061" transform="translate(63,109)"/>
<path d="M0 0 C0.66 0 1.32 0 2 0 C1.67 0.66 1.34 1.32 1 2 C0.67 1.34 0.34 0.68 0 0 Z " fill="#53787B" transform="translate(24,144)"/>
<path d="M0 0 C2 1 2 1 2 1 Z " fill="#5F676B" transform="translate(60,158)"/>
<path d="M0 0 C2 1 2 1 2 1 Z " fill="#615D64" transform="translate(120,153)"/>
<path d="M0 0 C2 1 2 1 2 1 Z " fill="#7F7660" transform="translate(144,96)"/>
<path d="" fill="#6A636F" transform="translate(0,0)"/>
<path d="M0 0 C2 1 2 1 2 1 Z " fill="#517C86" transform="translate(25,61)"/>
<path d="M0 0 C2 1 2 1 2 1 Z " fill="#4C7C84" transform="translate(20,56)"/>
<path d="" fill="#5B5E57" transform="translate(0,0)"/>
<path d="" fill="#616C63" transform="translate(0,0)"/>
<path d="" fill="#685D69" transform="translate(0,0)"/>
<path d="" fill="#4C7B85" transform="translate(0,0)"/>
<path d="" fill="#4C7581" transform="translate(0,0)"/>
<path d="" fill="#766E5C" transform="translate(0,0)"/>
<path d="" fill="#6E6870" transform="translate(0,0)"/>
<path d="" fill="#66636E" transform="translate(0,0)"/>
<path d="" fill="#637671" transform="translate(0,0)"/>
<path d="" fill="#827C5B" transform="translate(0,0)"/>
<path d="" fill="#616D6D" transform="translate(0,0)"/>
<path d="" fill="#617873" transform="translate(0,0)"/>
<path d="" fill="#78745A" transform="translate(0,0)"/>
<path d="" fill="#46717D" transform="translate(0,0)"/>
<path d="" fill="#6B6170" transform="translate(0,0)"/>
</svg>
