<?xml version="1.0" encoding="UTF-8"?>
<svg version="1.1" xmlns="http://www.w3.org/2000/svg" width="200" height="200">
<path d="M0 0 C5.51480743 3.09367246 7.8434745 8.2789083 10 14 C11.20657609 18.63402132 12.16450057 23.28588124 13 28 C13.95003906 27.51917969 14.90007812 27.03835937 15.87890625 26.54296875 C20.77147205 24.12424098 24.50109514 23.62719289 30 24 C38.01762115 26.8061674 38.01762115 26.8061674 40 30 C41.12788042 34.51152167 41.63143194 37.50988793 39.4375 41.6875 C37.15555006 45.17848307 34.31887203 47.51084598 31 50 C31.56589844 50.40992188 32.13179688 50.81984375 32.71484375 51.2421875 C33.44832031 51.78101563 34.18179688 52.31984375 34.9375 52.875 C35.66839844 53.40867188 36.39929688 53.94234375 37.15234375 54.4921875 C39.69160471 56.56439623 39.95654177 57.60018433 40.3125 60.875 C40 64 40 64 38.3125 66.25 C33.59529725 69.81977505 29.87106848 70.39140457 24 70 C20.44203472 69.03963748 17.01376733 67.7870817 13.5625 66.5 C12.64017578 66.16613281 11.71785156 65.83226563 10.76757812 65.48828125 C8.50790435 64.66871045 6.25246559 63.83913509 4 63 C3.82476807 63.66459229 3.64953613 64.32918457 3.46899414 65.01391602 C2.08661239 69.97321619 0.85714864 73.97129845 -2.5625 77.9375 C-3.16191406 78.64777344 -3.76132813 79.35804687 -4.37890625 80.08984375 C-4.91386719 80.72019531 -5.44882813 81.35054688 -6 82 C-6.66 82.99 -7.32 83.98 -8 85 C-7.23816406 85.41958984 -7.23816406 85.41958984 -6.4609375 85.84765625 C1.07385562 90.23589719 6.10347024 95.14301138 8.53125 103.68359375 C10.18848589 111.87310112 8.89836554 119.91657384 4.74609375 127.19921875 C1.69088422 131.56975009 -1.81600793 134.63105154 -6.1640625 137.6796875 C-8.34399498 139.24738362 -10.18092514 141.02933557 -12 143 C-11.360625 143.928125 -10.72125 144.85625 -10.0625 145.8125 C-7.03887274 150.4853785 -6.39979984 154.51245569 -7 160 C-8.25697451 162.89104137 -9.16404677 164.45418238 -11.80078125 166.17578125 C-14.52903581 167.19827097 -16.09800237 166.85939862 -18.9375 166.3125 C-21.5451462 165.91147844 -21.5451462 165.91147844 -24 166 C-27.00179441 168.16744884 -27.00179441 168.16744884 -29 171 C-32.6887638 173.45917586 -35.7184429 173.81591937 -40 173 C-43.0220794 171.25549494 -45.41651082 169.16697836 -47 166 C-47.66386719 166.10699219 -48.32773438 166.21398437 -49.01171875 166.32421875 C-56.24306914 167.30599333 -56.24306914 167.30599333 -59.9375 165.8125 C-64.74755422 161.58548266 -64.74755422 161.58548266 -65.3203125 157.98828125 C-65.53750936 153.72398285 -65.2107558 150.86844203 -62.875 147.25 C-60.64603071 144.24183526 -60.64603071 144.24183526 -61.578125 141.5234375 C-63.28354604 138.49678368 -64.97410554 137.260151 -67.875 135.375 C-69.17050781 134.52035156 -69.17050781 134.52035156 -70.4921875 133.6484375 C-71.31976563 133.10445312 -72.14734375 132.56046875 -73 132 C-76.87053571 129.38839286 -76.87053571 129.38839286 -78 126 C-78.515625 124.88625 -79.03125 123.7725 -79.5625 122.625 C-82.6342651 114.3525237 -81.96770417 105.19326295 -78.34765625 97.2265625 C-76.11979855 93.54575413 -73.22954682 90.80000118 -70 88 C-69.01 87.01 -69.01 87.01 -68 86 C-68.51949219 85.5875 -69.03898437 85.175 -69.57421875 84.75 C-77.8713763 77.87915604 -82.27026522 70.72703738 -84 60 C-85.03188773 46.65613671 -83.08630811 35.82801773 -75 25 C-73.44498644 23.45022218 -71.86081881 21.92919073 -70.25 20.4375 C-66.32832803 16.74497414 -65.11631471 14.215673 -64.37109375 8.953125 C-64 7 -64 7 -62.25 4.4375 C-59.18657028 2.48030879 -57.57284783 2.34376264 -54 3 C-53.26007813 3.83402344 -52.52015625 4.66804688 -51.7578125 5.52734375 C-49.18670204 8.3139523 -49.18670204 8.3139523 -45.58203125 8.3828125 C-44.33808594 8.29773437 -43.09414062 8.21265625 -41.8125 8.125 C-31.58933994 7.71318718 -24.31629155 10.12284424 -16 16 C-15.82984375 15.26394531 -15.6596875 14.52789062 -15.484375 13.76953125 C-12.99483427 3.74515712 -12.99483427 3.74515712 -9 0 C-5.39965901 -1.20011366 -3.65462165 -0.95020163 0 0 Z " fill="#FC7497" transform="translate(132,12)"/>
<path d="M0 0 C5.51480743 3.09367246 7.8434745 8.2789083 10 14 C11.20657609 18.63402132 12.16450057 23.28588124 13 28 C13.95003906 27.51917969 14.90007812 27.03835937 15.87890625 26.54296875 C20.77147205 24.12424098 24.50109514 23.62719289 30 24 C38.01762115 26.8061674 38.01762115 26.8061674 40 30 C41.12788042 34.51152167 41.63143194 37.50988793 39.4375 41.6875 C37.15555006 45.17848307 34.31887203 47.51084598 31 50 C31.56589844 50.40992188 32.13179688 50.81984375 32.71484375 51.2421875 C33.44832031 51.78101563 34.18179688 52.31984375 34.9375 52.875 C35.66839844 53.40867188 36.39929688 53.94234375 37.15234375 54.4921875 C39.69160471 56.56439623 39.95654177 57.60018433 40.3125 60.875 C40 64 40 64 38.3125 66.25 C33.59529725 69.81977505 29.87106848 70.39140457 24 70 C20.44203472 69.03963748 17.01376733 67.7870817 13.5625 66.5 C12.64017578 66.16613281 11.71785156 65.83226563 10.76757812 65.48828125 C8.50790435 64.66871045 6.25246559 63.83913509 4 63 C3.82476807 63.66459229 3.64953613 64.32918457 3.46899414 65.01391602 C2.08661239 69.97321619 0.85714864 73.97129845 -2.5625 77.9375 C-3.16191406 78.64777344 -3.76132813 79.35804687 -4.37890625 80.08984375 C-4.91386719 80.72019531 -5.44882813 81.35054688 -6 82 C-6.66 82.99 -7.32 83.98 -8 85 C-7.23816406 85.41958984 -7.23816406 85.41958984 -6.4609375 85.84765625 C1.07385562 90.23589719 6.10347024 95.14301138 8.53125 103.68359375 C10.18848589 111.87310112 8.89836554 119.91657384 4.74609375 127.19921875 C1.69088422 131.56975009 -1.81600793 134.63105154 -6.1640625 137.6796875 C-8.34399498 139.24738362 -10.18092514 141.02933557 -12 143 C-11.360625 143.928125 -10.72125 144.85625 -10.0625 145.8125 C-7.03887274 150.4853785 -6.39979984 154.51245569 -7 160 C-8.25697451 162.89104137 -9.16404677 164.45418238 -11.80078125 166.17578125 C-14.52903581 167.19827097 -16.09800237 166.85939862 -18.9375 166.3125 C-21.5451462 165.91147844 -21.5451462 165.91147844 -24 166 C-27.00179441 168.16744884 -27.00179441 168.16744884 -29 171 C-32.6887638 173.45917586 -35.7184429 173.81591937 -40 173 C-43.0220794 171.25549494 -45.41651082 169.16697836 -47 166 C-47.66386719 166.10699219 -48.32773438 166.21398437 -49.01171875 166.32421875 C-56.24306914 167.30599333 -56.24306914 167.30599333 -59.9375 165.8125 C-64.74755422 161.58548266 -64.74755422 161.58548266 -65.3203125 157.98828125 C-65.53750936 153.72398285 -65.2107558 150.86844203 -62.875 147.25 C-60.64603071 144.24183526 -60.64603071 144.24183526 -61.578125 141.5234375 C-63.28354604 138.49678368 -64.97410554 137.260151 -67.875 135.375 C-69.17050781 134.52035156 -69.17050781 134.52035156 -70.4921875 133.6484375 C-71.31976563 133.10445312 -72.14734375 132.56046875 -73 132 C-76.87053571 129.38839286 -76.87053571 129.38839286 -78 126 C-78.515625 124.88625 -79.03125 123.7725 -79.5625 122.625 C-82.6342651 114.3525237 -81.96770417 105.19326295 -78.34765625 97.2265625 C-76.11979855 93.54575413 -73.22954682 90.80000118 -70 88 C-69.01 87.01 -69.01 87.01 -68 86 C-68.51949219 85.5875 -69.03898437 85.175 -69.57421875 84.75 C-77.8713763 77.87915604 -82.27026522 70.72703738 -84 60 C-85.03188773 46.65613671 -83.08630811 35.82801773 -75 25 C-73.44498644 23.45022218 -71.86081881 21.92919073 -70.25 20.4375 C-66.32832803 16.74497414 -65.11631471 14.215673 -64.37109375 8.953125 C-64 7 -64 7 -62.25 4.4375 C-59.18657028 2.48030879 -57.57284783 2.34376264 -54 3 C-53.26007813 3.83402344 -52.52015625 4.66804688 -51.7578125 5.52734375 C-49.18670204 8.3139523 -49.18670204 8.3139523 -45.58203125 8.3828125 C-44.33808594 8.29773437 -43.09414062 8.21265625 -41.8125 8.125 C-31.58933994 7.71318718 -24.31629155 10.12284424 -16 16 C-15.82984375 15.26394531 -15.6596875 14.52789062 -15.484375 13.76953125 C-12.99483427 3.74515712 -12.99483427 3.74515712 -9 0 C-5.39965901 -1.20011366 -3.65462165 -0.95020163 0 0 Z M-58 9 C-58.03996094 9.6290625 -58.07992187 10.258125 -58.12109375 10.90625 C-58.97978602 17.94540641 -61.23413355 20.5950647 -66.6796875 24.9375 C-70.5127855 28.34469822 -72.71339419 32.46343271 -75 37 C-75.3403125 37.62261719 -75.680625 38.24523437 -76.03125 38.88671875 C-79.51118045 46.31379254 -79.15595193 55.5868324 -77.12109375 63.35546875 C-73.08030665 73.87751832 -67.13420611 80.22014769 -57 85 C-57.71817747 89.227622 -59.10246815 92.59481092 -60.96484375 96.42578125 C-63.50671919 102.7468979 -64.36547449 108.68977807 -64.3125 115.4375 C-64.30758545 116.18104736 -64.3026709 116.92459473 -64.29760742 117.69067383 C-64.10868375 126.54489636 -62.13622357 132.53208867 -56 139 C-55.071875 138.195625 -54.14375 137.39125 -53.1875 136.5625 C-51.00720969 134.67291506 -49.82662565 133.94220855 -47 133 C-48.41299494 137.2697021 -50.50644201 139.92598431 -53.5 143.25 C-57.28024416 147.75463877 -60.24117744 151.90709635 -60 158 C-59.34 158.99 -58.68 159.98 -58 161 C-54.77257367 161.42096865 -52.75755395 161.4065262 -49.8671875 159.85546875 C-47.31347672 157.31778545 -47.33838872 155.4863517 -47 151.9375 C-46.23895701 145.76613322 -44.61321053 140.6196712 -42 135 C-41.34 135 -40.68 135 -40 135 C-40.5320741 138.93734837 -41.45154745 142.63301154 -42.5625 146.4375 C-44.2007373 152.4308533 -45.21851585 157.17001978 -42.125 162.8125 C-40.18998751 165.94075658 -40.18998751 165.94075658 -38 168 C-35.02878466 168.22873769 -35.02878466 168.22873769 -32 167 C-28.69009894 162.81907235 -27.30803144 159.35045594 -27.52734375 153.88671875 C-28.63887718 147.09809723 -30.89883193 140.53613354 -33 134 C-32.01 134 -31.02 134 -30 134 C-28.5996418 137.12189948 -27.65350839 140.22444299 -26.8515625 143.5390625 C-26.54992187 144.78042969 -26.54992187 144.78042969 -26.2421875 146.046875 C-25.82937792 147.77126947 -25.42578086 149.49789439 -25.03125 151.2265625 C-23.8831707 156.0983831 -23.8831707 156.0983831 -21.00390625 160.0703125 C-18.51206304 161.22637231 -16.71548919 161.2935664 -14 161 C-12.61354631 159.81819318 -12.61354631 159.81819318 -12.5625 156.5 C-12.65926986 148.77223513 -18.92640856 142.80289533 -23.8984375 137.41015625 C-25 136 -25 136 -25 134 C-21.73045798 134.56371414 -20.17424117 135.49962266 -18 138 C-14.64933828 136.614012 -13.16628149 135.2243823 -11.3125 132.125 C-10.89613281 131.44695312 -10.47976562 130.76890625 -10.05078125 130.0703125 C-6.11204758 122.30998221 -6.69194119 110.17384725 -8.9765625 101.9140625 C-10.63483293 97.14271997 -12.32897952 92.98963452 -15.171875 88.796875 C-17 86 -17 86 -17 83 C-15.4609375 81.74609375 -15.4609375 81.74609375 -13.375 80.4375 C-6.55912524 75.5793765 -2.57103508 68.16938244 -1 60 C-0.83152909 56.70780572 -0.83152909 56.70780572 -1 54 C-2.65 53.67 -4.3 53.34 -6 53 C-6.39658386 51.68772658 -6.79217515 50.37515324 -7.1875 49.0625 C-7.59742187 47.71285156 -7.59742187 47.71285156 -8.015625 46.3359375 C-8.76256676 43.80463487 -9.47729777 41.27222178 -10.171875 38.7265625 C-10.48475464 37.60495728 -10.48475464 37.60495728 -10.80395508 36.46069336 C-11.21959758 34.96934564 -11.62601595 33.47538985 -12.0222168 31.97875977 C-13.52576847 26.64798567 -15.46441757 22.87623404 -20.04296875 19.48828125 C-30.2571671 13.888147 -39.59791832 13.09965305 -51 15 C-51.8971875 13.515 -51.8971875 13.515 -52.8125 12 C-53.534375 11.01 -54.25625 10.02 -55 9 C-55.99 9 -56.98 9 -58 9 Z " fill="#14364B" transform="translate(132,12)"/>
<path d="M0 0 C2.625 -0.5 2.625 -0.5 6 0 C13.72119155 7.110162 15.45449923 17.10879509 17 27 C17.9075 26.525625 18.815 26.05125 19.75 25.5625 C25.89898304 22.60625816 31.15897922 22.00564273 37.75 24.3125 C42.67906067 26.87181996 42.67906067 26.87181996 44 29 C45.12788042 33.51152167 45.63143194 36.50988793 43.4375 40.6875 C41.15555006 44.17848307 38.31887203 46.51084598 35 49 C35.84884766 49.61488281 35.84884766 49.61488281 36.71484375 50.2421875 C37.44832031 50.78101563 38.18179688 51.31984375 38.9375 51.875 C39.66839844 52.40867188 40.39929688 52.94234375 41.15234375 53.4921875 C43.69160471 55.56439623 43.95654177 56.60018433 44.3125 59.875 C44 63 44 63 42.3125 65.25 C37.59529725 68.81977505 33.87106848 69.39140457 28 69 C24.44203472 68.03963748 21.01376733 66.7870817 17.5625 65.5 C16.64017578 65.16613281 15.71785156 64.83226563 14.76757812 64.48828125 C12.50790435 63.66871045 10.25246559 62.83913509 8 62 C7.82476807 62.66459229 7.64953613 63.32918457 7.46899414 64.01391602 C6.08661239 68.97321619 4.85714864 72.97129845 1.4375 76.9375 C0.83808594 77.64777344 0.23867187 78.35804687 -0.37890625 79.08984375 C-0.91386719 79.72019531 -1.44882813 80.35054688 -2 81 C-2.66 81.99 -3.32 82.98 -4 84 C-3.23816406 84.41958984 -3.23816406 84.41958984 -2.4609375 84.84765625 C3.6550719 88.4096018 8.07754511 92.40584521 11.4375 98.6875 C12.05146076 101.21156091 11.89436059 102.58522641 11 105 C10.34 103.35 9.68 101.7 9 100 C7.515 100.495 7.515 100.495 6 101 C6.33 101.99 6.66 102.98 7 104 C7.78202983 111.10236929 6.74569631 116.87409534 3 123 C2.01463445 124.01442335 1.01638303 125.01665594 0 126 C0.02094727 125.42668945 0.04189453 124.85337891 0.06347656 124.26269531 C0.59357267 108.21569997 0.59357267 108.21569997 -4 93 C-4.99 93 -5.98 93 -7 93 C-7.66 93 -8.32 93 -9 93 C-10.32421875 91.390625 -10.32421875 91.390625 -11.6875 89.25 C-12.37392578 88.20585937 -12.37392578 88.20585937 -13.07421875 87.140625 C-14 85 -14 85 -13.84375 82.8671875 C-13 81 -13 81 -9.8125 78.875 C-2.77309516 74.10497208 -0.02320655 67.01238947 1.6875 58.9375 C1.87699219 57.83277344 2.06648438 56.72804687 2.26171875 55.58984375 C2.50535156 54.73519531 2.74898437 53.88054687 3 53 C4.485 52.505 4.485 52.505 6 52 C7.08431094 50.25132517 7.08431094 50.25132517 8 48 C8.556875 46.989375 9.11375 45.97875 9.6875 44.9375 C11.38457434 42.0275153 11.38457434 42.0275153 10 39 C9.65772583 37.66893378 9.32248257 36.33599921 9 35 C8.73445313 35.68707031 8.46890625 36.37414063 8.1953125 37.08203125 C7.84210938 37.98308594 7.48890625 38.88414063 7.125 39.8125 C6.77695313 40.70582031 6.42890625 41.59914062 6.0703125 42.51953125 C5 45 5 45 3 48 C1.515 47.505 1.515 47.505 0 47 C-1.54470941 43.40676315 -2.32576578 39.54446205 -3.25 35.75 C-3.51868896 34.6563916 -3.78737793 33.5627832 -4.06420898 32.43603516 C-6.19743314 23.20828171 -7.19275795 15.43422623 -3.5625 6.4375 C-3.046875 5.633125 -2.53125 4.82875 -2 4 C-1.608125 3.21625 -1.21625 2.4325 -0.8125 1.625 C-0.544375 1.08875 -0.27625 0.5525 0 0 Z " fill="#143A4F" transform="translate(128,13)"/>
<path d="M0 0 C-0.61875 0.226875 -1.2375 0.45375 -1.875 0.6875 C-4.65974437 2.40748917 -4.98038343 3.94115029 -6 7 C-6.32742187 7.60585938 -6.65484375 8.21171875 -6.9921875 8.8359375 C-12.68256284 21.05480547 -6.41555485 35.96388491 -3 48 C-2.34 48 -1.68 48 -1 48 C1.39542583 43.41845739 3.50829734 38.9723422 5 34 C5.12375 34.61875 5.2475 35.2375 5.375 35.875 C5.87197356 38.19120832 5.87197356 38.19120832 8 40 C7.85588437 44.89993126 5.1564242 49.37221645 2 53 C-1.125 54.1875 -1.125 54.1875 -4 54 C-10.80490376 48.55948797 -11.98718171 37.45288209 -13.77734375 29.41796875 C-15.79963172 23.76460782 -19.8325362 20.64354893 -25.05078125 17.84765625 C-32.29994723 14.69521333 -40.06574355 14.14757777 -47.75 15.8125 C-49.35875 15.9053125 -49.35875 15.9053125 -51 16 C-53.4375 13.6875 -53.4375 13.6875 -55 11 C-55 10.34 -55 9.68 -55 9 C-55.99 9 -56.98 9 -58 9 C-57.96777344 9.6290625 -57.93554688 10.258125 -57.90234375 10.90625 C-57.95812241 15.02147544 -58.05013168 17.93040038 -60.859375 21.09375 C-62.44235703 22.38988294 -64.03800422 23.67066788 -65.64453125 24.9375 C-69.51623575 28.32764922 -71.70652734 32.44980904 -74 37 C-74.3403125 37.62261719 -74.680625 38.24523438 -75.03125 38.88671875 C-78.51378384 46.31934885 -78.17838792 55.62888584 -76.0859375 63.390625 C-71.86272621 74.23474174 -66.11731481 79.54144873 -56 85 C-56.6684167 88.76687166 -57.23282154 91.23282154 -60 94 C-61.32 94 -62.64 94 -64 94 C-64.4839655 95.54016694 -64.96192387 97.08222194 -65.4375 98.625 C-65.70433594 99.48351562 -65.97117187 100.34203125 -66.24609375 101.2265625 C-67.90814695 107.34085148 -68.12769902 113.08580227 -68.0625 119.375 C-68.05798828 120.20644531 -68.05347656 121.03789062 -68.04882812 121.89453125 C-68.03713164 123.92971897 -68.01919935 125.96486923 -68 128 C-71.8671875 124.2734375 -71.8671875 124.2734375 -73.0625 121.8125 C-73.9194894 119.63941744 -73.9194894 119.63941744 -77 119 C-77.495 119.99 -77.495 119.99 -78 121 C-78 120.34 -78 119.68 -78 119 C-78.99 118.67 -79.98 118.34 -81 118 C-81.52544852 108.68788464 -81.4664709 100.351807 -75.24609375 92.8984375 C-73.55444279 91.18206513 -71.8199971 89.57792852 -70 88 C-69.01 87.01 -69.01 87.01 -68 86 C-68.51949219 85.5875 -69.03898437 85.175 -69.57421875 84.75 C-77.8713763 77.87915604 -82.27026522 70.72703738 -84 60 C-85.03188773 46.65613671 -83.08630811 35.82801773 -75 25 C-73.44498644 23.45022218 -71.86081881 21.92919073 -70.25 20.4375 C-66.32832803 16.74497414 -65.11631471 14.215673 -64.37109375 8.953125 C-64 7 -64 7 -62.25 4.4375 C-59.18657028 2.48030879 -57.57284783 2.34376264 -54 3 C-53.26007813 3.83402344 -52.52015625 4.66804688 -51.7578125 5.52734375 C-49.18670204 8.3139523 -49.18670204 8.3139523 -45.58203125 8.3828125 C-44.33808594 8.29773437 -43.09414062 8.21265625 -41.8125 8.125 C-31.58933994 7.71318718 -24.31629155 10.12284424 -16 16 C-15.82984375 15.26394531 -15.6596875 14.52789062 -15.484375 13.76953125 C-12.99483427 3.74515712 -12.99483427 3.74515712 -9 0 C-5.52176885 -1.15941038 -3.54104422 -0.70820884 0 0 Z " fill="#16364E" transform="translate(132,12)"/>
<path d="M0 0 C2.39208721 2.39208721 3.28965235 4.67090544 4.6875 7.75 C8.76324671 16.02020449 14.02686879 19.76935895 22 24 C21.47679633 27.76706644 20.72611199 30.27388801 18 33 C16.68 33 15.36 33 14 33 C13.5160345 34.54016694 13.03807613 36.08222194 12.5625 37.625 C12.29566406 38.48351562 12.02882813 39.34203125 11.75390625 40.2265625 C10.09185305 46.34085148 9.87230098 52.08580227 9.9375 58.375 C9.94201172 59.20644531 9.94652344 60.03789062 9.95117188 60.89453125 C9.96286836 62.92971897 9.98080065 64.96486923 10 67 C6.1328125 63.2734375 6.1328125 63.2734375 4.9375 60.8125 C4.0805106 58.63941744 4.0805106 58.63941744 1 58 C0.67 58.66 0.34 59.32 0 60 C0 59.34 0 58.68 0 58 C-0.99 57.67 -1.98 57.34 -3 57 C-3.52544852 47.68788464 -3.4664709 39.351807 2.75390625 31.8984375 C4.44555721 30.18206513 6.1800029 28.57792852 8 27 C8.66 26.34 9.32 25.68 10 25 C9.48050781 24.5875 8.96101563 24.175 8.42578125 23.75 C0.5554755 17.23263036 -3.42657173 11.14508976 -5 1 C-4.67 1.66 -4.34 2.32 -4 3 C-3.01 2.67 -2.02 2.34 -1 2 C-0.67 1.34 -0.34 0.68 0 0 Z " fill="#1A384F" transform="translate(54,73)"/>
<path d="M0 0 C4.87989645 2.05578616 6.69383692 5.38767385 9 10 C12.46906977 19.21527251 11.2236182 27.90912693 8 37 C6.80389831 39.47794543 5.49420816 41.68140114 4 44 C3.01 43.67 2.02 43.34 1 43 C-0.54471225 39.40675655 -1.32569936 35.54445284 -2.25 31.75 C-2.51868896 30.6571167 -2.78737793 29.5642334 -3.06420898 28.43823242 C-5.03626076 19.91210174 -6.8810852 11.30568678 -2.49609375 3.23046875 C-1 1 -1 1 0 0 Z " fill="#F6789A" transform="translate(127,17)"/>
<path d="M0 0 C0.33 0.66 0.66 1.32 1 2 C1.66 2 2.32 2 3 2 C3.33 1.34 3.66 0.68 4 0 C3.46481267 4.14953463 2.21342356 6.4174376 -0.4375 9.625 C-2.41936067 12.04957276 -4.25990001 14.38985002 -6 17 C-5.49210937 17.27972656 -4.98421875 17.55945313 -4.4609375 17.84765625 C1.6550719 21.4096018 6.07754511 25.40584521 9.4375 31.6875 C10.05146076 34.21156091 9.89436059 35.58522641 9 38 C8.34 36.35 7.68 34.7 7 33 C5.515 33.495 5.515 33.495 4 34 C4.33 34.99 4.66 35.98 5 37 C5.78202983 44.10236929 4.74569631 49.87409534 1 56 C0.01463445 57.01442335 -0.98361697 58.01665594 -2 59 C-1.97905273 58.42668945 -1.95810547 57.85337891 -1.93652344 57.26269531 C-1.40642733 41.21569997 -1.40642733 41.21569997 -6 26 C-6.99 26 -7.98 26 -9 26 C-9.66 26 -10.32 26 -11 26 C-12.32421875 24.390625 -12.32421875 24.390625 -13.6875 22.25 C-14.14511719 21.55390625 -14.60273437 20.8578125 -15.07421875 20.140625 C-16 18 -16 18 -15.84765625 15.875 C-14.60167367 13.11890949 -12.300807 12.11118492 -9.84375 10.5 C-7.16564762 8.32120484 -5.7506796 5.68789277 -4.140625 2.671875 C-3 1 -3 1 0 0 Z " fill="#1A394F" transform="translate(130,80)"/>
<path d="M0 0 C1.4375 1.8125 1.4375 1.8125 1.9375 4.1875 C1.26242124 7.7316635 -0.08484025 9.18371494 -2.5625 11.8125 C-5.04311199 13.27716169 -7.40397212 14.54125439 -10 15.75 C-10.70213623 16.08773437 -11.40427246 16.42546875 -12.12768555 16.7734375 C-13.56700887 17.46277794 -15.00916569 18.14623347 -16.45410156 18.82373047 C-18.44215826 19.75606368 -20.42100283 20.70555044 -22.3984375 21.66015625 C-31.13504728 25.8125 -31.13504728 25.8125 -34.5625 25.8125 C-34.2325 24.4925 -33.9025 23.1725 -33.5625 21.8125 C-32.9025 21.8125 -32.2425 21.8125 -31.5625 21.8125 C-31.28792969 21.26335937 -31.01335937 20.71421875 -30.73046875 20.1484375 C-30.15232422 18.99214844 -30.15232422 18.99214844 -29.5625 17.8125 C-29.14613281 16.95914063 -28.72976562 16.10578125 -28.30078125 15.2265625 C-24.66707238 8.11843062 -21.1061751 3.44304874 -14.1875 -0.5625 C-9.35644921 -1.71275019 -4.57249595 -2.11896154 0 0 Z " fill="#51B8C7" transform="translate(165.5625,43.1875)"/>
<path d="M0 0 C3.28822987 0.75882228 4.88958042 1.89256474 7.3125 4.25 C9.33833198 7.55135582 9.64797948 9.19312056 9 13 C6.5151633 16.3131156 3.96568655 17.89329678 0 19 C-5.88091477 19.43887424 -10.09840507 18.16885466 -15.4375 16 C-16.16904297 15.71382812 -16.90058594 15.42765625 -17.65429688 15.1328125 C-19.44035954 14.43239577 -21.22079656 13.71766189 -23 13 C-22.38125 12.855625 -21.7625 12.71125 -21.125 12.5625 C-18.96741678 12.06847775 -18.96741678 12.06847775 -17 11 C-17.825 10.54625 -18.65 10.0925 -19.5 9.625 C-20.7375 8.820625 -20.7375 8.820625 -22 8 C-22 7.34 -22 6.68 -22 6 C-16.15522479 3.26674395 -11.41088062 1.5119773 -4.91015625 2.0546875 C-2.66432047 2.15946901 -2.66432047 2.15946901 0 0 Z " fill="#1D4050" transform="translate(163,63)"/>
<path d="M0 0 C7.11663732 22.13782538 7.11663732 22.13782538 3.375 30 C1 33 1 33 -1.9375 34.3125 C-5 34 -5 34 -7.8125 31.25 C-10.80848277 26.7988256 -11.55147382 23.25801767 -11 18 C-10.16836712 14.2792529 -9.11277832 10.64530828 -8 7 C-7.649375 5.80375 -7.29875 4.6075 -6.9375 3.375 C-5.40951761 -0.49588872 -4.17295235 0 0 0 Z " fill="#4EB7C6" transform="translate(99,146)"/>
<path d="M0 0 C0.495 1.485 0.495 1.485 1 3 C1.66 3 2.32 3 3 3 C3.1875 5.375 3.1875 5.375 3 8 C-0.20168253 10.13445502 -0.66580026 10.18187725 -4.25 9.9375 C-8.9561572 9.80719923 -11.79157428 10.97995565 -16 13 C-16.99 13 -17.98 13 -19 13 C-17.60804085 15.7839183 -15.84424221 15.97898997 -13 17 C-14 18.5625 -14 18.5625 -16 20 C-18.76614782 19.96726452 -21.26030547 19.49404328 -24 19 C-24.33 20.65 -24.66 22.3 -25 24 C-25.66 24 -26.32 24 -27 24 C-27 24.66 -27 25.32 -27 26 C-28.65 25.67 -30.3 25.34 -32 25 C-31.58776821 20.6921778 -30.84945823 16.93139027 -29 13 C-26.32193533 11.08118047 -23.82686616 10.23444816 -20.6953125 9.22265625 C-16.18519753 7.73040891 -12.02214914 5.74979347 -7.75 3.6875 C-6.26586811 2.98256085 -4.78151264 2.27809213 -3.296875 1.57421875 C-2.20890625 1.05472656 -1.1209375 0.53523438 0 0 Z " fill="#0F364C" transform="translate(160,56)"/>
<path d="M0 0 C0.99 0.33 1.98 0.66 3 1 C2.566875 2.8253125 2.566875 2.8253125 2.125 4.6875 C0.95249147 9.80908238 0.33763943 14.96124509 -0.2421875 20.1796875 C-1 23 -1 23 -2.875 24.859375 C-5.76100636 26.40848135 -7.77761885 26.42031059 -11 26 C-13 23 -13 23 -12.75 19.0625 C-11.30939504 13.10407947 -7.19780359 8.94705744 -3.21484375 4.50390625 C-1.00224885 2.21918947 -1.00224885 2.21918947 0 0 Z " fill="#F6D117" transform="translate(85,147)"/>
<path d="M0 0 C0.33 0 0.66 0 1 0 C1.08636719 0.86238281 1.17273438 1.72476562 1.26171875 2.61328125 C2.50149285 13.38452964 5.06002405 23.57542877 8 34 C8.66 34 9.32 34 10 34 C12.39542583 29.41845739 14.50829734 24.9723422 16 20 C16.12375 20.61875 16.2475 21.2375 16.375 21.875 C16.87197356 24.19120832 16.87197356 24.19120832 19 26 C18.85588437 30.89993126 16.1564242 35.37221645 13 39 C9.875 40.1875 9.875 40.1875 7 40 C1.14588039 35.36978953 -0.36375575 26.25319231 -1.8984375 19.32421875 C-2.0245326 16.438581 -1.0729619 14.6663904 0 12 C0.24012919 8.87420806 0.24012919 8.87420806 0.125 5.6875 C0.10695313 4.61886719 0.08890625 3.55023437 0.0703125 2.44921875 C0.04710938 1.64097656 0.02390625 0.83273438 0 0 Z " fill="#112E45" transform="translate(121,26)"/>
<path d="M0 0 C12.71822582 11.94742425 12.71822582 11.94742425 13.1328125 17.91015625 C13.11111111 23.88888889 13.11111111 23.88888889 12 25 C8.625 24.875 8.625 24.875 5 24 C1.74212021 19.89363063 0.89154434 15.196449 -0.1875 10.1875 C-0.36474609 9.39923828 -0.54199219 8.61097656 -0.72460938 7.79882812 C-1.15766255 5.86764503 -1.57992568 3.93404777 -2 2 C-1.34 2 -0.68 2 0 2 C0 1.34 0 0.68 0 0 Z " fill="#F8D319" transform="translate(106,148)"/>
<path d="M0 0 C1.37605154 2.75210308 0.57652184 3.86924579 -0.375 6.75 C-2.66062339 13.713675 -3.13786083 20.10557833 -3.0625 27.375 C-3.05798828 28.20644531 -3.05347656 29.03789062 -3.04882812 29.89453125 C-3.03713164 31.92971897 -3.01919935 33.96486923 -3 36 C-8.4780891 30.95200881 -10.10865152 25.29690216 -10.4375 17.9375 C-10.23116263 12.16005361 -8.51468178 7.52081515 -4.3984375 3.39453125 C-2.98451996 2.19839722 -1.49777823 1.08929326 0 0 Z " fill="#EF7C8E" transform="translate(67,104)"/>
<path d="M0 0 C2.6875 1.5625 2.6875 1.5625 4.6875 3.5625 C4.15178571 7.09821429 4.15178571 7.09821429 2.6875 8.5625 C-5.85840573 9.55952233 -11.81694491 6.4550912 -19.3125 2.5625 C-12.65114118 -2.54220444 -7.97241909 -3.45972904 0 0 Z " fill="#F1D327" transform="translate(161.3125,67.4375)"/>
<path d="M0 0 C1.91911507 3.09190761 2.33433546 6.25379726 2.125 9.8125 C0.36054948 15.2822966 -3.01114943 18.04894854 -7.875 20.8125 C-7.875 20.1525 -7.875 19.4925 -7.875 18.8125 C-8.535 18.8125 -9.195 18.8125 -9.875 18.8125 C-9.875 17.4925 -9.875 16.1725 -9.875 14.8125 C-8.6375 13.6678125 -8.6375 13.6678125 -7.375 12.5 C-4.49073978 9.95540325 -4.49073978 9.95540325 -4.5625 6 C-4.665625 4.948125 -4.76875 3.89625 -4.875 2.8125 C-6.525 2.1525 -8.175 1.4925 -9.875 0.8125 C-9.545 0.1525 -9.215 -0.5075 -8.875 -1.1875 C-13.495 -1.1875 -18.115 -1.1875 -22.875 -1.1875 C-15.32344202 -6.22187199 -7.4574737 -4.72306667 0 0 Z " fill="#1B4555" transform="translate(170.875,40.1875)"/>
<path d="M0 0 C3.36487781 1.40872325 5.05709457 2.99655472 7.1875 5.9375 C7.95126953 6.97197266 7.95126953 6.97197266 8.73046875 8.02734375 C11.71661309 12.66735265 11.56867598 17.67442627 11 23 C9.50470938 27.83378601 7.63267877 31.4854066 4 35 C4.02094727 34.42668945 4.04189453 33.85337891 4.06347656 33.26269531 C4.4224962 21.93312623 4.43697246 12.5576175 0 2 C0 1.34 0 0.68 0 0 Z " fill="#F57794" transform="translate(124,104)"/>
<path d="M0 0 C3.71097537 1.23699179 3.95812034 2.16086734 5.6875 5.5625 C7.99164699 10.43531841 8.72427155 13.65849734 8 19 C6.71980288 21.94445338 5.74509237 23.47843534 3.125 25.3125 C0.65169514 26.11268687 -1.41616706 26.14354627 -4 26 C-3.01 24.68 -2.02 23.36 -1 22 C-1.33 21.34 -1.66 20.68 -2 20 C-1.01 19.67 -0.02 19.34 1 19 C1.18296932 13.69388971 0.76181066 10.0505239 -1 5 C-0.67 4.01 -0.34 3.02 0 2 C0 1.34 0 0.68 0 0 Z " fill="#224052" transform="translate(117,153)"/>
<path d="M0 0 C0.99 0.33 1.98 0.66 3 1 C2.4701436 4.92093737 1.57296397 8.63763736 0.5 12.4375 C-0.67587753 16.63624316 -1.51890113 20.67011015 -2 25 C-5.28595468 21.18236565 -5.49834424 18.64989851 -5.3671875 13.74609375 C-4.76964115 9.27720988 -3.29283096 3.29283096 0 0 Z " fill="#062A41" transform="translate(90,146)"/>
<path d="M0 0 C0.66 0.66 1.32 1.32 2 2 C2.66 1.67 3.32 1.34 4 1 C3.93489583 3.01822917 3.86979167 5.03645833 3.8046875 7.0546875 C3.81668311 9.23863645 3.81668311 9.23863645 6 11 C8.57061311 11.64767793 8.57061311 11.64767793 11 12 C10.505 12.474375 10.01 12.94875 9.5 13.4375 C7.88457803 14.75923698 7.88457803 14.75923698 8 16 C9.65 16.33 11.3 16.66 13 17 C13 17.33 13 17.66 13 18 C7.99986625 17.97821292 4.9035857 17.73762098 0.9375 14.5 C-1.77294479 10.66253178 -1.6326744 6.51910283 -1 2 C-0.67 1.34 -0.34 0.68 0 0 Z " fill="#234350" transform="translate(68,161)"/>
<path d="M0 0 C6.93 2.97 6.93 2.97 14 6 C13.67 6.66 13.34 7.32 13 8 C12.34 8 11.68 8 11 8 C10.67 8.66 10.34 9.32 10 10 C14.95 10.33 19.9 10.66 25 11 C21.21736302 13.52175799 19.5029745 13.36646791 15 13 C12.10104936 12.19972244 9.34674504 11.13101994 6.5625 10 C5.83095703 9.71382812 5.09941406 9.42765625 4.34570312 9.1328125 C2.55964046 8.43239577 0.77920344 7.71766189 -1 7 C-0.38125 6.855625 0.2375 6.71125 0.875 6.5625 C3.03258322 6.06847775 3.03258322 6.06847775 5 5 C3.7625 4.319375 3.7625 4.319375 2.5 3.625 C1.675 3.08875 0.85 2.5525 0 2 C0 1.34 0 0.68 0 0 Z " fill="#304852" transform="translate(141,69)"/>
<path d="M0 0 C-0.928125 0.3403125 -0.928125 0.3403125 -1.875 0.6875 C-4.67518857 2.41702823 -4.88607047 3.9366938 -6 7 C-7.29788956 9.02318078 -8.62464661 11.02866014 -10 13 C-11.32 12.34 -12.64 11.68 -14 11 C-13.54842977 6.14562001 -12.40802387 3.50825987 -9 0 C-5.52176885 -1.15941038 -3.54104422 -0.70820884 0 0 Z " fill="#213F56" transform="translate(132,12)"/>
<path d="M0 0 C0.66 0.33 1.32 0.66 2 1 C2.54011341 8.18650893 1.80558447 13.77615115 -2 20 C-2.99 20.99 -3.98 21.98 -5 23 C-4.67 18.05 -4.34 13.1 -4 8 C-3.01 8 -2.02 8 -1 8 C-0.67 5.36 -0.34 2.72 0 0 Z " fill="#D37F87" transform="translate(133,116)"/>
<path d="M0 0 C0.99 0.66 1.98 1.32 3 2 C3 2.99 3 3.98 3 5 C2.01 4.67 1.02 4.34 0 4 C-6.80361435 3.27650727 -12.60960447 4.75869217 -19 7 C-13.29476065 0.80574014 -8.34384388 -1.06251195 0 0 Z " fill="#63CED9" transform="translate(163,42)"/>
<path d="M0 0 C0.66 0.66 1.32 1.32 2 2 C2.66 1.67 3.32 1.34 4 1 C4.05386629 3.12472576 4.09273071 5.24983652 4.125 7.375 C4.14820313 8.55835938 4.17140625 9.74171875 4.1953125 10.9609375 C4 14 4 14 2 16 C1.01 15.34 0.02 14.68 -1 14 C-0.67 9.38 -0.34 4.76 0 0 Z " fill="#092C45" transform="translate(125,123)"/>
<path d="M0 0 C3.96 0 7.92 0 12 0 C12.66 1.32 13.32 2.64 14 4 C12.06257659 4.02703381 10.12504521 4.04641125 8.1875 4.0625 C7.10855469 4.07410156 6.02960938 4.08570312 4.91796875 4.09765625 C2 4 2 4 -1 3 C-0.67 2.01 -0.34 1.02 0 0 Z " fill="#08324A" transform="translate(152,76)"/>
<path d="M0 0 C2.50298434 2.93828597 3.46930939 5.17902761 4 9 C0.48812804 11.40814077 -1.72656908 12.36629408 -6 12 C-5.01 10.68 -4.02 9.36 -3 8 C-3.33 7.34 -3.66 6.68 -4 6 C-3.01 5.67 -2.02 5.34 -1 5 C-0.67 3.35 -0.34 1.7 0 0 Z " fill="#254651" transform="translate(119,167)"/>
<path d="M0 0 C0.99 0 1.98 0 3 0 C3.67154933 1.28913487 4.33708859 2.58140204 5 3.875 C5.37125 4.59429687 5.7425 5.31359375 6.125 6.0546875 C7 8 7 8 7 10 C5.35 10.33 3.7 10.66 2 11 C0.80712589 7.12315913 0 4.08378077 0 0 Z " fill="#152E43" transform="translate(99,146)"/>
<path d="M0 0 C2.475 0.495 2.475 0.495 5 1 C5.33 4.96 5.66 8.92 6 13 C0.0952381 7.0952381 0.0952381 7.0952381 -0.125 2.25 C-0.063125 1.13625 -0.063125 1.13625 0 0 Z " fill="#58C7D4" transform="translate(58,127)"/>
<path d="M0 0 C0.99 0.33 1.98 0.66 3 1 C2.67 2.98 2.34 4.96 2 7 C0.68 7.33 -0.64 7.66 -2 8 C-2.99 11.465 -2.99 11.465 -4 15 C-5.3480932 11.339671 -4.6336844 9.33449773 -3.125 5.8125 C-2.75632812 4.93207031 -2.38765625 4.05164063 -2.0078125 3.14453125 C-1 1 -1 1 0 0 Z " fill="#1A3449" transform="translate(90,146)"/>
<path d="M0 0 C3.63 0 7.26 0 11 0 C10.34 0.66 9.68 1.32 9 2 C10.65 2.99 12.3 3.98 14 5 C13.01 5.495 13.01 5.495 12 6 C11.34 5.67 10.68 5.34 10 5 C8.46331135 4.77532169 6.92031946 4.59203195 5.375 4.4375 C4.55773437 4.35371094 3.74046875 4.26992188 2.8984375 4.18359375 C2.27195313 4.12300781 1.64546875 4.06242187 1 4 C1.99 3.67 2.98 3.34 4 3 C4 2.34 4 1.68 4 1 C2.68 0.67 1.36 0.34 0 0 Z " fill="#052D41" transform="translate(153,38)"/>
<path d="M0 0 C1.65 0 3.3 0 5 0 C3.88059018 4.85077588 2.8665284 7.777893 -1 11 C-0.67 7.37 -0.34 3.74 0 0 Z " fill="#52BDCC" transform="translate(129,128)"/>
<path d="M0 0 C1.98 0.495 1.98 0.495 4 1 C4.1875 3.875 4.1875 3.875 4 7 C3.01 7.66 2.02 8.32 1 9 C0.27034634 11.56282742 0.27034634 11.56282742 0 14 C-0.33 14 -0.66 14 -1 14 C-1.18451025 4.58997722 -1.18451025 4.58997722 0 0 Z " fill="#2A3B55" transform="translate(125,117)"/>
<path d="M0 0 C2.88437779 1.29299694 4.87219421 2.65941363 7 5 C6.33333333 6.33333333 5.66666667 7.66666667 5 9 C4.64830932 10.32860925 4.31229724 11.66158328 4 13 C3.32942113 11.2097939 2.6636531 9.41778511 2 7.625 C1.62875 6.62726563 1.2575 5.62953125 0.875 4.6015625 C0 2 0 2 0 0 Z " fill="#F185A7" transform="translate(124,104)"/>
<path d="M0 0 C-0.8125 1.9375 -0.8125 1.9375 -2 4 C-5 5 -5 5 -8 4 C-10.63804589 4.39397335 -10.63804589 4.39397335 -13 5 C-4.82022472 -1.60674157 -4.82022472 -1.60674157 0 0 Z " fill="#0B2E41" transform="translate(148,64)"/>
<path d="M0 0 C0.886875 0.12375 1.77375 0.2475 2.6875 0.375 C2.130625 0.766875 1.57375 1.15875 1 1.5625 C-4.21099368 5.53275481 -4.21099368 5.53275481 -7.125 11.1875 C-7.186875 11.909375 -7.24875 12.63125 -7.3125 13.375 C-7.6425 13.375 -7.9725 13.375 -8.3125 13.375 C-8.73172086 9.18279138 -8.72063168 6.32849736 -6.1875 2.9375 C-3.3125 0.375 -3.3125 0.375 0 0 Z " fill="#3A495D" transform="translate(75.3125,14.625)"/>
<path d="M0 0 C0.99 0 1.98 0 3 0 C3 2.97 3 5.94 3 9 C2.34 9 1.68 9 1 9 C-0.61949011 6.42786866 -1.04408751 5.32330841 -0.625 2.25 C-0.41875 1.5075 -0.2125 0.765 0 0 Z " fill="#093349" transform="translate(121,165)"/>
<path d="M0 0 C-0.99 3.96 -1.98 7.92 -3 12 C-3.33 12 -3.66 12 -4 12 C-4 9.36 -4 6.72 -4 4 C-4.99 4.495 -4.99 4.495 -6 5 C-6 4.01 -6 3.02 -6 2 C-3 0 -3 0 0 0 Z " fill="#0A2B4B" transform="translate(75,159)"/>
<path d="M0 0 C0.99 0.33 1.98 0.66 3 1 C2.67 2.98 2.34 4.96 2 7 C1.34 6.34 0.68 5.68 0 5 C-1.98 5.99 -1.98 5.99 -4 7 C-2.68 4.69 -1.36 2.38 0 0 Z " fill="#EEC335" transform="translate(85,147)"/>
<path d="M0 0 C0.99 0.33 1.98 0.66 3 1 C0.03 3.64 -2.94 6.28 -6 9 C-6 6 -6 6 -4.6875 4.39453125 C-4.130625 3.87246094 -3.57375 3.35039063 -3 2.8125 C-2.443125 2.28269531 -1.88625 1.75289062 -1.3125 1.20703125 C-0.6628125 0.60955078 -0.6628125 0.60955078 0 0 Z " fill="#2E4158" transform="translate(63,31)"/>
<path d="M0 0 C0 1.65 0 3.3 0 5 C-2.97 4.505 -2.97 4.505 -6 4 C-6 3.01 -6 2.02 -6 1 C-4 0 -4 0 0 0 Z " fill="#5CBEC5" transform="translate(99,146)"/>
<path d="M0 0 C0.66 0.99 1.32 1.98 2 3 C2.99 2.34 3.98 1.68 5 1 C4.67 2.98 4.34 4.96 4 7 C2.35 7.33 0.7 7.66 -1 8 C-0.67 5.36 -0.34 2.72 0 0 Z " fill="#2A445C" transform="translate(50,49)"/>
<path d="M0 0 C0.33 0.66 0.66 1.32 1 2 C-0.375 4 -0.375 4 -2 6 C-2.66 6 -3.32 6 -4 6 C-5.62514468 7.45833358 -5.62514468 7.45833358 -7 9 C-5.64978174 4.58110387 -3.73884332 2.65654657 0 0 Z " fill="#EB87AA" transform="translate(67,104)"/>
<path d="M0 0 C2.9375 0.375 2.9375 0.375 6 1 C6.33 1.66 6.66 2.32 7 3 C4.6875 4.125 4.6875 4.125 2 5 C1.01 4.34 0.02 3.68 -1 3 C-0.67 2.01 -0.34 1.02 0 0 Z " fill="#1E4B5B" transform="translate(162,37)"/>
<path d="M0 0 C2.475 0.495 2.475 0.495 5 1 C4.67 2.65 4.34 4.3 4 6 C2.68 5.67 1.36 5.34 0 5 C0 3.35 0 1.7 0 0 Z " fill="#4EB7C5" transform="translate(58,127)"/>
<path d="M0 0 C1.65 0 3.3 0 5 0 C5 1.32 5 2.64 5 4 C3.35 4 1.7 4 0 4 C0 2.68 0 1.36 0 0 Z " fill="#E2BA54" transform="translate(129,124)"/>
<path d="M0 0 C-0.66 0.66 -1.32 1.32 -2 2 C-1.34 2.66 -0.68 3.32 0 4 C-2.31 3.67 -4.62 3.34 -7 3 C-6.67 2.01 -6.34 1.02 -6 0 C-3.42525708 -0.99667468 -2.51072708 -1.25536354 0 0 Z " fill="#052C47" transform="translate(81,174)"/>
<path d="M0 0 C2.97 0.495 2.97 0.495 6 1 C6 1.99 6 2.98 6 4 C3.03 3.505 3.03 3.505 0 3 C0 2.01 0 1.02 0 0 Z " fill="#E9C040" transform="translate(57,124)"/>
<path d="M0 0 C0.66 0 1.32 0 2 0 C2.33 1.65 2.66 3.3 3 5 C1.35 5.33 -0.3 5.66 -2 6 C-1.34 4.02 -0.68 2.04 0 0 Z " fill="#213F4B" transform="translate(103,151)"/>
<path d="" fill="#4A6F79" transform="translate(0,0)"/>
<path d="" fill="#496369" transform="translate(0,0)"/>
<path d="" fill="#516464" transform="translate(0,0)"/>
<path d="" fill="#4F5E6B" transform="translate(0,0)"/>
<path d="M0 0 C2 1 2 1 2 1 Z " fill="#66746B" transform="translate(148,80)"/>
<path d="" fill="#436F79" transform="translate(0,0)"/>
<path d="" fill="#4B6D73" transform="translate(0,0)"/>
<path d="" fill="#4B6C72" transform="translate(0,0)"/>
<path d="" fill="#4B6F75" transform="translate(0,0)"/>
<path d="" fill="#52616C" transform="translate(0,0)"/>
<path d="" fill="#50616B" transform="translate(0,0)"/>
<path d="" fill="#536470" transform="translate(0,0)"/>
<path d="" fill="#54626F" transform="translate(0,0)"/>
<path d="" fill="#726174" transform="translate(0,0)"/>
<path d="" fill="#736274" transform="translate(0,0)"/>
<path d="" fill="#637267" transform="translate(0,0)"/>
<path d="" fill="#3D6D79" transform="translate(0,0)"/>
<path d="" fill="#6A5B6F" transform="translate(0,0)"/>
<path d="" fill="#506773" transform="translate(0,0)"/>
<path d="" fill="#686371" transform="translate(0,0)"/>
</svg>
