<?xml version="1.0" encoding="UTF-8"?>
<svg version="1.1" xmlns="http://www.w3.org/2000/svg" width="200" height="200">
<path d="M0 0 C2.5 2.3125 2.5 2.3125 4 5 C4 5.99 4 6.98 4 8 C5.258125 8.20625 6.51625 8.4125 7.8125 8.625 C17.36288729 10.78735184 26.18046177 16.07501908 32 24 C40.0648696 37.63005937 43.38618225 50.56597804 40.3515625 66.37890625 C37.58223018 74.69873795 32.17622817 80.94567107 26 87 C26.75925781 87.24492188 27.51851563 87.48984375 28.30078125 87.7421875 C33.28749078 90.06595084 35.69750633 95.04570753 37.859375 99.94921875 C40.04681153 106.99926757 39.39848252 115.49573798 36.5 122.25 C32.60191871 129.07875555 25.58574139 133.94723607 19 138 C19.28875 138.5775 19.5775 139.155 19.875 139.75 C20.24625 140.4925 20.6175 141.235 21 142 C21.37125 142.598125 21.7425 143.19625 22.125 143.8125 C23.73930252 147.84825629 23.68297473 151.30385201 22.0546875 155.34765625 C19.80448129 159.69947015 17.85904923 163.38031692 13 165 C9.398999 164.7516551 6.41794848 164.13931616 3 163 C2.0925 163.495 1.185 163.99 0.25 164.5 C-4.55550284 166.71792439 -8.1254658 165.62484473 -13 164 C-13.66 164.33 -14.32 164.66 -15 165 C-22.04693141 165.69314079 -22.04693141 165.69314079 -25.75 163 C-32.49409965 154.00786713 -32.49409965 154.00786713 -32 147.9375 C-31.21082652 143.74241994 -29.29933979 140.56026806 -27 137 C-27.55816406 136.73316406 -28.11632812 136.46632812 -28.69140625 136.19140625 C-38.0467578 131.36334834 -43.65051465 126.04845605 -47 116 C-48.20695003 98.21232655 -48.20695003 98.21232655 -43 92 C-40.79006041 89.81372143 -38.49612666 87.85106022 -36 86 C-37.051875 85.0409375 -37.051875 85.0409375 -38.125 84.0625 C-47.53718047 74.59684123 -50.96944994 64.15179937 -51 51 C-50.24695037 38.08356184 -44.62915949 26.64964154 -35 18 C-28.83114234 13.31860358 -21.07496986 8 -13 8 C-12.731875 7.236875 -12.46375 6.47375 -12.1875 5.6875 C-9.65644353 -0.04068043 -6.25236759 -1.3712436 0 0 Z " fill="#FA7599" transform="translate(104,17)"/>
<path d="M0 0 C2.5 2.3125 2.5 2.3125 4 5 C4 5.99 4 6.98 4 8 C5.258125 8.20625 6.51625 8.4125 7.8125 8.625 C17.36288729 10.78735184 26.18046177 16.07501908 32 24 C40.0648696 37.63005937 43.38618225 50.56597804 40.3515625 66.37890625 C37.58223018 74.69873795 32.17622817 80.94567107 26 87 C26.75925781 87.24492188 27.51851563 87.48984375 28.30078125 87.7421875 C33.28749078 90.06595084 35.69750633 95.04570753 37.859375 99.94921875 C40.04681153 106.99926757 39.39848252 115.49573798 36.5 122.25 C32.60191871 129.07875555 25.58574139 133.94723607 19 138 C19.28875 138.5775 19.5775 139.155 19.875 139.75 C20.24625 140.4925 20.6175 141.235 21 142 C21.37125 142.598125 21.7425 143.19625 22.125 143.8125 C23.73930252 147.84825629 23.68297473 151.30385201 22.0546875 155.34765625 C19.80448129 159.69947015 17.85904923 163.38031692 13 165 C9.398999 164.7516551 6.41794848 164.13931616 3 163 C2.0925 163.495 1.185 163.99 0.25 164.5 C-4.55550284 166.71792439 -8.1254658 165.62484473 -13 164 C-13.66 164.33 -14.32 164.66 -15 165 C-22.04693141 165.69314079 -22.04693141 165.69314079 -25.75 163 C-32.49409965 154.00786713 -32.49409965 154.00786713 -32 147.9375 C-31.21082652 143.74241994 -29.29933979 140.56026806 -27 137 C-27.55816406 136.73316406 -28.11632812 136.46632812 -28.69140625 136.19140625 C-38.0467578 131.36334834 -43.65051465 126.04845605 -47 116 C-48.20695003 98.21232655 -48.20695003 98.21232655 -43 92 C-40.79006041 89.81372143 -38.49612666 87.85106022 -36 86 C-37.051875 85.0409375 -37.051875 85.0409375 -38.125 84.0625 C-47.53718047 74.59684123 -50.96944994 64.15179937 -51 51 C-50.24695037 38.08356184 -44.62915949 26.64964154 -35 18 C-28.83114234 13.31860358 -21.07496986 8 -13 8 C-12.731875 7.236875 -12.46375 6.47375 -12.1875 5.6875 C-9.65644353 -0.04068043 -6.25236759 -1.3712436 0 0 Z M-5 5 C-6.55968887 6.98505856 -7.8811003 8.69132934 -8.79296875 11.05859375 C-10 13 -10 13 -12.21484375 13.80078125 C-13.11332031 13.96964844 -14.01179688 14.13851563 -14.9375 14.3125 C-25.96556327 17.0262119 -33.98097544 23.4462181 -40 33 C-45.13716905 43.40874079 -47.12071699 54.44124078 -43.5 65.75 C-40.02920842 74.15103262 -34.13139615 80.10370601 -26 84 C-26.40873116 88.49604271 -27.40720286 92.10699243 -29.0625 96.3125 C-32.29263199 105.75351079 -33.14521727 117.56727231 -28.875 126.8125 C-24.42135509 134.00495147 -19.25741582 136.90208162 -11.29296875 139.3359375 C-3.74436826 140.85819383 4.4700575 140.29958062 11.22265625 136.359375 C16.50685245 132.31783593 21.66919966 126.6657787 23 120 C24.23735188 108.57187361 21.75848124 99.6100077 18 89 C17.64338176 87.67270489 17.29562338 86.34219809 17 85 C17.87011719 84.36384766 17.87011719 84.36384766 18.7578125 83.71484375 C27.06014982 77.48124065 32.47833678 72.2531395 35 62 C35.4060533 58.83961751 35.47866606 55.74622497 35.4375 52.5625 C35.42505249 51.31364014 35.42505249 51.31364014 35.41235352 50.03955078 C35.09000575 38.30884513 30.3121964 30.14225265 21.96875 22.0234375 C15.87654021 16.83622989 8.13962953 13 0 13 C-0.268125 11.865625 -0.53625 10.73125 -0.8125 9.5625 C-1.4003125 7.7990625 -1.4003125 7.7990625 -2 6 C-2.99 5.67 -3.98 5.34 -5 5 Z " fill="#1F3A51" transform="translate(104,17)"/>
<path d="M0 0 C0.33 0.66 0.66 1.32 1 2 C0.34 2 -0.32 2 -1 2 C-1.33 3.32 -1.66 4.64 -2 6 C-0.35 5.67 1.3 5.34 3 5 C2.71125 6.05058594 2.4225 7.10117188 2.125 8.18359375 C0.14693555 15.58811309 -1.55215479 22.26983297 -1 30 C-0.67 30 -0.34 30 0 30 C0.33 27.36 0.66 24.72 1 22 C1.33 22 1.66 22 2 22 C2.08636719 22.89460938 2.17273438 23.78921875 2.26171875 24.7109375 C3.3172993 33.79474075 4.96084913 41.34885658 11.0625 48.375 C20.18281476 53.4202805 28.71880357 55.16093032 39 53 C41.87064757 51.87963755 44.31514686 50.54130458 47 49 C47.99 49 48.98 49 50 49 C48.35 50.32 46.7 51.64 45 53 C46.36738566 55.73477132 47.89342308 57.77639103 50 60 C52.66928121 60.41870553 52.66928121 60.41870553 55 60 C56.42506184 64.27518553 56.93075644 67.93744373 55.0234375 72.1640625 C52.81005092 75.89830367 51.20537471 78.46203439 47 80 C43.44683978 79.68831928 40.38226568 79.12742189 37 78 C36.0925 78.495 35.185 78.99 34.25 79.5 C29.44449716 81.71792439 25.8745342 80.62484473 21 79 C20.01 79.495 20.01 79.495 19 80 C11.95306859 80.69314079 11.95306859 80.69314079 8.25 78 C1.50590035 69.00786713 1.50590035 69.00786713 2 62.9375 C2.78917348 58.74241994 4.70066021 55.56026806 7 52 C6.44183594 51.73316406 5.88367188 51.46632812 5.30859375 51.19140625 C-4.0467578 46.36334834 -9.65051465 41.04845605 -13 31 C-14.20563713 13.23167575 -14.20563713 13.23167575 -9 7 C-6.25853217 4.2341093 -3.49668444 1.74834222 0 0 Z " fill="#1A3A4E" transform="translate(70,102)"/>
<path d="M0 0 C5.87923601 3.01444464 9.3020783 7.06457225 12 13 C14.51612431 21.38708104 12.73801306 29.83926024 8.7109375 37.4296875 C5.46271296 42.58863236 1.79561601 46.25941951 -3 50 C-10.54698449 47.55832855 -14.30281155 43.12242782 -17.921875 36.37890625 C-21.33461589 28.84861928 -22.42540965 20.92013207 -20.46484375 12.77734375 C-18.48233906 7.84816542 -15.66966532 4.10046123 -11.25 1.1875 C-7.34373188 -0.23979028 -4.05995451 -0.92755515 0 0 Z " fill="#FCCF17" transform="translate(104,55)"/>
<path d="M0 0 C2.5 2.3125 2.5 2.3125 4 5 C4 5.99 4 6.98 4 8 C5.258125 8.20625 6.51625 8.4125 7.8125 8.625 C16.58449423 10.6111119 24.48021897 15.32575855 30.671875 21.83203125 C32.68936661 25.12528961 32.29397856 27.64034915 31.5 31.3125 C31.335 31.869375 31.17 32.42625 31 33 C28.55041702 30.64463175 26.36701594 28.21166203 24.25 25.5625 C19.0997068 19.58151435 13.76590453 17.12064653 6.1875 15.125 C0.42460815 13.51085668 0.42460815 13.51085668 -1.5 11.1953125 C-2.3125 9.25 -2.3125 9.25 -3 6 C-3.99 6.33 -4.98 6.66 -6 7 C-6.45375 7.969375 -6.9075 8.93875 -7.375 9.9375 C-9 13 -9 13 -11.125 14.1875 C-12.72475634 14.63960505 -14.3270398 15.08373801 -15.9375 15.49609375 C-26.42969241 18.51259907 -34.2140663 24.76550424 -39.62890625 34.21875 C-44.59400127 44.29039574 -45.91989998 54.97503108 -42.4375 65.8125 C-38.88231096 74.38237674 -33.04757667 79.65221832 -25 84 C-25.41207141 88.53278549 -26.43321789 92.34473294 -28 96.625 C-29.97345402 102.23413633 -30.50683701 107.36120762 -30.62890625 113.28515625 C-31 116 -31 116 -32.40234375 117.87109375 C-34 119 -34 119 -36 119 C-36.44074732 108.87913573 -35.91594965 99.08382 -31 90 C-33.475 90.495 -33.475 90.495 -36 91 C-35.67 89.68 -35.34 88.36 -35 87 C-34.34 87 -33.68 87 -33 87 C-33 86.34 -33 85.68 -33 85 C-34.12921875 84.85498047 -34.12921875 84.85498047 -35.28125 84.70703125 C-40.04744093 83.46754769 -42.29568504 79.93916197 -45 76 C-51.42494176 64.43510483 -52.61844148 51.70623228 -49 39 C-44.07526789 26.17954986 -36.15084714 17.35079688 -24 11 C-16.80427046 8 -16.80427046 8 -13 8 C-12.731875 7.236875 -12.46375 6.47375 -12.1875 5.6875 C-9.65644353 -0.04068043 -6.25236759 -1.3712436 0 0 Z " fill="#19364E" transform="translate(104,17)"/>
<path d="M0 0 C0.66 0.33 1.32 0.66 2 1 C0.35 2.32 -1.3 3.64 -3 5 C-1.63261434 7.73477132 -0.10657692 9.77639103 2 12 C4.66928121 12.41870553 4.66928121 12.41870553 7 12 C8.42506184 16.27518553 8.93075644 19.93744373 7.0234375 24.1640625 C4.81005092 27.89830367 3.20537471 30.46203439 -1 32 C-4.55316022 31.68831928 -7.61773432 31.12742189 -11 30 C-11.33 30.33 -11.66 30.66 -12 31 C-13.7465759 31.12601135 -15.4989234 31.17579494 -17.25 31.1875 C-18.68085937 31.20876953 -18.68085937 31.20876953 -20.140625 31.23046875 C-23.12699459 30.9897641 -25.29370741 30.249438 -28 29 C-27.38722388 26.03824877 -26.74627478 24.61941217 -25 22 C-24.75780685 19.02550392 -24.75780685 19.02550392 -24.875 15.8125 C-24.89304687 14.72582031 -24.91109375 13.63914063 -24.9296875 12.51953125 C-24.95289062 11.68808594 -24.97609375 10.85664063 -25 10 C-26.32 10 -27.64 10 -29 10 C-29 12.97 -29 15.94 -29 19 C-30.98 19.33 -32.96 19.66 -35 20 C-34.34 16.04 -33.68 12.08 -33 8 C-31.02 8 -29.04 8 -27 8 C-27 7.34 -27 6.68 -27 6 C-25.83984375 6.03480469 -25.83984375 6.03480469 -24.65625 6.0703125 C-16.6712268 6.20866686 -10.13852092 5.97452781 -3.125 1.8125 C-2.09375 1.214375 -1.0625 0.61625 0 0 Z " fill="#0E3148" transform="translate(118,150)"/>
<path d="M0 0 C6.51117036 2.71459773 11.84624661 6.5873681 15 13 C18.27267671 21.45538537 18.20091203 29.87473604 14.875 38.3125 C10.93418692 46.7269685 5.68586426 54.85439085 -3.3125 58.25 C-9.01854272 57.86314965 -12.10914407 55.0349617 -16 51 C-24.21914892 40.33226212 -26.04712942 30.12939201 -25 17 C-23.3789538 10.24906077 -18.48023222 5.96032406 -13 2 C-8.68202309 -0.52305317 -4.9019047 -0.86279631 0 0 Z M-18.4375 12.0625 C-22.08573058 18.92117349 -22.14511658 27.32138083 -20.31640625 34.79296875 C-17.39600992 42.60896721 -12.765397 50.36513332 -5 54 C1.05722968 52.35422538 4.37911024 47.87077849 8 43 C12.09528907 35.75718876 14.34901194 28.08648694 12.50390625 19.76171875 C10.60435028 13.37620574 7.9073912 9.35734421 2.6875 5.125 C-5.99597352 1.4900576 -12.92062834 5.13104587 -18.4375 12.0625 Z " fill="#132E49" transform="translate(104,51)"/>
<path d="M0 0 C5.73958003 6.52225003 5.26368952 14.23881555 5.125 22.4375 C5.11597656 23.45521484 5.10695312 24.47292969 5.09765625 25.52148438 C5.07424698 28.01457156 5.041457 30.50715859 5 33 C8.10590979 28.09493514 9.57947939 24.42955535 10.25 18.5625 C10.39953125 17.32628906 10.5490625 16.09007812 10.703125 14.81640625 C10.80109375 13.88699219 10.8990625 12.95757812 11 12 C12.32 11.67 13.64 11.34 15 11 C15.48497539 31.69228326 15.48497539 31.69228326 9.9375 37.625 C5.97714133 41.25950637 1.56096501 44.17654547 -3 47 C-2.0190899 48.9906705 -1.04597482 50.92592946 0.125 52.8125 C1.35998871 55.89997177 1.12645188 58.71225123 1 62 C0.67 62 0.34 62 0 62 C-0.33 59.36 -0.66 56.72 -1 54 C-1.721875 54.268125 -2.44375 54.53625 -3.1875 54.8125 C-6 55 -6 55 -8.75 52.75 C-11 50 -11 50 -12 47 C-10.948125 46.071875 -10.948125 46.071875 -9.875 45.125 C-3.26316159 38.55094353 0.14163235 30.96022392 0.1875 21.75 C0.20167969 20.46609375 0.21585938 19.1821875 0.23046875 17.859375 C-0.00277607 13.95351264 -0.84103057 10.72233711 -2 7 C-2.125 4.0625 -2.125 4.0625 -2 2 C-1.34 2 -0.68 2 0 2 C0 1.34 0 0.68 0 0 Z " fill="#143A4E" transform="translate(126,108)"/>
<path d="M0 0 C0.33 0 0.66 0 1 0 C1.33 4.62 1.66 9.24 2 14 C2.33 10.37 2.66 6.74 3 3 C3.33 3 3.66 3 4 3 C4.08636719 4.03898437 4.17273437 5.07796875 4.26171875 6.1484375 C5.27095598 16.73525976 6.77475436 25.45718227 15 32.9375 C17.85425027 35.22954946 20.75961109 37.27854339 24 39 C23.58792859 43.53278549 22.56678211 47.34473294 21 51.625 C19.02654598 57.23413633 18.49316299 62.36120762 18.37109375 68.28515625 C18 71 18 71 16.59765625 72.87109375 C15 74 15 74 13 74 C12.55925268 63.87913573 13.08405035 54.08382 18 45 C15.525 45.495 15.525 45.495 13 46 C13.33 44.68 13.66 43.36 14 42 C14.66 42 15.32 42 16 42 C16 41.34 16 40.68 16 40 C15.24847656 39.9071875 14.49695313 39.814375 13.72265625 39.71875 C10.5530974 38.88202284 9.54471003 37.96411567 7.4375 35.5 C6.87933594 34.8709375 6.32117187 34.241875 5.74609375 33.59375 C0.60143086 25.9515662 -0.56453928 19.57728553 -0.25 10.4375 C-0.23195312 9.42880859 -0.21390625 8.42011719 -0.1953125 7.38085938 C-0.14865249 4.91954395 -0.0832157 2.46030429 0 0 Z " fill="#13324A" transform="translate(55,62)"/>
<path d="M0 0 C0.66 0.33 1.32 0.66 2 1 C1.360625 1.103125 0.72125 1.20625 0.0625 1.3125 C-0.618125 1.539375 -1.29875 1.76625 -2 2 C-2.33 2.99 -2.66 3.98 -3 5 C-2.34 5.66 -1.68 6.32 -1 7 C-1.78503906 7.52207031 -2.57007812 8.04414062 -3.37890625 8.58203125 C-13.34327149 15.56320003 -19.48011815 23.01515763 -22.4921875 35.1015625 C-23 37 -23 37 -24 38 C-24.23427778 40.01594582 -24.41336124 42.038474 -24.5625 44.0625 C-24.68818359 45.71958984 -24.68818359 45.71958984 -24.81640625 47.41015625 C-24.87699219 48.26480469 -24.93757813 49.11945313 -25 50 C-25.66 49.67 -26.32 49.34 -27 49 C-27.495 51.475 -27.495 51.475 -28 54 C-28.33 54 -28.66 54 -29 54 C-30.79086508 38.9954547 -29.13426692 27.02231808 -20.21484375 14.4921875 C-14.89557297 8.04789641 -7.98957934 2.66319311 0 0 Z " fill="#203951" transform="translate(83,27)"/>
<path d="M0 0 C0.721875 0.825 1.44375 1.65 2.1875 2.5 C4.72917366 5.24407806 4.72917366 5.24407806 7.8125 5.3125 C8.8953125 5.1578125 8.8953125 5.1578125 10 5 C11.42506184 9.27518553 11.93075644 12.93744373 10.0234375 17.1640625 C7.81326601 20.89287943 6.20762862 23.47792222 2 25 C-1.75 24.625 -1.75 24.625 -5 24 C-3.68 23.34 -2.36 22.68 -1 22 C-1.42152344 21.60167969 -1.84304687 21.20335937 -2.27734375 20.79296875 C-3.09912109 19.99826172 -3.09912109 19.99826172 -3.9375 19.1875 C-4.48277344 18.66542969 -5.02804688 18.14335937 -5.58984375 17.60546875 C-8.11610901 14.72930525 -8.11537423 11.96082187 -8.0625 8.3125 C-8.05347656 7.50425781 -8.04445313 6.69601563 -8.03515625 5.86328125 C-8.02355469 5.24839844 -8.01195313 4.63351563 -8 4 C-7.01 3.67 -6.02 3.34 -5 3 C-4.34 5.31 -3.68 7.62 -3 10 C-2.34 10 -1.68 10 -1 10 C-1.01160156 9.36191406 -1.02320312 8.72382813 -1.03515625 8.06640625 C-1.04417969 7.24011719 -1.05320312 6.41382813 -1.0625 5.5625 C-1.07410156 4.73878906 -1.08570312 3.91507813 -1.09765625 3.06640625 C-1 1 -1 1 0 0 Z " fill="#13374C" transform="translate(115,157)"/>
<path d="M0 0 C0.33 0.66 0.66 1.32 1 2 C0.29475578 3.92339332 -0.41562698 5.84644162 -1.2109375 7.734375 C-2.90170137 12.58904353 -3.13715376 17.39542151 -3.125 22.5 C-3.12757812 23.5828125 -3.13015625 24.665625 -3.1328125 25.78125 C-3.00272728 28.93390353 -2.5876874 31.90298066 -2 35 C-7.02753266 30.65186365 -9.37150077 26.38416537 -10.3203125 19.765625 C-10.61468869 14.07435193 -9.32877565 9.64011151 -6 5 C-4.09558059 3.08629074 -2.1950753 1.5964184 0 0 Z " fill="#EF7B8E" transform="translate(72,107)"/>
<path d="M0 0 C3.63624426 1.58561595 5.29799747 3.30889044 7.17578125 6.87890625 C9.8072353 13.65084724 9.35700472 20.26570079 7 27 C5.79183794 29.14988533 4.48520308 31.01972923 3 33 C2.19011313 30.17551459 1.89858274 27.73773269 1.97265625 24.8046875 C1.98619141 24.0103833 1.99972656 23.2160791 2.01367188 22.39770508 C2.02978516 21.5652124 2.04589844 20.73271973 2.0625 19.875 C2.14129191 12.95903967 1.76543186 6.73070895 0 0 Z " fill="#E97EA0" transform="translate(128,109)"/>
<path d="M0 0 C5.27444376 5.99368609 5.32106705 13.04451422 5.25 20.625 C5.25773438 21.45773438 5.26546875 22.29046875 5.2734375 23.1484375 C5.25944296 27.54272242 5.05516597 31.00384394 3 35 C2.01 35 1.02 35 0 35 C-1 32 -1 32 0 29 C0.12185361 26.58559827 0.17546093 24.16744474 0.1875 21.75 C0.20167969 20.46609375 0.21585937 19.1821875 0.23046875 17.859375 C-0.00277607 13.95351264 -0.84103057 10.72233711 -2 7 C-2.125 4.0625 -2.125 4.0625 -2 2 C-1.34 2 -0.68 2 0 2 C0 1.34 0 0.68 0 0 Z " fill="#0D2D45" transform="translate(126,108)"/>
<path d="M0 0 C2.375 0.3125 2.375 0.3125 5 1 C7.47342266 4.71013399 7.38503486 6.61060262 7 11 C5.8125 13.4375 5.8125 13.4375 4 15 C1.5 15.5 1.5 15.5 -1 15 C-3.47027978 12.7852664 -3.94879818 11.34378365 -4.4375 8.0625 C-3.90475283 4.33326978 -2.54808744 2.70734291 0 0 Z " fill="#113049" transform="translate(69,59)"/>
<path d="M0 0 C1.8125 1 1.8125 1 3 3 C3.55003751 6.616685 3.71020228 9.80386985 1.8125 13 C-0.69461993 14.38323858 -2.1819827 14.49315303 -5 14 C-7.77334669 11.60918389 -7.98943126 10.100403 -8.375 6.4375 C-8 3 -8 3 -6.8125 1.0625 C-4.33950907 -0.38718434 -2.82115488 -0.42317323 0 0 Z " fill="#0B2E48" transform="translate(131,59)"/>
<path d="M0 0 C2.64 0 5.28 0 8 0 C8 5.28 8 10.56 8 16 C6.02 16.33 4.04 16.66 2 17 C1 16 1 16 0.9375 13.671875 C0.97894395 11.73437022 1.02060821 9.79687015 1.0625 7.859375 C1.00241086 5.11029664 0.62405124 2.67171936 0 0 Z " fill="#45ACBC" transform="translate(96,161)"/>
<path d="M0 0 C1.32 0 2.64 0 4 0 C5.75690052 10.90669925 5.75690052 10.90669925 2.75 15.25 C0 17 0 17 -3 17 C-3 15.35 -3 13.7 -3 12 C-3.45375 12.45375 -3.9075 12.9075 -4.375 13.375 C-5.58333333 14.58333333 -6.79166667 15.79166667 -8 17 C-8.33 15.35 -8.66 13.7 -9 12 C-3.375 9 -3.375 9 0 9 C0 6.03 0 3.06 0 0 Z " fill="#D3AD26" transform="translate(89,160)"/>
<path d="M0 0 C5.07286116 -0.54352084 8.02428179 -0.43204091 12.25 2.5625 C17.16525752 6.65693848 20.34979182 11.49791819 21 18 C21.03824623 20.33301986 21.04574284 22.66711508 21 25 C18.51340379 22.51340379 17.9656889 20.39516054 16.875 17.0625 C16.52179688 16.00160156 16.16859375 14.94070312 15.8046875 13.84765625 C15 11 15 11 15 8 C14.401875 7.71125 13.80375 7.4225 13.1875 7.125 C11 6 11 6 8 4 C8 3.34 8 2.68 8 2 C5.36 2 2.72 2 0 2 C0 1.34 0 0.68 0 0 Z " fill="#E5D238" transform="translate(96,55)"/>
<path d="M0 0 C0.66 0 1.32 0 2 0 C2.185625 1.216875 2.37125 2.43375 2.5625 3.6875 C3.42993462 7.32429996 4.51083378 8.76155417 7.625 10.8125 C8.25664063 11.16957031 8.88828125 11.52664062 9.5390625 11.89453125 C10.02117187 12.25933594 10.50328125 12.62414062 11 13 C11 13.99 11 14.98 11 16 C10.34 16 9.68 16 9 16 C8.67 15.01 8.34 14.02 8 13 C7.34 12.67 6.68 12.34 6 12 C6 13.65 6 15.3 6 17 C3.41515408 16.0195412 2.05156969 15.06077857 0.25 12.9375 C-1.44307795 8.95876682 -1.4593503 5.27549129 -1 1 C-0.67 0.67 -0.34 0.34 0 0 Z " fill="#F2C81E" transform="translate(108,160)"/>
<path d="M0 0 C1.32 0 2.64 0 4 0 C3.91308261 2.77236494 3.80622639 5.54147078 3.6875 8.3125 C3.66494141 9.09818359 3.64238281 9.88386719 3.61914062 10.69335938 C3.58369141 11.45068359 3.54824219 12.20800781 3.51171875 12.98828125 C3.48553467 13.68477783 3.45935059 14.38127441 3.43237305 15.09887695 C2.87915165 17.53136426 1.94291102 18.47634089 0 20 C-0.66 20 -1.32 20 -2 20 C-2.3690205 6.3667426 -2.3690205 6.3667426 0 0 Z " fill="#27344D" transform="translate(70,116)"/>
<path d="M0 0 C0.99 0.33 1.98 0.66 3 1 C3.08096803 2.45742463 3.13917774 3.91612807 3.1875 5.375 C3.22230469 6.18710938 3.25710937 6.99921875 3.29296875 7.8359375 C3.19628906 8.55007812 3.09960938 9.26421875 3 10 C0 12 0 12 -4 12 C-4.50423019 6.70558305 -3.18923033 4.18586481 0 0 Z " fill="#EAC122" transform="translate(82,157)"/>
<path d="M0 0 C6 6 6 6 6.0625 9.5625 C6.041875 10.696875 6.02125 11.83125 6 13 C3.0625 12.1875 3.0625 12.1875 0 11 C-1.16461426 7.50615721 -1.13568319 4.66344611 -1 1 C-0.67 0.67 -0.34 0.34 0 0 Z " fill="#F1C81F" transform="translate(115,157)"/>
<path d="M0 0 C0.78503906 0.00386719 1.57007812 0.00773437 2.37890625 0.01171875 C4.4375 0.3125 4.4375 0.3125 6.4375 2.3125 C5.85742188 2.42207031 5.27734375 2.53164063 4.6796875 2.64453125 C-0.15996277 3.6268365 -4.21616116 4.86071911 -8.5625 7.3125 C-7.64912724 2.01493798 -5.4106828 -0.11587953 0 0 Z " fill="#19334A" transform="translate(99.5625,50.6875)"/>
<path d="M0 0 C0.99 0.33 1.98 0.66 3 1 C3 1.99 3 2.98 3 4 C3.66 4.33 4.32 4.66 5 5 C5.99 6.485 5.99 6.485 7 8 C4.08291076 9.98362069 2.87619096 9.9876191 -0.75 9.625 C-1.8225 9.41875 -2.895 9.2125 -4 9 C-2.68 8.34 -1.36 7.68 0 7 C-0.33 6.34 -0.66 5.68 -1 5 C-0.72057545 3.32345271 -0.39171753 1.65391846 0 0 Z " fill="#264653" transform="translate(114,172)"/>
<path d="M0 0 C0.99 0.33 1.98 0.66 3 1 C3 4.96 3 8.92 3 13 C3.66 13 4.32 13 5 13 C4.67 14.32 4.34 15.64 4 17 C3.67 16.34 3.34 15.68 3 15 C2.34 15 1.68 15 1 15 C-0.09506492 11.71480525 -0.09960608 9.26336585 -0.0625 5.8125 C-0.05347656 4.72582031 -0.04445313 3.63914062 -0.03515625 2.51953125 C-0.02355469 1.68808594 -0.01195313 0.85664062 0 0 Z " fill="#052846" transform="translate(79,72)"/>
<path d="M0 0 C0.66 0.33 1.32 0.66 2 1 C0.56354149 2.60509934 -0.87420706 4.20904424 -2.3125 5.8125 C-3.11300781 6.70582031 -3.91351563 7.59914063 -4.73828125 8.51953125 C-8.64426354 12.80329421 -8.64426354 12.80329421 -10 14 C-10.66 14 -11.32 14 -12 14 C-9.38243868 8.32861715 -5.24688193 3.43065357 0 0 Z " fill="#344359" transform="translate(73,32)"/>
<path d="M0 0 C0.33 0.66 0.66 1.32 1 2 C0.34 2 -0.32 2 -1 2 C-1.33 3.32 -1.66 4.64 -2 6 C-0.68 5.67 0.64 5.34 2 5 C0.35 6.65 -1.3 8.3 -3 10 C-3.33 9.34 -3.66 8.68 -4 8 C-5.65 8.33 -7.3 8.66 -9 9 C-7.48328036 4.44984107 -3.83108947 2.49942736 0 0 Z " fill="#283D53" transform="translate(70,102)"/>
<path d="M0 0 C0.99 0.33 1.98 0.66 3 1 C3.33 4.3 3.66 7.6 4 11 C2.02 11.33 0.04 11.66 -2 12 C-1.34 8.04 -0.68 4.08 0 0 Z " fill="#0A2849" transform="translate(85,158)"/>
<path d="M0 0 C1.32 0 2.64 0 4 0 C3.52389341 4.99911924 1.96837781 7.97832683 -1 12 C-2.37520651 8.17998192 -1.74051523 4.92473073 -1 1 C-0.67 0.67 -0.34 0.34 0 0 Z " fill="#54B5C0" transform="translate(132,130)"/>
<path d="M0 0 C1.65 0 3.3 0 5 0 C5.66 3.96 6.32 7.92 7 12 C1.33064516 6.62903226 1.33064516 6.62903226 0 3 C0 2.01 0 1.02 0 0 Z " fill="#57BBC8" transform="translate(63,130)"/>
<path d="M0 0 C-0.3358407 3.10652645 -0.59049279 4.60414303 -2.875 6.8125 C-5 8 -5 8 -8 8 C-8 7.01 -8 6.02 -8 5 C-7.34 5 -6.68 5 -6 5 C-6 3.68 -6 2.36 -6 1 C-4 0 -4 0 0 0 Z " fill="#F1B91B" transform="translate(94,169)"/>
<path d="M0 0 C0.66 0 1.32 0 2 0 C2.48828125 2.01822917 2.9765625 4.03645833 3.46484375 6.0546875 C3.94846992 8.0585657 3.94846992 8.0585657 5 10 C3.68 9.67 2.36 9.34 1 9 C0.67 9.99 0.34 10.98 0 12 C-1.1898306 9.6203388 -1.13349966 8.08514265 -1.125 5.4375 C-1.12886719 4.22900391 -1.12886719 4.22900391 -1.1328125 2.99609375 C-1 1 -1 1 0 0 Z " fill="#F9D31E" transform="translate(108,160)"/>
<path d="M0 0 C0.99 0.33 1.98 0.66 3 1 C3.33 6.61 3.66 12.22 4 18 C3.34 18 2.68 18 2 18 C1.95101562 17.31292969 1.90203125 16.62585938 1.8515625 15.91796875 C1.77679688 15.01691406 1.70203125 14.11585937 1.625 13.1875 C1.55539063 12.29417969 1.48578125 11.40085937 1.4140625 10.48046875 C1.13354964 7.75601501 1.13354964 7.75601501 -1 5 C-0.625 2.3125 -0.625 2.3125 0 0 Z " fill="#203448" transform="translate(80,67)"/>
<path d="M0 0 C0.33 0 0.66 0 1 0 C1.33 4.95 1.66 9.9 2 15 C1.34 15 0.68 15 0 15 C-0.33 15.99 -0.66 16.98 -1 18 C-2.60725635 14.78548731 -2.05748185 11.56387464 -2 8 C-1.67 8 -1.34 8 -1 8 C-0.67 5.36 -0.34 2.72 0 0 Z " fill="#082940" transform="translate(71,124)"/>
<path d="M0 0 C0.99 0 1.98 0 3 0 C3.33 3.3 3.66 6.6 4 10 C2.68 10 1.36 10 0 10 C0 6.7 0 3.4 0 0 Z " fill="#FD9C67" transform="translate(132,120)"/>
<path d="M0 0 C1.98 0.495 1.98 0.495 4 1 C4.33 4.3 4.66 7.6 5 11 C3 7 3 7 3 3 C2.01 3 1.02 3 0 3 C0 6.63 0 10.26 0 14 C-0.33 14 -0.66 14 -1 14 C-1.02694851 12.04174127 -1.04637218 10.08337774 -1.0625 8.125 C-1.07410156 7.03445312 -1.08570313 5.94390625 -1.09765625 4.8203125 C-1 2 -1 2 0 0 Z " fill="#CF7E89" transform="translate(132,117)"/>
<path d="M0 0 C1.32 0 2.64 0 4 0 C6.22189824 2.22189824 6.92598892 4.08482708 8 7 C6.35 7.33 4.7 7.66 3 8 C2.01 5.36 1.02 2.72 0 0 Z " fill="#1E3349" transform="translate(80,87)"/>
<path d="M0 0 C2.31 0 4.62 0 7 0 C7 2.64 7 5.28 7 8 C6.67 8 6.34 8 6 8 C6 6.02 6 4.04 6 2 C4.68 2 3.36 2 2 2 C2.33 2.66 2.66 3.32 3 4 C3.039992 5.99960012 3.04346799 8.00047242 3 10 C2.67 10 2.34 10 2 10 C0.68373308 6.38026598 0 3.90432869 0 0 Z " fill="#4EB9C7" transform="translate(96,161)"/>
<path d="M0 0 C0 4.62 0 9.24 0 14 C-0.99 14 -1.98 14 -3 14 C-3 9.71 -3 5.42 -3 1 C-1 0 -1 0 0 0 Z " fill="#18384F" transform="translate(71,122)"/>
<path d="M0 0 C0.66 0.33 1.32 0.66 2 1 C0.1875 4 0.1875 4 -2 7 C-5 7 -5 7 -7 6 C-4.69 4.02 -2.38 2.04 0 0 Z " fill="#072642" transform="translate(91,53)"/>
<path d="M0 0 C0.33 0.99 0.66 1.98 1 3 C1.66 3.165 2.32 3.33 3 3.5 C3.66 3.665 4.32 3.83 5 4 C5.33 4.99 5.66 5.98 6 7 C2.40142046 7 0.90548882 6.04169485 -2 4 C-2 3.34 -2 2.68 -2 2 C-1.34 2 -0.68 2 0 2 C0 1.34 0 0.68 0 0 Z " fill="#2E3C45" transform="translate(114,165)"/>
<path d="M0 0 C0.99 0 1.98 0 3 0 C3 2.64 3 5.28 3 8 C2.34 8 1.68 8 1 8 C-0.35439668 5.29120665 -0.06501451 2.99066732 0 0 Z " fill="#F6CA2F" transform="translate(89,160)"/>
<path d="M0 0 C0.33 0.66 0.66 1.32 1 2 C0.06421005 4.35981813 -0.93347808 6.69631264 -2 9 C-2.33 7.68 -2.66 6.36 -3 5 C-3.99 5.66 -4.98 6.32 -6 7 C-4.60667426 3.63279613 -3.0210714 2.0140476 0 0 Z " fill="#E285A8" transform="translate(72,107)"/>
<path d="M0 0 C0.99 0.33 1.98 0.66 3 1 C3 1.99 3 2.98 3 4 C3.66 4.33 4.32 4.66 5 5 C3.02 5.33 1.04 5.66 -1 6 C-0.67 4.02 -0.34 2.04 0 0 Z " fill="#343C43" transform="translate(114,172)"/>
<path d="M0 0 C1.32 0.33 2.64 0.66 4 1 C4 3.31 4 5.62 4 8 C3.67 7.01 3.34 6.02 3 5 C2.01 4.67 1.02 4.34 0 4 C0 2.68 0 1.36 0 0 Z " fill="#193D4D" transform="translate(93,168)"/>
<path d="M0 0 C0.66 0 1.32 0 2 0 C3.4783226 2.95664519 3.06032783 5.74229737 3 9 C0.23776722 6.23776722 0.42143709 3.79293383 0 0 Z " fill="#E1CA2D" transform="translate(114,71)"/>
<path d="M0 0 C0.66 0 1.32 0 2 0 C2 1.32 2 2.64 2 4 C1.34 4 0.68 4 0 4 C0 5.98 0 7.96 0 10 C-0.33 10 -0.66 10 -1 10 C-1.02689216 8.52093108 -1.04634621 7.04172517 -1.0625 5.5625 C-1.07410156 4.73878906 -1.08570312 3.91507813 -1.09765625 3.06640625 C-1 1 -1 1 0 0 Z " fill="#DFD149" transform="translate(108,160)"/>
<path d="M0 0 C0.33 0 0.66 0 1 0 C1.309375 1.11375 1.61875 2.2275 1.9375 3.375 C2.82326483 6.7945155 2.82326483 6.7945155 4 9 C2.68 8.67 1.36 8.34 0 8 C0 7.34 0 6.68 0 6 C-0.66 5.67 -1.32 5.34 -2 5 C-1.34 3.35 -0.68 1.7 0 0 Z " fill="#D4769B" transform="translate(122,64)"/>
<path d="M0 0 C2 1 2 1 2 1 Z " fill="#524F61" transform="translate(105,17)"/>
<path d="" fill="#576564" transform="translate(0,0)"/>
<path d="" fill="#565C60" transform="translate(0,0)"/>
<path d="" fill="#4F5863" transform="translate(0,0)"/>
<path d="" fill="#515865" transform="translate(0,0)"/>
<path d="" fill="#4D5562" transform="translate(0,0)"/>
<path d="" fill="#5D586B" transform="translate(0,0)"/>
<path d="" fill="#5D5565" transform="translate(0,0)"/>
<path d="" fill="#6C5263" transform="translate(0,0)"/>
<path d="" fill="#5B5162" transform="translate(0,0)"/>
</svg>
