<?xml version="1.0" encoding="UTF-8"?>
<svg version="1.1" xmlns="http://www.w3.org/2000/svg" width="200" height="200">
<path d="M0 0 C2.8125 1.875 2.8125 1.875 5 5 C5.41282351 7.62968577 5.56241631 10.13167959 5.56640625 12.79296875 C5.76542565 15.10477411 5.76542565 15.10477411 7.61328125 16.21484375 C10.58916553 17.19381714 13.54597269 17.79469552 16.625 18.375 C30.13948899 21.20393966 40.15499523 26.29165827 48.49609375 37.59375 C50.93974744 41.5035959 52.59306616 45.62035112 54 50 C54.19335938 50.58910156 54.38671875 51.17820313 54.5859375 51.78515625 C56.4447348 61.72796822 56.13948351 74.08663578 50.86328125 82.8984375 C48.88533802 85.5564937 47.3635293 86.886902 44.1875 87.875 C43.465625 87.91625 42.74375 87.9575 42 88 C41.60167969 87.43410156 41.20335937 86.86820312 40.79296875 86.28515625 C40.26316406 85.55167969 39.73335937 84.81820312 39.1875 84.0625 C38.66542969 83.33160156 38.14335937 82.60070312 37.60546875 81.84765625 C36.04132873 79.73116774 36.04132873 79.73116774 33 79 C31.28367029 80.2212346 29.57070208 81.44810347 27.890625 82.71875 C22.99225066 86.03830947 17.74187326 86.23436217 12 86 C12.33 86.99 12.66 87.98 13 89 C13.90495941 104.16177898 12.98341243 117.12939306 3.2890625 129.546875 C-1.16008426 134.31490258 -6.45026769 138.76816961 -13 140 C-13 140.66 -13 141.32 -13 142 C-11.14375 142.1546875 -11.14375 142.1546875 -9.25 142.3125 C-5.74420551 142.77248013 -3.34951567 143.1610019 -1 146 C-0.34516907 149.76527783 -0.70948445 151.49718462 -2.625 154.8125 C-6.17966464 158.08653322 -9.3307191 158 -14 158 C-14.4125 158.66 -14.825 159.32 -15.25 160 C-17 162 -17 162 -20.4375 162.375 C-24 162 -24 162 -25.8828125 160.97265625 C-28.5716183 159.73739307 -30.49802369 159.9034992 -33.4375 160.0625 C-37.79039759 160.13805096 -40.66808303 160.10978917 -44 157 C-45.125 155.125 -45.125 155.125 -45 153 C-42.6875 150.25 -42.6875 150.25 -40 148 C-39.34 148 -38.68 148 -38 148 C-38 147.01 -38 146.02 -38 145 C-39.08539063 144.74605469 -40.17078125 144.49210938 -41.2890625 144.23046875 C-42.73446724 143.88319618 -44.17977465 143.53551836 -45.625 143.1875 C-46.33785156 143.02185547 -47.05070312 142.85621094 -47.78515625 142.68554688 C-51.29433147 141.83239877 -54.0588095 140.96834954 -57.2734375 139.23828125 C-59.86307863 137.69939411 -59.86307863 137.69939411 -62.14453125 138.65625 C-62.75683594 139.0996875 -63.36914062 139.543125 -64 140 C-64.60199219 140.4021875 -65.20398438 140.804375 -65.82421875 141.21875 C-66.43910156 141.6415625 -67.05398437 142.064375 -67.6875 142.5 C-75.38154747 147.29813292 -83.19232759 147.70832438 -92 146 C-95.06882011 144.68479138 -96.42892849 143.77873388 -98.375 141.125 C-99.20898537 138.28944974 -98.95570311 136.79884483 -98 134 C-94.73684211 129.36842105 -94.73684211 129.36842105 -92 128 C-92.90492187 127.34644531 -92.90492187 127.34644531 -93.828125 126.6796875 C-102.49973869 120.21793666 -102.49973869 120.21793666 -105 115 C-105.58141509 110.85741745 -105.47374052 108.81993552 -103.375 105.1875 C-99.26959401 101.40620501 -94.87343663 100.52447021 -89.3359375 100.68359375 C-81.03346424 101.80817625 -73.81268204 105.28352782 -67 110 C-66.25556641 108.40671875 -66.25556641 108.40671875 -65.49609375 106.78125 C-58.96103374 93.08627658 -58.96103374 93.08627658 -53.54296875 87.578125 C-51.83933514 85.83567443 -50.4275547 83.97199749 -49 82 C-49.598125 81.73445313 -50.19625 81.46890625 -50.8125 81.1953125 C-58.08047763 77.22388187 -61.67379023 68.84600832 -64.25 61.375 C-67.1108145 48.4247058 -65.00999373 35.16469734 -58 24 C-50.26544035 13.65158719 -40.87041694 7.06627102 -28 5 C-21.93051516 4.59386347 -15.96104313 4.67532375 -10 6 C-9.896875 5.38125 -9.79375 4.7625 -9.6875 4.125 C-8.16576624 -0.5785407 -4.2526053 -0.59536474 0 0 Z " fill="#FB7598" transform="translate(124,17)"/>
<path d="M0 0 C2.8125 1.875 2.8125 1.875 5 5 C5.41282351 7.62968577 5.56241631 10.13167959 5.56640625 12.79296875 C5.76542565 15.10477411 5.76542565 15.10477411 7.61328125 16.21484375 C10.58916553 17.19381714 13.54597269 17.79469552 16.625 18.375 C30.13948899 21.20393966 40.15499523 26.29165827 48.49609375 37.59375 C50.93974744 41.5035959 52.59306616 45.62035112 54 50 C54.19335938 50.58910156 54.38671875 51.17820313 54.5859375 51.78515625 C56.4447348 61.72796822 56.13948351 74.08663578 50.86328125 82.8984375 C48.88533802 85.5564937 47.3635293 86.886902 44.1875 87.875 C43.465625 87.91625 42.74375 87.9575 42 88 C41.60167969 87.43410156 41.20335937 86.86820312 40.79296875 86.28515625 C40.26316406 85.55167969 39.73335937 84.81820312 39.1875 84.0625 C38.66542969 83.33160156 38.14335937 82.60070312 37.60546875 81.84765625 C36.04132873 79.73116774 36.04132873 79.73116774 33 79 C31.28367029 80.2212346 29.57070208 81.44810347 27.890625 82.71875 C22.99225066 86.03830947 17.74187326 86.23436217 12 86 C12.33 86.99 12.66 87.98 13 89 C13.90495941 104.16177898 12.98341243 117.12939306 3.2890625 129.546875 C-1.16008426 134.31490258 -6.45026769 138.76816961 -13 140 C-13 140.66 -13 141.32 -13 142 C-11.14375 142.1546875 -11.14375 142.1546875 -9.25 142.3125 C-5.74420551 142.77248013 -3.34951567 143.1610019 -1 146 C-0.34516907 149.76527783 -0.70948445 151.49718462 -2.625 154.8125 C-6.17966464 158.08653322 -9.3307191 158 -14 158 C-14.4125 158.66 -14.825 159.32 -15.25 160 C-17 162 -17 162 -20.4375 162.375 C-24 162 -24 162 -25.8828125 160.97265625 C-28.5716183 159.73739307 -30.49802369 159.9034992 -33.4375 160.0625 C-37.79039759 160.13805096 -40.66808303 160.10978917 -44 157 C-45.125 155.125 -45.125 155.125 -45 153 C-42.6875 150.25 -42.6875 150.25 -40 148 C-39.34 148 -38.68 148 -38 148 C-38 147.01 -38 146.02 -38 145 C-39.08539063 144.74605469 -40.17078125 144.49210938 -41.2890625 144.23046875 C-42.73446724 143.88319618 -44.17977465 143.53551836 -45.625 143.1875 C-46.33785156 143.02185547 -47.05070312 142.85621094 -47.78515625 142.68554688 C-51.29433147 141.83239877 -54.0588095 140.96834954 -57.2734375 139.23828125 C-59.86307863 137.69939411 -59.86307863 137.69939411 -62.14453125 138.65625 C-62.75683594 139.0996875 -63.36914062 139.543125 -64 140 C-64.60199219 140.4021875 -65.20398438 140.804375 -65.82421875 141.21875 C-66.43910156 141.6415625 -67.05398437 142.064375 -67.6875 142.5 C-75.38154747 147.29813292 -83.19232759 147.70832438 -92 146 C-95.06882011 144.68479138 -96.42892849 143.77873388 -98.375 141.125 C-99.20898537 138.28944974 -98.95570311 136.79884483 -98 134 C-94.73684211 129.36842105 -94.73684211 129.36842105 -92 128 C-92.90492187 127.34644531 -92.90492187 127.34644531 -93.828125 126.6796875 C-102.49973869 120.21793666 -102.49973869 120.21793666 -105 115 C-105.58141509 110.85741745 -105.47374052 108.81993552 -103.375 105.1875 C-99.26959401 101.40620501 -94.87343663 100.52447021 -89.3359375 100.68359375 C-81.03346424 101.80817625 -73.81268204 105.28352782 -67 110 C-66.25556641 108.40671875 -66.25556641 108.40671875 -65.49609375 106.78125 C-58.96103374 93.08627658 -58.96103374 93.08627658 -53.54296875 87.578125 C-51.83933514 85.83567443 -50.4275547 83.97199749 -49 82 C-49.598125 81.73445313 -50.19625 81.46890625 -50.8125 81.1953125 C-58.08047763 77.22388187 -61.67379023 68.84600832 -64.25 61.375 C-67.1108145 48.4247058 -65.00999373 35.16469734 -58 24 C-50.26544035 13.65158719 -40.87041694 7.06627102 -28 5 C-21.93051516 4.59386347 -15.96104313 4.67532375 -10 6 C-9.896875 5.38125 -9.79375 4.7625 -9.6875 4.125 C-8.16576624 -0.5785407 -4.2526053 -0.59536474 0 0 Z M-4 6 C-6.42713759 8.61851243 -6.42713759 8.61851243 -7 12 C-8.216875 11.835 -9.43375 11.67 -10.6875 11.5 C-23.4575701 10.15683721 -34.07461126 10.47916585 -44.8125 18.1875 C-49.22516823 21.89098941 -52.25420052 25.95907937 -55 31 C-55.41378906 31.73734375 -55.82757813 32.4746875 -56.25390625 33.234375 C-60.58179738 42.22191199 -60.46861301 53.43348076 -57.5625 62.875 C-54.62105195 69.86887469 -49.28229224 75.81180517 -43 80 C-42.53125 82.34765625 -42.53125 82.34765625 -43 85 C-44.90625 87.18359375 -44.90625 87.18359375 -47.5 89.4375 C-55.68816267 97.23133189 -63.02110949 108.75156971 -65 120 C-64.78263195 124.57922026 -63.44681189 127.6423141 -60.09765625 130.78515625 C-48.88765432 138.80355833 -36.32132212 139.3151374 -23 138 C-13.5584784 136.04364868 -6.22346502 131.33811547 0 124 C2.05278695 120.78525817 3.64163648 117.56004438 5 114 C5.36738281 113.12085938 5.73476562 112.24171875 6.11328125 111.3359375 C7.32246918 106.786834 7.25194316 102.49649996 7.1875 97.8125 C7.18685547 96.91080078 7.18621094 96.00910156 7.18554688 95.08007812 C7.16462003 89.95892214 7.16462003 89.95892214 6 85 C5.26420744 76.07572812 5.2809143 66.75042985 7.5 58.0625 C10.27269321 46.87886185 11.39689277 32.304812 6.1484375 21.71484375 C4.97985357 19.83164383 4.97985357 19.83164383 2.875 18 C-0.22163954 14.69691782 -0.36581416 10.3725445 -1 6 C-1.99 6 -2.98 6 -4 6 Z " fill="#1A384E" transform="translate(124,17)"/>
<path d="M0 0 C2.82133726 1.11143589 5.60323498 2.26810443 8.375 3.5 C11.9123553 4.96373323 15.3084038 6.02059693 19 7 C14.25 12.875 14.25 12.875 12 14 C12.99 14.495 12.99 14.495 14 15 C14 15.66 14 16.32 14 17 C10.32589215 18.17571451 6.83070817 18.07366746 3 18 C3.495 19.485 3.495 19.485 4 21 C4.90495941 36.16177898 3.98341243 49.12939306 -5.7109375 61.546875 C-10.16008426 66.31490258 -15.45026769 70.76816961 -22 72 C-22 72.66 -22 73.32 -22 74 C-20.7625 74.103125 -19.525 74.20625 -18.25 74.3125 C-14.74420551 74.77248013 -12.34951567 75.1610019 -10 78 C-9.34516907 81.76527783 -9.70948445 83.49718462 -11.625 86.8125 C-15.17966464 90.08653322 -18.3307191 90 -23 90 C-23.4125 90.66 -23.825 91.32 -24.25 92 C-26 94 -26 94 -29.4375 94.375 C-33 94 -33 94 -34.8828125 92.97265625 C-37.5716183 91.73739307 -39.49802369 91.9034992 -42.4375 92.0625 C-46.79039759 92.13805096 -49.66808303 92.10978917 -53 89 C-54.125 87.125 -54.125 87.125 -54 85 C-51.6875 82.25 -51.6875 82.25 -49 80 C-48.34 80 -47.68 80 -47 80 C-47 79.01 -47 78.02 -47 77 C-48.08539063 76.74605469 -49.17078125 76.49210937 -50.2890625 76.23046875 C-51.73446724 75.88319618 -53.17977465 75.53551836 -54.625 75.1875 C-55.33785156 75.02185547 -56.05070312 74.85621094 -56.78515625 74.68554688 C-60.29433147 73.83239877 -63.0588095 72.96834954 -66.2734375 71.23828125 C-68.86307863 69.69939411 -68.86307863 69.69939411 -71.14453125 70.65625 C-71.75683594 71.0996875 -72.36914062 71.543125 -73 72 C-73.60199219 72.4021875 -74.20398438 72.804375 -74.82421875 73.21875 C-75.43910156 73.6415625 -76.05398437 74.064375 -76.6875 74.5 C-84.38154747 79.29813292 -92.19232759 79.70832438 -101 78 C-104.06882011 76.68479138 -105.42892849 75.77873388 -107.375 73.125 C-108.20898537 70.28944974 -107.95570311 68.79884483 -107 66 C-103.73684211 61.36842105 -103.73684211 61.36842105 -101 60 C-101.66 58.68 -102.32 57.36 -103 56 C-102.34 56 -101.68 56 -101 56 C-101 55.01 -101 54.02 -101 53 C-101.969375 52.2575 -102.93875 51.515 -103.9375 50.75 C-106.85195518 48.50758389 -106.9797193 48.08836592 -107.875 44.1875 C-107.91625 43.135625 -107.9575 42.08375 -108 41 C-103.87833436 38.25222291 -100.8395672 38.41779643 -96 39 C-86.69817094 41.32215874 -78.36751916 45.84932276 -73 54 C-72.62875 55.134375 -72.2575 56.26875 -71.875 57.4375 C-69.82966195 62.58455948 -64.81195377 64.80471601 -60 67 C-48.26942345 71.18744297 -33.06036228 70.84300432 -21.734375 65.60546875 C-13.40851718 60.7170008 -8.50511215 54.98097008 -5 46 C-4.63648438 45.08992188 -4.27296875 44.17984375 -3.8984375 43.2421875 C-2.58283382 38.49457423 -2.60800095 33.82838716 -2.52148438 28.92578125 C-2.45009074 26.94417259 -2.23469623 24.96895597 -2 23 C-1.01 22.34 -0.02 21.68 1 21 C1.72382467 18.94074861 1.72382467 18.94074861 2 17 C4.31 17 6.62 17 9 17 C9 16.01 9 15.02 9 14 C8.43410156 13.87882812 7.86820312 13.75765625 7.28515625 13.6328125 C6.18494141 13.38144531 6.18494141 13.38144531 5.0625 13.125 C4.33160156 12.96257812 3.60070312 12.80015625 2.84765625 12.6328125 C1 12 1 12 0 10 C-0.06996014 8.29297265 -0.08440154 6.58331997 -0.0625 4.875 C-0.05347656 3.96492188 -0.04445313 3.05484375 -0.03515625 2.1171875 C-0.02355469 1.41851562 -0.01195312 0.71984375 0 0 Z " fill="#11354C" transform="translate(133,85)"/>
<path d="M0 0 C4.54252382 3.20041451 7.2549643 6.10302141 8.234375 11.7109375 C8.66222746 20.95730445 5.7515728 27.94495313 -0.4375 34.75 C-7.53978656 41.35278509 -15.99577258 44.24822271 -25.51953125 44.16015625 C-29.01990682 43.8747179 -31.34841063 42.89607283 -34.25 40.9375 C-34.86875 40.545625 -35.4875 40.15375 -36.125 39.75 C-38.07440211 36.6092966 -37.77529985 33.45342739 -37.25 29.9375 C-33.95723409 17.9228244 -25.56114894 6.91530353 -15.3125 -0.0625 C-9.97645126 -1.80488326 -5.32756487 -1.7417039 0 0 Z " fill="#0B3248" transform="translate(101.25,103.0625)"/>
<path d="M0 0 C8.43291199 -0.74959218 15.98451604 2.22306638 22.75 7.1875 C29.65678922 12.99266872 35.57575682 19.87714503 37 29 C37.78574921 38.32085994 37.61500902 47.24221028 34 56 C33.01 56 32.02 56 31 56 C30.4225 55.236875 29.845 54.47375 29.25 53.6875 C24.63506761 48.17521965 16.52822032 46.86006035 9.78515625 45.0703125 C5.04769692 43.69346007 2.09604199 42.04541425 -1 38 C-1.3046875 35.75390625 -1.3046875 35.75390625 -0.875 33.5625 C-0.74867188 32.84191406 -0.62234375 32.12132812 -0.4921875 31.37890625 C-0.32976562 30.59386719 -0.16734375 29.80882813 0 29 C1.83680882 19.51419444 1.55408324 9.51875987 0 0 Z " fill="#FDCF17" transform="translate(136,41)"/>
<path d="M0 0 C9.30182906 2.32215874 17.63248084 6.84932276 23 15 C23.37125 16.134375 23.7425 17.26875 24.125 18.4375 C26.13222572 23.59088288 31.27587231 25.68455583 36 28 C36.99 28.33 37.98 28.66 39 29 C40 32 40 32 39 35 C35.47101227 34.57988241 33.02972022 34.01604892 29.875 32.3125 C28.92625 31.879375 27.9775 31.44625 27 31 C24.16851809 32.10649093 21.80713539 33.7846113 19.3125 35.5 C11.61845253 40.29813292 3.80767241 40.70832438 -5 39 C-8.06882011 37.68479138 -9.42892849 36.77873388 -11.375 34.125 C-12.20898537 31.28944974 -11.95570311 29.79884483 -11 27 C-7.73684211 22.36842105 -7.73684211 22.36842105 -5 21 C-5.66 19.68 -6.32 18.36 -7 17 C-6.34 17 -5.68 17 -5 17 C-5 16.01 -5 15.02 -5 14 C-5.969375 13.2575 -6.93875 12.515 -7.9375 11.75 C-10.85195518 9.50758389 -10.9797193 9.08836592 -11.875 5.1875 C-11.91625 4.135625 -11.9575 3.08375 -12 2 C-7.87833436 -0.74777709 -4.8395672 -0.58220357 0 0 Z " fill="#11354B" transform="translate(37,124)"/>
<path d="M0 0 C4.02861459 2.12832469 6.30373186 3.78643896 8 8 C8.8873289 13.48905788 8.10889538 18.22199312 5.421875 23.0703125 C2.80862466 26.61686653 -0.53837475 29.31135903 -4 32 C-4.66 31.34 -5.32 30.68 -6 30 C-10.01858853 27.32094098 -12.25305716 27.67817337 -17 28 C-17 25.69 -17 23.38 -17 21 C-20.96 21.495 -20.96 21.495 -25 22 C-23.62795936 13.11291858 -17.97269181 7.46973276 -10.953125 2.3125 C-7.15168904 -0.24206497 -4.60433108 -0.38369426 0 0 Z " fill="#F97295" transform="translate(97,106)"/>
<path d="M0 0 C8.61575497 1.96931542 15.49203635 9.84904244 20 17 C21.58109189 20.26279873 22.8913863 23.54899283 24 27 C24.19335938 27.58910156 24.38671875 28.17820312 24.5859375 28.78515625 C26.4447348 38.72796822 26.13948351 51.08663578 20.86328125 59.8984375 C18.88533802 62.5564937 17.3635293 63.886902 14.1875 64.875 C13.465625 64.91625 12.74375 64.9575 12 65 C11.60167969 64.43410156 11.20335937 63.86820313 10.79296875 63.28515625 C9.99826172 62.18494141 9.99826172 62.18494141 9.1875 61.0625 C8.66542969 60.33160156 8.14335937 59.60070312 7.60546875 58.84765625 C6.04132873 56.73116774 6.04132873 56.73116774 3 56 C1.31274585 57.02417915 1.31274585 57.02417915 -0.3125 58.5 C-3.17314745 60.70939367 -3.6273935 61.02032399 -7.4375 60.8125 C-8.283125 60.544375 -9.12875 60.27625 -10 60 C-9.875 58.1875 -9.875 58.1875 -9 56 C-5.9375 54.25 -5.9375 54.25 -3 53 C-3.33 52.34 -3.66 51.68 -4 51 C-3.34 51 -2.68 51 -2 51 C-2 50.34 -2 49.68 -2 49 C-2.66 49 -3.32 49 -4 49 C-4 48.34 -4 47.68 -4 47 C4.91667977 48.18066708 8.7257695 50.7257695 15 57 C19.06866892 47.14316518 20.12030295 34.57645821 16.375 24.4375 C13.84620277 19.1826235 10.64092508 13.85336349 5.8125 10.46484375 C5.214375 9.98144531 4.61625 9.49804688 4 9 C4 8.01 4 7.02 4 6 C3.21625 5.71125 2.4325 5.4225 1.625 5.125 C-1 4 -1 4 -3 2 C-2.01 1.34 -1.02 0.68 0 0 Z " fill="#1C3B49" transform="translate(154,40)"/>
<path d="M0 0 C9.21636702 2.30082354 17.75977007 6.82524132 23 15 C23.75 17.8125 23.75 17.8125 24 20 C12.73076682 20.68683814 1.28041606 18.76030308 -8 12 C-10.70434699 9.36161269 -11.83317913 8.0247568 -12.4375 4.3125 C-12.293125 3.549375 -12.14875 2.78625 -12 2 C-7.87833436 -0.74777709 -4.8395672 -0.58220357 0 0 Z " fill="#51B8C7" transform="translate(37,124)"/>
<path d="M0 0 C4.54252382 3.20041451 7.2549643 6.10302141 8.234375 11.7109375 C8.66222746 20.95730445 5.7515728 27.94495313 -0.4375 34.75 C-4.46876711 38.44679517 -9.00460455 41.31823178 -14.25 42.9375 C-17.875 42.25 -17.875 42.25 -20.25 40.9375 C-19.92 40.2775 -19.59 39.6175 -19.25 38.9375 C-17.93310284 38.50833262 -16.59480113 38.14403083 -15.25 37.8125 C-8.09171219 35.54057133 -2.3935718 30.5247743 1.3125 24 C3.15926861 19.69652084 3.48024475 15.54771989 2.75 10.9375 C1.5030291 8.00711838 0.52654345 6.51990759 -2 4.625 C-6.13892691 3.36032789 -9.44273953 3.09624424 -13.45703125 4.96484375 C-18.76414268 8.22867207 -22.24133109 12.05524551 -25.7421875 17.1796875 C-26.48855469 18.04980469 -26.48855469 18.04980469 -27.25 18.9375 C-28.24 18.9375 -29.23 18.9375 -30.25 18.9375 C-30.58 18.2775 -30.91 17.6175 -31.25 16.9375 C-23.3694545 5.8239102 -14.88314635 -4.865644 0 0 Z " fill="#102C44" transform="translate(101.25,103.0625)"/>
<path d="M0 0 C2.82133726 1.11143589 5.60323498 2.26810443 8.375 3.5 C11.9123553 4.96373323 15.3084038 6.02059693 19 7 C14.25 12.875 14.25 12.875 12 14 C12.66 14.33 13.32 14.66 14 15 C14 15.66 14 16.32 14 17 C10.32589215 18.17571451 6.83070817 18.07366746 3 18 C3.33 18.99 3.66 19.98 4 21 C4.6605645 32.06716255 4.82514293 42.75097378 0 53 C-0.99 53.495 -0.99 53.495 -2 54 C-2 52.68 -2 51.36 -2 50 C-2.66 50 -3.32 50 -4 50 C-5.04208538 47.29057802 -5.0634047 46.17377586 -4.05078125 43.3984375 C-2.56377383 38.58915699 -2.60977671 33.92901385 -2.52148438 28.92578125 C-2.45009074 26.94417259 -2.23469623 24.96895597 -2 23 C-1.01 22.34 -0.02 21.68 1 21 C1.72382467 18.94074861 1.72382467 18.94074861 2 17 C4.31 17 6.62 17 9 17 C9 16.01 9 15.02 9 14 C8.43410156 13.87882812 7.86820313 13.75765625 7.28515625 13.6328125 C6.18494141 13.38144531 6.18494141 13.38144531 5.0625 13.125 C4.33160156 12.96257812 3.60070312 12.80015625 2.84765625 12.6328125 C1 12 1 12 0 10 C-0.06996014 8.29297265 -0.08440154 6.58331997 -0.0625 4.875 C-0.05347656 3.96492188 -0.04445312 3.05484375 -0.03515625 2.1171875 C-0.02355469 1.41851562 -0.01195312 0.71984375 0 0 Z " fill="#213B4F" transform="translate(133,85)"/>
<path d="M0 0 C2.58887323 2.58887323 2.19177269 3.72666845 2.25 7.3125 C2.57646693 11.54550338 2.70901226 12.65933142 5.5625 16 C9.3399763 18.19780439 12.85271338 19.64140611 17 21 C17 21.66 17 22.32 17 23 C17.66 23 18.32 23 19 23 C19 23.66 19 24.32 19 25 C11.6442203 26.00306087 6.3057121 22.47901358 0 19 C0.33 22.96 0.66 26.92 1 31 C3.97 31.33 6.94 31.66 10 32 C9.67 33.32 9.34 34.64 9 36 C6.69 36 4.38 36 2 36 C1.505 38.475 1.505 38.475 1 41 C-0.485 41.495 -0.485 41.495 -2 42 C-4.10785445 36.7893838 -4.38349331 32.1605119 -4.375 26.625 C-4.37628906 25.75391602 -4.37757813 24.88283203 -4.37890625 23.98535156 C-4.24445575 15.59747368 -2.49359157 7.97058735 0 0 Z " fill="#14314A" transform="translate(133,66)"/>
<path d="M0 0 C8.61575497 1.96931542 15.49203635 9.84904244 20 17 C23.62677717 24.48434926 25.18032484 31.01083656 25.1875 39.3125 C25.19974609 40.04662109 25.21199219 40.78074219 25.22460938 41.53710938 C25.23755942 46.40201004 24.54283687 50.38368574 23 55 C22.67 55 22.34 55 22 55 C21.875 48.25 21.875 48.25 23 46 C23.07033769 44.12620395 23.0843022 42.24998898 23.0625 40.375 C23.05347656 39.37210938 23.04445312 38.36921875 23.03515625 37.3359375 C23.02355469 36.56507812 23.01195312 35.79421875 23 35 C22.01 35.495 22.01 35.495 21 36 C20.53476937 37.89533342 20.53476937 37.89533342 20.375 40.0625 C20.25125 41.361875 20.1275 42.66125 20 44 C19.67 44 19.34 44 19 44 C18.97421875 43.10539062 18.9484375 42.21078125 18.921875 41.2890625 C18.3790353 29.716707 15.99417036 20.65368941 8 12 C7.278125 11.49339844 6.55625 10.98679687 5.8125 10.46484375 C4.9153125 9.73974609 4.9153125 9.73974609 4 9 C4 8.01 4 7.02 4 6 C3.21625 5.71125 2.4325 5.4225 1.625 5.125 C-1 4 -1 4 -3 2 C-2.01 1.34 -1.02 0.68 0 0 Z " fill="#24414B" transform="translate(154,40)"/>
<path d="M0 0 C0.33 0.66 0.66 1.32 1 2 C1.66 2 2.32 2 3 2 C3.5667882 5.15781995 3.36727409 7.32421568 1.828125 10.15625 C-2.65850126 16.39479698 -8.19378601 20.48966409 -15 24 C-15.66 24 -16.32 24 -17 24 C-17 24.66 -17 25.32 -17 26 C-15.72125 26.144375 -14.4425 26.28875 -13.125 26.4375 C-10.74307106 26.70642746 -9.15547309 26.92226346 -7 28 C-7.33 28.99 -7.66 29.98 -8 31 C-12.29 31 -16.58 31 -21 31 C-23.26229508 24.21311475 -23.26229508 24.21311475 -22 21 C-20.6427601 18.2855202 -19.20668405 18.11704557 -16.4375 16.9375 C-8.80476298 13.25235333 -4.16357665 7.23214537 0 0 Z " fill="#1C394C" transform="translate(128,133)"/>
<path d="M0 0 C0.84755859 0.09345703 1.69511719 0.18691406 2.56835938 0.28320312 C3.44943359 0.38697266 4.33050781 0.49074219 5.23828125 0.59765625 C6.57729492 0.74750977 6.57729492 0.74750977 7.94335938 0.90039062 C10.14656346 1.14780927 12.34889906 1.40127904 14.55078125 1.66015625 C12.26718452 6.75994786 8.81014069 8.10358648 3.8671875 10.453125 C-0.91151203 12.192369 -5.44920894 12.72101359 -10.44921875 11.66015625 C-12.76171875 10.125 -12.76171875 10.125 -14.44921875 8.66015625 C-12.95443761 4.8552588 -10.75479661 2.9982479 -7.44921875 0.66015625 C-4.42059919 -0.3493836 -3.08836884 -0.35236423 0 0 Z " fill="#FAD21A" transform="translate(45.44921875,146.33984375)"/>
<path d="M0 0 C1.9375 0.3125 1.9375 0.3125 4 1 C4.33 1.99 4.66 2.98 5 4 C4.01 4.99 3.02 5.98 2 7 C2.33 7.99 2.66 8.98 3 10 C6.95482867 11.97741434 11.69224854 11.44269383 16 11 C18.5229679 10.1051172 20.7779141 9.0587491 23.125 7.77734375 C25 7 25 7 28 8 C27.01 9.32 26.02 10.64 25 12 C25.66 12.33 26.32 12.66 27 13 C20.07157666 17.9169456 12.69539725 18.46747086 4.45703125 17.4765625 C0.44428083 16.69825479 -1.96337703 15.41357678 -4.375 12.125 C-5.20898537 9.28944974 -4.95570311 7.79884483 -4 5 C-1.9375 2.1875 -1.9375 2.1875 0 0 Z " fill="#193E4E" transform="translate(30,146)"/>
<path d="M0 0 C1.4540625 0.0309375 1.4540625 0.0309375 2.9375 0.0625 C2.9375 2.3725 2.9375 4.6825 2.9375 7.0625 C3.700625 6.753125 4.46375 6.44375 5.25 6.125 C7.12539677 5.38356407 9.02434652 4.70021783 10.9375 4.0625 C11.2675 5.3825 11.5975 6.7025 11.9375 8.0625 C14.4125 8.5575 14.4125 8.5575 16.9375 9.0625 C15.48494301 12.89196843 13.50854439 14.18300295 9.9375 16.0625 C9.4425 15.4025 8.9475 14.7425 8.4375 14.0625 C4.83409788 11.1797783 2.46764958 11.76049003 -2.0625 12.0625 C-2.0625 9.7525 -2.0625 7.4425 -2.0625 5.0625 C-4.7025 5.3925 -7.3425 5.7225 -10.0625 6.0625 C-9.7325 4.4125 -9.4025 2.7625 -9.0625 1.0625 C-7.8559375 1.0934375 -7.8559375 1.0934375 -6.625 1.125 C-3.4084517 1.0465476 -3.39792468 0.0693454 0 0 Z " fill="#FCD016" transform="translate(82.0625,121.9375)"/>
<path d="M0 0 C-8.415 0.495 -8.415 0.495 -17 1 C-17 1.66 -17 2.32 -17 3 C-15.68 2.67 -14.36 2.34 -13 2 C-13.33 3.32 -13.66 4.64 -14 6 C-14.66 6 -15.32 6 -16 6 C-14.84467352 11.46154338 -13.6359144 13.87075778 -9 17 C-8.34 17.66 -7.68 18.32 -7 19 C-7.66 19.99 -8.32 20.98 -9 22 C-13.35648448 22 -14.46281016 21.25829562 -17.60546875 18.41796875 C-20.71439064 15.25679607 -21.88564385 12.91484922 -22.4375 8.5 C-21.91705615 4.3364492 -21.06992634 2.82756373 -18 0 C-11.92421219 -2.89980782 -6.01371478 -3.00685739 0 0 Z " fill="#224959" transform="translate(41,120)"/>
<path d="M0 0 C8.43291199 -0.74959218 15.98451604 2.22306638 22.75 7.1875 C29.64393825 12.98186745 35.60129156 19.88296408 37 29 C38.16761924 45.19178115 38.16761924 45.19178115 35 50 C34.98582031 48.76765625 34.97164062 47.5353125 34.95703125 46.265625 C34.71960189 36.2804576 34.06229246 27.86935708 29 19 C28.36771484 17.86498047 28.36771484 17.86498047 27.72265625 16.70703125 C23.38575784 10.00683748 16.65845763 6.29022528 9.06640625 4.1875 C6.71308423 3.70682146 4.38245773 3.29974522 2 3 C2 4.65 2 6.3 2 8 C1.67 8 1.34 8 1 8 C0.67 5.36 0.34 2.72 0 0 Z " fill="#F4E24A" transform="translate(136,41)"/>
<path d="M0 0 C0.66015625 1.796875 0.66015625 1.796875 1 4 C-0.00390625 5.640625 -0.00390625 5.640625 -1.5625 7.25 C-10.56489207 17.06510802 -16.29436188 26.60946792 -18 40 C-18.66 40 -19.32 40 -20 40 C-20.33 41.32 -20.66 42.64 -21 44 C-23.2619197 38.96208793 -23.27515852 35.8739291 -21.35107422 30.62988281 C-16.37840125 18.38140414 -9.7231787 9.01888407 0 0 Z " fill="#E97FA1" transform="translate(82,101)"/>
<path d="M0 0 C0.99 0 1.98 0 3 0 C3.33 1.65 3.66 3.3 4 5 C4.90363281 5 5.80726562 5 6.73828125 5 C11.15885417 5 15.57942708 5 20 5 C20.34155908 8.67176009 20.24249951 10.58028931 18.375 13.8125 C14.5487426 17.33668445 11.02856275 17 6 17 C6 16.34 6 15.68 6 15 C7.32 14.34 8.64 13.68 10 13 C4.798474 9.76340806 4.798474 9.76340806 -1 8 C-0.67 5.36 -0.34 2.72 0 0 Z " fill="#2B424C" transform="translate(103,158)"/>
<path d="M0 0 C3.55247432 0.87379409 4.94828114 2.4927342 6.9375 5.4765625 C7.33706124 8.28386937 7.17974238 10.61810244 6.9375 13.4765625 C5.6175 13.4765625 4.2975 13.4765625 2.9375 13.4765625 C1.9475 11.4965625 0.9575 9.5165625 -0.0625 7.4765625 C-2.96793025 7.89162396 -4.00175054 8.41581304 -6.125 10.5390625 C-6.764375 11.1784375 -7.40375 11.8178125 -8.0625 12.4765625 C-9.0525 12.4765625 -10.0425 12.4765625 -11.0625 12.4765625 C-11.47918469 8.22637871 -11.50272082 6.12313682 -9.0625 2.5390625 C-5.72726514 0.24608853 -3.96242945 -0.28517485 0 0 Z " fill="#0D2C44" transform="translate(115.0625,57.5234375)"/>
<path d="M0 0 C2.82133726 1.11143589 5.60323498 2.26810443 8.375 3.5 C11.9123553 4.96373323 15.3084038 6.02059693 19 7 C15.88265675 10.33233244 14.00844069 11.92733572 9.30078125 12.09765625 C8.31464844 12.08605469 7.32851562 12.07445313 6.3125 12.0625 C5.31863281 12.05347656 4.32476562 12.04445313 3.30078125 12.03515625 C2.16189453 12.01775391 2.16189453 12.01775391 1 12 C-0.26237731 9.47524538 -0.09856404 7.68799534 -0.0625 4.875 C-0.05347656 3.96492188 -0.04445312 3.05484375 -0.03515625 2.1171875 C-0.02355469 1.41851562 -0.01195312 0.71984375 0 0 Z " fill="#F2D01C" transform="translate(133,85)"/>
<path d="M0 0 C-0.56406106 3.81412716 -1.62496242 6.30148983 -3.75 9.5 C-6.9285475 14.56581007 -8.95064466 19.77900825 -10.921875 25.41015625 C-12 28 -12 28 -14 29 C-15.32 27.02 -16.64 25.04 -18 23 C-17.34 23 -16.68 23 -16 23 C-15.67 22.01 -15.34 21.02 -15 20 C-14 17 -13 14 -12 11 C-11.01 11 -10.02 11 -9 11 C-8.773125 9.9275 -8.54625 8.855 -8.3125 7.75 C-6.88513127 3.67180364 -4.7871376 0 0 0 Z " fill="#0E3148" transform="translate(72,109)"/>
<path d="M0 0 C0.33 0 0.66 0 1 0 C1.33 4.29 1.66 8.58 2 13 C4.97 13.33 7.94 13.66 11 14 C10.67 15.32 10.34 16.64 10 18 C7.69 18 5.38 18 3 18 C2.67 19.65 2.34 21.3 2 23 C1.01 23.33 0.02 23.66 -1 24 C-2.99118241 19.02988327 -3.24845695 14.87666865 -3.125 9.625 C-3.11597656 8.88894531 -3.10695312 8.15289062 -3.09765625 7.39453125 C-3.07430144 5.5962112 -3.03843836 3.79806089 -3 2 C-2.34 2.66 -1.68 3.32 -1 4 C-0.67 2.68 -0.34 1.36 0 0 Z " fill="#092D48" transform="translate(132,84)"/>
<path d="M0 0 C1.984375 0.8125 1.984375 0.8125 3.03125 2.5 C4.76442459 8.20021866 5.26344104 13.57961663 5.296875 19.5 C5.30235352 20.21220703 5.30783203 20.92441406 5.31347656 21.65820312 C5.24995486 26.3763327 4.4589339 30.33007592 2.984375 34.8125 C2.654375 34.8125 2.324375 34.8125 1.984375 34.8125 C1.859375 28.0625 1.859375 28.0625 2.984375 25.8125 C3.05471269 23.93870395 3.0686772 22.06248898 3.046875 20.1875 C3.03333984 18.68316406 3.03333984 18.68316406 3.01953125 17.1484375 C3.00792969 16.37757812 2.99632812 15.60671875 2.984375 14.8125 C1.994375 15.3075 1.994375 15.3075 0.984375 15.8125 C0.51914437 17.70783342 0.51914437 17.70783342 0.359375 19.875 C0.17375 21.8240625 0.17375 21.8240625 -0.015625 23.8125 C-0.345625 23.8125 -0.675625 23.8125 -1.015625 23.8125 C-1.08910156 22.45318359 -1.08910156 22.45318359 -1.1640625 21.06640625 C-1.59141627 14.10348709 -2.26843904 7.56828571 -4.015625 0.8125 C-2.015625 -0.1875 -2.015625 -0.1875 0 0 Z " fill="#33484A" transform="translate(174.015625,60.1875)"/>
<path d="M0 0 C0.66 0.99 1.32 1.98 2 3 C1.125 5.6875 1.125 5.6875 0 8 C1.65 8 3.3 8 5 8 C1.78678656 11.81301328 -1.47286262 15.47286262 -5 19 C-5.66 19.99 -6.32 20.98 -7 22 C-8 21 -8 21 -8.3125 17.5625 C-8.24628642 12.32216785 -6.60493928 7.526484 -4 3 C-1.859375 1.20703125 -1.859375 1.20703125 0 0 Z " fill="#152F47" transform="translate(72,120)"/>
<path d="M0 0 C0.99 0 1.98 0 3 0 C3.33 2.31 3.66 4.62 4 7 C7.3 7.99 10.6 8.98 14 10 C13.67 11.32 13.34 12.64 13 14 C7.375 14.25 7.375 14.25 4 12 C1.25481679 11.75812349 1.25481679 11.75812349 -1.6875 11.875 C-2.68136719 11.89304688 -3.67523438 11.91109375 -4.69921875 11.9296875 C-5.45847656 11.95289063 -6.21773438 11.97609375 -7 12 C-7 11.01 -7 10.02 -7 9 C-6.21625 8.566875 -5.4325 8.13375 -4.625 7.6875 C-1.2930378 5.5455243 -0.91940394 3.76119793 0 0 Z " fill="#E8AE20" transform="translate(92,160)"/>
<path d="M0 0 C2 2 2 2 3 7 C7.29 7 11.58 7 16 7 C15.67 5.68 15.34 4.36 15 3 C15.53625 3.33 16.0725 3.66 16.625 4 C20.75373677 5.73841548 24.78275157 5.2976149 29 4 C29.125 6.375 29.125 6.375 29 9 C27 11 27 11 23.625 11.25 C20 11 20 11 18.11328125 9.98046875 C15.42568468 8.73354317 13.50533819 8.90331735 10.5625 9.0625 C6.20960241 9.13805096 3.33191697 9.10978917 0 6 C-0.875 3.9375 -0.875 3.9375 -1 2 C-0.67 1.34 -0.34 0.68 0 0 Z " fill="#072F48" transform="translate(80,168)"/>
<path d="M0 0 C0.66 0 1.32 0 2 0 C2.33 1.32 2.66 2.64 3 4 C4.65 4.33 6.3 4.66 8 5 C6.54744301 8.82946843 4.57104439 10.12050295 1 12 C0.46375 11.34 -0.0725 10.68 -0.625 10 C-2.89958592 7.68975201 -2.89958592 7.68975201 -6.25 7.75 C-7.1575 7.8325 -8.065 7.915 -9 8 C-8 5 -8 5 -6 3 C-4.34183216 2.31246699 -2.67540664 1.64438717 -1 1 C-0.67 0.67 -0.34 0.34 0 0 Z " fill="#F7C920" transform="translate(91,126)"/>
<path d="M0 0 C0.99 0 1.98 0 3 0 C3 2.31 3 4.62 3 7 C4.32 7.33 5.64 7.66 7 8 C2.894534 11.97185616 -0.02968261 14.70876501 -6 15 C-6.33 14.34 -6.66 13.68 -7 13 C-6.43410156 12.30132812 -5.86820312 11.60265625 -5.28515625 10.8828125 C-4.55167969 9.97273437 -3.81820312 9.06265625 -3.0625 8.125 C-2.33160156 7.22007812 -1.60070312 6.31515625 -0.84765625 5.3828125 C1.0036252 3.15497253 1.0036252 3.15497253 2 1 C1.34 0.67 0.68 0.34 0 0 Z " fill="#54B4BB" transform="translate(77,127)"/>
<path d="M0 0 C2 2 2 2 2.265625 5.08984375 C2.2336924 12.95324574 1.793459 20.29773411 0 28 C-0.33 28 -0.66 28 -1 28 C-3.09897453 20.39121732 -3.71203762 12.88476957 -3 5 C-2.34 4.34 -1.68 3.68 -1 3 C-0.67 2.01 -0.34 1.02 0 0 Z " fill="#283750" transform="translate(136,47)"/>
<path d="M0 0 C0.99 0 1.98 0 3 0 C3.33 1.65 3.66 3.3 4 5 C4.71027344 5.04898438 5.42054687 5.09796875 6.15234375 5.1484375 C7.07144531 5.22320312 7.99054688 5.29796875 8.9375 5.375 C10.31228516 5.47941406 10.31228516 5.47941406 11.71484375 5.5859375 C12.84599609 5.79089844 12.84599609 5.79089844 14 6 C14.33 6.66 14.66 7.32 15 8 C14.01 8.33 13.02 8.66 12 9 C12.66 9.33 13.32 9.66 14 10 C14 10.66 14 11.32 14 12 C8.54520815 11.43179252 4.08940744 10.05362055 -1 8 C-0.67 5.36 -0.34 2.72 0 0 Z " fill="#D6AD2C" transform="translate(103,158)"/>
<path d="M0 0 C3.94769379 2.31712462 7.47072234 5.09353605 11 8 C10.01 9.485 10.01 9.485 9 11 C4.65795391 11 3.49747016 10.2465014 0.328125 7.4453125 C-1.45995034 5.49946581 -2.27934686 3.52228599 -3 1 C-2.01 0.67 -1.02 0.34 0 0 Z " fill="#194254" transform="translate(23,131)"/>
<path d="M0 0 C9.27350673 -0.82431171 17.30973107 2.90968023 24.44140625 8.6328125 C25.66906316 9.70970452 26.84526239 10.84526239 28 12 C27.67 12.99 27.34 13.98 27 15 C25.5 13.625 25.5 13.625 24 12 C24 11.34 24 10.68 24 10 C23.030625 9.731875 22.06125 9.46375 21.0625 9.1875 C19.5465625 8.5996875 19.5465625 8.5996875 18 8 C17.67 7.01 17.34 6.02 17 5 C11.34865884 4.1400133 5.69051363 3.5381371 0 3 C0 2.01 0 1.02 0 0 Z " fill="#66D2DC" transform="translate(30,124)"/>
<path d="M0 0 C0.84755859 0.09345703 1.69511719 0.18691406 2.56835938 0.28320312 C3.44943359 0.38697266 4.33050781 0.49074219 5.23828125 0.59765625 C6.57729492 0.74750977 6.57729492 0.74750977 7.94335938 0.90039062 C10.14656346 1.14780927 12.34889906 1.40127904 14.55078125 1.66015625 C13.03130626 5.02764137 12.02977283 6.26855962 8.55078125 7.66015625 C8.55078125 6.67015625 8.55078125 5.68015625 8.55078125 4.66015625 C2.41451751 1.59202438 -6.1939515 3.77177368 -12.44921875 5.66015625 C-8.31019963 1.29740636 -6.06471906 -0.69194781 0 0 Z " fill="#E0CF33" transform="translate(45.44921875,146.33984375)"/>
<path d="M0 0 C1.9375 0.3125 1.9375 0.3125 4 1 C4.33 1.99 4.66 2.98 5 4 C4.505 4.433125 4.01 4.86625 3.5 5.3125 C1.66781808 6.99740483 1.66781808 6.99740483 2 10 C0.68 9.67 -0.64 9.34 -2 9 C-1.34 10.98 -0.68 12.96 0 15 C-3 14 -3 14 -4.25 12.25 C-5.22425066 9.32724802 -4.99467187 7.91296761 -4 5 C-1.9375 2.1875 -1.9375 2.1875 0 0 Z " fill="#284752" transform="translate(30,146)"/>
<path d="M0 0 C6.54409037 -0.58169692 12.09295757 1.18757056 18 4 C19.828125 5.63671875 19.828125 5.63671875 21 7 C16.78222206 7.39541668 13.83303136 6.27474411 10.00390625 4.734375 C7.38011203 3.77282858 4.76578994 3.34572374 2 3 C2 4.65 2 6.3 2 8 C1.67 8 1.34 8 1 8 C0.67 5.36 0.34 2.72 0 0 Z " fill="#E8D845" transform="translate(136,41)"/>
<path d="M0 0 C0.38800781 0.48082031 0.77601562 0.96164063 1.17578125 1.45703125 C3.54088647 3.45749498 5.12691453 3.48876068 8.1875 3.6875 C9.08855469 3.75324219 9.98960938 3.81898438 10.91796875 3.88671875 C11.60503906 3.92410156 12.29210937 3.96148437 13 4 C12.67 4.99 12.34 5.98 12 7 C9.85423363 7.02685938 7.70837355 7.04633088 5.5625 7.0625 C4.36753906 7.07410156 3.17257813 7.08570313 1.94140625 7.09765625 C-1 7 -1 7 -2 6 C-2.04063832 4.33382885 -2.042721 2.66611905 -2 1 C-1.34 0.67 -0.68 0.34 0 0 Z " fill="#0E3248" transform="translate(108,157)"/>
<path d="M0 0 C1.32 0.66 2.64 1.32 4 2 C3.7734375 3.88671875 3.7734375 3.88671875 3 6 C1.0390625 7.08203125 1.0390625 7.08203125 -1.375 7.8125 C-2.16648437 8.06644531 -2.95796875 8.32039062 -3.7734375 8.58203125 C-6 9 -6 9 -9 8 C-6.03 5.36 -3.06 2.72 0 0 Z " fill="#53BFCA" transform="translate(88,134)"/>
<path d="M0 0 C0.66 0.66 1.32 1.32 2 2 C1.67 2.99 1.34 3.98 1 5 C-4.625 5.25 -4.625 5.25 -8 3 C-9.65549531 2.61500109 -11.3222433 2.27206865 -13 2 C-8.22316564 -0.47077639 -5.34323674 -1.25054477 0 0 Z " fill="#EBAD1E" transform="translate(104,169)"/>
<path d="M0 0 C-0.99 1.32 -1.98 2.64 -3 4 C-2.34 4.33 -1.68 4.66 -1 5 C-4.44069624 7.29379749 -5.72290301 8 -10 8 C-10 7.34 -10 6.68 -10 6 C-9.34 5.67 -8.68 5.34 -8 5 C-8.33 4.01 -8.66 3.02 -9 2 C-3.375 -1.125 -3.375 -1.125 0 0 Z " fill="#23404D" transform="translate(58,154)"/>
<path d="M0 0 C1.33333333 0 2.66666667 0 4 0 C4 3.96 4 7.92 4 12 C3.34 11.34 2.68 10.68 2 10 C1.34 11.65 0.68 13.3 0 15 C-0.33 15 -0.66 15 -1 15 C-0.67 10.05 -0.34 5.1 0 0 Z " fill="#062C46" transform="translate(174,74)"/>
<path d="M0 0 C1.5090332 1.19458008 1.5090332 1.19458008 3 3 C3.15698242 5.26831055 3.15698242 5.26831055 2.85546875 7.88671875 C2.70561523 9.2934082 2.70561523 9.2934082 2.55273438 10.72851562 C2.43220703 11.70498047 2.31167969 12.68144531 2.1875 13.6875 C2.07857422 14.67556641 1.96964844 15.66363281 1.85742188 16.68164062 C1.5861457 19.12312616 1.29981788 21.56188226 1 24 C0.67 24 0.34 24 0 24 C-0.39581757 20.93981857 -0.76291162 17.87684057 -1.125 14.8125 C-1.23714844 13.94818359 -1.34929687 13.08386719 -1.46484375 12.19335938 C-1.99512714 7.57989389 -2.354443 4.21183691 0 0 Z " fill="#0C2D43" transform="translate(134,41)"/>
<path d="M0 0 C0.33 0.66 0.66 1.32 1 2 C2.65 2 4.3 2 6 2 C5.06725891 3.12894876 4.12859878 4.25300876 3.1875 5.375 C2.66542969 6.00148437 2.14335938 6.62796875 1.60546875 7.2734375 C0 9 0 9 -3 11 C-2.53199289 6.94393835 -2.12046792 3.53411321 0 0 Z " fill="#4FBCC9" transform="translate(71,126)"/>
<path d="M0 0 C0.66 0.33 1.32 0.66 2 1 C0.8758824 2.29243468 -0.24932592 3.58392075 -1.375 4.875 C-2.00148438 5.59429687 -2.62796875 6.31359375 -3.2734375 7.0546875 C-4.47426834 8.4076598 -5.7208345 9.7208345 -7 11 C-7.99 11 -8.98 11 -10 11 C-8.55218207 7.55571735 -6.72305391 5.63869038 -3.875 3.25 C-3.15054688 2.63640625 -2.42609375 2.0228125 -1.6796875 1.390625 C-0.84824219 0.70226562 -0.84824219 0.70226562 0 0 Z " fill="#2F4357" transform="translate(78,29)"/>
<path d="M0 0 C2.97 0.495 2.97 0.495 6 1 C4.54744301 4.82946843 2.57104439 6.12050295 -1 8 C-1.99 6.68 -2.98 5.36 -4 4 C-3.01 4 -2.02 4 -1 4 C-0.67 2.68 -0.34 1.36 0 0 Z " fill="#EDCA30" transform="translate(93,130)"/>
<path d="M0 0 C-1.59720719 4.3124594 -4.31633819 6.42143673 -8 9 C-10.1953125 8.63671875 -10.1953125 8.63671875 -12 8 C-10.37982158 6.66081194 -8.75370657 5.3288031 -7.125 4 C-6.22007813 3.2575 -5.31515625 2.515 -4.3828125 1.75 C-2 0 -2 0 0 0 Z " fill="#0D2E43" transform="translate(88,133)"/>
<path d="M0 0 C4.75 1.875 4.75 1.875 7 3 C7.66 2.01 8.32 1.02 9 0 C8.75 2.875 8.75 2.875 8 6 C5.9375 7.375 5.9375 7.375 4 8 C4 7.34 4 6.68 4 6 C3.01 5.67 2.02 5.34 1 5 C0.67 3.35 0.34 1.7 0 0 Z " fill="#254B5C" transform="translate(50,124)"/>
<path d="M0 0 C2.05078125 0.03255208 4.1015625 0.06510417 6.15234375 0.09765625 C6.48234375 0.75765625 6.81234375 1.41765625 7.15234375 2.09765625 C6.82234375 2.75765625 6.49234375 3.41765625 6.15234375 4.09765625 C6.81234375 4.42765625 7.47234375 4.75765625 8.15234375 5.09765625 C0.64465144 4.48227163 0.64465144 4.48227163 -1.84765625 2.53515625 C-2.17765625 2.06078125 -2.50765625 1.58640625 -2.84765625 1.09765625 C-1.84765625 0.09765625 -1.84765625 0.09765625 0 0 Z " fill="#053149" transform="translate(100.84765625,22.90234375)"/>
<path d="M0 0 C0.33 0 0.66 0 1 0 C1.05437607 1.58294782 1.09296271 3.16644256 1.125 4.75 C1.14820313 5.63171875 1.17140625 6.5134375 1.1953125 7.421875 C0.99139502 10.1135858 0.36551721 11.69904974 -1 14 C-3.33846154 6.86153846 -3.33846154 6.86153846 -1.625 2.5 C-1.08875 1.675 -0.5525 0.85 0 0 Z " fill="#E7799A" transform="translate(62,131)"/>
<path d="M0 0 C2 2 2 2 3 7 C7.29 7 11.58 7 16 7 C16 7.33 16 7.66 16 8 C6.14007601 9.43322888 6.14007601 9.43322888 1.875 7.8125 C-0.17756333 5.82835545 -0.81720004 4.83339941 -1 2 C-0.67 1.34 -0.34 0.68 0 0 Z " fill="#425459" transform="translate(80,168)"/>
<path d="M0 0 C3.63 0 7.26 0 11 0 C10.34 0.66 9.68 1.32 9 2 C9.66 2.33 10.32 2.66 11 3 C11 3.66 11 4.32 11 5 C7.32589215 6.17571451 3.83070817 6.07366746 0 6 C0 5.67 0 5.34 0 5 C1.98 5 3.96 5 6 5 C6 4.01 6 3.02 6 2 C3.03 1.505 3.03 1.505 0 1 C0 0.67 0 0.34 0 0 Z " fill="#45554C" transform="translate(136,97)"/>
<path d="M0 0 C-0.0625 1.75 -0.0625 1.75 -1 4 C-3.24164322 5.59501537 -5.53566643 6.74543018 -8 8 C-7.8125 5.125 -7.8125 5.125 -7 2 C-4.52409924 0.60333803 -2.83735815 0 0 0 Z " fill="#163349" transform="translate(99,136)"/>
<path d="M0 0 C0.33 0.66 0.66 1.32 1 2 C1.66 2 2.32 2 3 2 C3 3.32 3 4.64 3 6 C0.09399739 7.25664978 -1.79604584 8 -5 8 C-3.35 5.36 -1.7 2.72 0 0 Z " fill="#0B2D44" transform="translate(128,133)"/>
<path d="M0 0 C1.98 0.495 1.98 0.495 4 1 C3.625 3.4375 3.625 3.4375 3 6 C2.01 6.495 2.01 6.495 1 7 C0.53476937 8.89533342 0.53476937 8.89533342 0.375 11.0625 C0.25125 12.361875 0.1275 13.66125 0 15 C-0.33 15 -0.66 15 -1 15 C-1.02715383 13.25008666 -1.04646551 11.50005055 -1.0625 9.75 C-1.07410156 8.77546875 -1.08570313 7.8009375 -1.09765625 6.796875 C-1.01195577 4.34241322 -0.70706066 2.33831086 0 0 Z " fill="#294548" transform="translate(174,69)"/>
<path d="M0 0 C1.0625 1.8125 1.0625 1.8125 2 4 C1.67 4.99 1.34 5.98 1 7 C0.34 7 -0.32 7 -1 7 C-1.33 7.99 -1.66 8.98 -2 10 C-2.33 9.34 -2.66 8.68 -3 8 C-3.66 8 -4.32 8 -5 8 C-4.67 6.68 -4.34 5.36 -4 4 C-2.68 3.67 -1.36 3.34 0 3 C0 2.01 0 1.02 0 0 Z " fill="#1E3C4F" transform="translate(86,162)"/>
<path d="M0 0 C0.33 0.99 0.66 1.98 1 3 C-1.64 3.33 -4.28 3.66 -7 4 C-7 3.67 -7 3.34 -7 3 C-9.97 2.505 -9.97 2.505 -13 2 C-13 1.67 -13 1.34 -13 1 C-11.58366664 0.83052421 -10.16691467 0.66454493 -8.75 0.5 C-7.56664062 0.36078125 -7.56664062 0.36078125 -6.359375 0.21875 C-4 0 -4 0 0 0 Z " fill="#12324B" transform="translate(50,157)"/>
<path d="M0 0 C2.31 0.66 4.62 1.32 7 2 C5 4 5 4 2.3984375 4.1953125 C1.40070313 4.17210937 0.40296875 4.14890625 -0.625 4.125 C-2.12933594 4.09792969 -2.12933594 4.09792969 -3.6640625 4.0703125 C-4.43492188 4.04710937 -5.20578125 4.02390625 -6 4 C-6 3.34 -6 2.68 -6 2 C-4.02 2 -2.04 2 0 2 C0 1.34 0 0.68 0 0 Z " fill="#21324B" transform="translate(79,143)"/>
<path d="M0 0 C1.32 0 2.64 0 4 0 C4 2.64 4 5.28 4 8 C3.34 7.67 2.68 7.34 2 7 C1.34 7.66 0.68 8.32 0 9 C0 6.03 0 3.06 0 0 Z " fill="#08273D" transform="translate(105,114)"/>
<path d="M0 0 C1.32 0.66 2.64 1.32 4 2 C1.03 4.475 1.03 4.475 -2 7 C-2.66 6.67 -3.32 6.34 -4 6 C-2.84826645 3.53199953 -1.95216435 1.95216435 0 0 Z " fill="#04243B" transform="translate(79,109)"/>
<path d="M0 0 C1.134375 0.020625 2.26875 0.04125 3.4375 0.0625 C2.38875002 2.68437494 1.78818687 3.85621361 -0.6875 5.3125 C-1.30625 5.56 -1.925 5.8075 -2.5625 6.0625 C-2.5625 5.0725 -2.5625 4.0825 -2.5625 3.0625 C-3.2225 2.4025 -3.8825 1.7425 -4.5625 1.0625 C-3.5625 0.0625 -3.5625 0.0625 0 0 Z " fill="#EAD328" transform="translate(56.5625,147.9375)"/>
<path d="M0 0 C0.99 0.33 1.98 0.66 3 1 C2.67 2.32 2.34 3.64 2 5 C0.125 5.625 0.125 5.625 -2 6 C-2.66 5.34 -3.32 4.68 -4 4 C-2.68 2.68 -1.36 1.36 0 0 Z " fill="#48ADB8" transform="translate(89,135)"/>
<path d="M0 0 C0.99 0 1.98 0 3 0 C3 0.66 3 1.32 3 2 C3.99 2.33 4.98 2.66 6 3 C4 5 4 5 1.375 5.125 C0.59125 5.08375 -0.1925 5.0425 -1 5 C-0.67 3.35 -0.34 1.7 0 0 Z " fill="#F3CE21" transform="translate(73,123)"/>
<path d="M0 0 C2.97 0.99 5.94 1.98 9 3 C7.02 3.99 7.02 3.99 5 5 C5 5.66 5 6.32 5 7 C3.68 6.67 2.36 6.34 1 6 C0.67 4.02 0.34 2.04 0 0 Z " fill="#2B424A" transform="translate(95,171)"/>
<path d="M0 0 C0.99 0 1.98 0 3 0 C3 1.98 3 3.96 3 6 C1.68 6 0.36 6 -1 6 C-1.042721 4.33388095 -1.04063832 2.66617115 -1 1 C-0.67 0.67 -0.34 0.34 0 0 Z " fill="#C9B444" transform="translate(92,160)"/>
<path d="M0 0 C0.99 0 1.98 0 3 0 C3 0.66 3 1.32 3 2 C4.32 2.33 5.64 2.66 7 3 C7 3.66 7 4.32 7 5 C5.35 5 3.7 5 2 5 C1.34 3.35 0.68 1.7 0 0 Z " fill="#EEAA1E" transform="translate(110,165)"/>
<path d="M0 0 C3.375 -0.1875 3.375 -0.1875 7 0 C7.66 0.99 8.32 1.98 9 3 C6.03 3 3.06 3 0 3 C0 2.01 0 1.02 0 0 Z " fill="#5CC8D4" transform="translate(30,124)"/>
<path d="M0 0 C0.66 0 1.32 0 2 0 C1.67 4.29 1.34 8.58 1 13 C0.67 13 0.34 13 0 13 C-0.19397476 11.02145742 -0.38001321 9.0421352 -0.5625 7.0625 C-0.66691406 5.96035156 -0.77132812 4.85820312 -0.87890625 3.72265625 C-0.91886719 2.82417969 -0.95882812 1.92570313 -1 1 C-0.67 0.67 -0.34 0.34 0 0 Z " fill="#F481A5" transform="translate(63,128)"/>
<path d="M0 0 C0.66 0 1.32 0 2 0 C2.33 1.32 2.66 2.64 3 4 C1.68 3.67 0.36 3.34 -1 3 C-0.34 4.98 0.32 6.96 1 9 C0.01 8.67 -0.98 8.34 -2 8 C-2.125 5.125 -2.125 5.125 -2 2 C-1.34 1.34 -0.68 0.68 0 0 Z " fill="#203F50" transform="translate(29,152)"/>
<path d="M0 0 C2.31 0.33 4.62 0.66 7 1 C6.01 2.485 6.01 2.485 5 4 C3.0625 3.6875 3.0625 3.6875 1 3 C0.67 2.01 0.34 1.02 0 0 Z " fill="#E8D628" transform="translate(145,91)"/>
<path d="M0 0 C0.99 0.33 1.98 0.66 3 1 C2.34 2.32 1.68 3.64 1 5 C-1.31 5 -3.62 5 -6 5 C-5.38125 4.54625 -4.7625 4.0925 -4.125 3.625 C-1.94080167 2.02891081 -1.94080167 2.02891081 0 0 Z " fill="#344D54" transform="translate(106,174)"/>
<path d="M0 0 C0.66 0.33 1.32 0.66 2 1 C0.95125002 3.62187494 0.35068687 4.79371361 -2.125 6.25 C-2.74375 6.4975 -3.3625 6.745 -4 7 C-2.92598892 4.08482708 -2.22189824 2.22189824 0 0 Z " fill="#33535B" transform="translate(30,146)"/>
<path d="M0 0 C0.33 0.66 0.66 1.32 1 2 C2.65 2 4.3 2 6 2 C5.01 3.485 5.01 3.485 4 5 C2.68 5 1.36 5 0 5 C-0.33 4.01 -0.66 3.02 -1 2 C-0.67 1.34 -0.34 0.68 0 0 Z " fill="#5CB7AC" transform="translate(71,126)"/>
<path d="M0 0 C1.32 0.66 2.64 1.32 4 2 C3.67 2.66 3.34 3.32 3 4 C0.03 3.505 0.03 3.505 -3 3 C-2.01 2.01 -1.02 1.02 0 0 Z " fill="#FEC21A" transform="translate(79,122)"/>
<path d="M0 0 C2.97 0.495 2.97 0.495 6 1 C3.38058783 2.74627478 1.96175123 3.38722388 -1 4 C-0.67 2.68 -0.34 1.36 0 0 Z " fill="#FE638F" transform="translate(78,119)"/>
<path d="M0 0 C0.33 0.99 0.66 1.98 1 3 C0.01 3.33 -0.98 3.66 -2 4 C-2.73323796 6.01508358 -2.73323796 6.01508358 -3 8 C-4 5 -4 5 -3.1875 2.875 C-2 1 -2 1 0 0 Z " fill="#063650" transform="translate(67,113)"/>
<path d="M0 0 C0.66 0.66 1.32 1.32 2 2 C1.625 4.125 1.625 4.125 1 6 C-0.32 5.67 -1.64 5.34 -3 5 C-1.125 1.125 -1.125 1.125 0 0 Z " fill="#182E45" transform="translate(83,105)"/>
<path d="" fill="#696171" transform="translate(0,0)"/>
<path d="M0 0 C2 1 2 1 2 1 Z " fill="#61665D" transform="translate(110,175)"/>
<path d="M0 0 C2 1 2 1 2 1 Z " fill="#5B6568" transform="translate(69,159)"/>
<path d="" fill="#566C68" transform="translate(0,0)"/>
<path d="" fill="#70705A" transform="translate(0,0)"/>
<path d="M0 0 C2 1 2 1 2 1 Z " fill="#696361" transform="translate(137,33)"/>
<path d="" fill="#576663" transform="translate(0,0)"/>
<path d="" fill="#5F6660" transform="translate(0,0)"/>
<path d="" fill="#576A65" transform="translate(0,0)"/>
<path d="" fill="#566C69" transform="translate(0,0)"/>
<path d="" fill="#5F6A6A" transform="translate(0,0)"/>
<path d="" fill="#5B6770" transform="translate(0,0)"/>
<path d="" fill="#5D6571" transform="translate(0,0)"/>
<path d="" fill="#6D694F" transform="translate(0,0)"/>
<path d="" fill="#636371" transform="translate(0,0)"/>
<path d="" fill="#6A6372" transform="translate(0,0)"/>
<path d="" fill="#766D4C" transform="translate(0,0)"/>
<path d="" fill="#605666" transform="translate(0,0)"/>
</svg>
