<?xml version="1.0" encoding="UTF-8"?>
<svg version="1.1" xmlns="http://www.w3.org/2000/svg" width="200" height="200">
<path d="M0 0 C4.02595773 0.82162403 6.44537996 2.5643003 9.0625 5.625 C13.58236799 12.68544738 15.19647534 20.39776574 16.0625 28.625 C16.70316406 28.33625 17.34382813 28.0475 18.00390625 27.75 C24.80723948 24.82994043 29.5537313 23.45541043 36.8125 25.875 C40.66371143 27.94872923 42.08304996 29.59613921 43.9375 33.4375 C44.13621422 36.91499879 42.79311064 39.69678048 41.0625 42.625 C38.5 45.375 38.5 45.375 36.0625 47.625 C35.4025 48.615 34.7425 49.605 34.0625 50.625 C34.64 50.851875 35.2175 51.07875 35.8125 51.3125 C38.75321898 53.0279194 40.23525686 54.75361793 42.0625 57.625 C42.5625 60.6875 42.5625 60.6875 42.0625 63.625 C39.83043569 66.47280619 38.51257001 67.47497666 35.0625 68.625 C28.45948167 69.31525144 23.11601747 68.00494019 17 65.625 C16.22978516 65.33882813 15.45957031 65.05265625 14.66601562 64.7578125 C12.79327287 64.05989595 10.92713153 63.34430677 9.0625 62.625 C8.8665625 63.24246094 8.670625 63.85992187 8.46875 64.49609375 C5.968505 71.57652894 2.33272953 76.32918683 -2.9375 81.625 C-1.63120826 84.48175015 -0.55016433 86.03078023 1.6875 88.375 C6.84897032 94.16249024 9.77606323 101.67677201 13.0625 108.625 C13.60777344 108.22667969 14.15304688 107.82835938 14.71484375 107.41796875 C22.4824174 101.96075034 29.11453902 98.68720173 38.7578125 100.0390625 C42.23760071 100.92375442 44.32564411 102.30919886 47.0625 104.625 C48.64793507 107.79587015 48.40315437 110.10490484 48.0625 113.625 C45.48101323 119.73721981 41.5889182 123.15744348 36.0625 126.625 C36.866875 127.429375 37.67125 128.23375 38.5 129.0625 C42.0625 132.625 42.0625 132.625 42.5 135.375 C42.0625 138.625 42.0625 138.625 39.25 141.4375 C33.96143935 145.06690437 29.30586682 145.2766349 23.0625 144.625 C18.65543795 143.355062 14.58281162 141.80373148 10.94140625 138.98046875 C9.08456834 137.34471844 9.08456834 137.34471844 6.375 137.75 C3.76058916 138.44059909 1.29465932 139.22949271 -1.25 140.125 C-5.82175067 141.71889266 -10.11912514 142.2425893 -14.9375 142.625 C-14.6075 143.615 -14.2775 144.605 -13.9375 145.625 C-12.9475 145.99625 -12.9475 145.99625 -11.9375 146.375 C-9.9375 147.625 -9.9375 147.625 -9 151.0625 C-8.9375 154.625 -8.9375 154.625 -10.125 156.5 C-12.16910744 157.76875634 -13.54281938 158.34327287 -15.9375 158.625 C-16.72125 158.41875 -17.505 158.2125 -18.3125 158 C-21.08071263 157.34413971 -21.08071263 157.34413971 -23.8125 159.125 C-27.72994143 161.00537189 -29.79997451 160.81851697 -33.9375 159.625 C-35.375 157.5625 -35.375 157.5625 -35.9375 155.625 C-37.731875 156.0271875 -37.731875 156.0271875 -39.5625 156.4375 C-43.28055784 156.89317672 -43.90035061 156.64661419 -47.375 154.625 C-50.37083514 151.11768082 -51.02243097 149.21127258 -50.9375 144.625 C-50 142.8125 -50 142.8125 -47.9375 141.625 C-45.28188867 140.79904215 -42.66502279 140.20627535 -39.9375 139.625 C-42.20071512 137.88406529 -44.48983749 136.2606923 -46.875 134.6875 C-56.13137367 128.45361569 -61.16461086 121.31674338 -64.25390625 110.5234375 C-65.51909207 103.30826354 -67.3159332 91.38186639 -63.9375 84.625 C-65.2059375 84.5321875 -65.2059375 84.5321875 -66.5 84.4375 C-70.95509223 83.3844782 -73.34340917 81.42839085 -76.9375 78.625 C-77.39640625 79.19089844 -77.8553125 79.75679688 -78.328125 80.33984375 C-78.94171875 81.07332031 -79.5553125 81.80679688 -80.1875 82.5625 C-80.79078125 83.29339844 -81.3940625 84.02429688 -82.015625 84.77734375 C-84.06795584 86.75041791 -85.121871 87.39608707 -87.9375 87.625 C-93.5700264 84.38629732 -95.76863915 79.30125591 -97.6640625 73.33984375 C-100.25090186 62.73380235 -99.02488852 52.88403325 -93.73046875 43.3515625 C-88.08151743 34.76121823 -80.87586619 30.07682735 -71.2734375 26.68359375 C-67.93168738 25.1691886 -66.82653524 22.68653987 -64.9375 19.625 C-64.2775 19.295 -63.6175 18.965 -62.9375 18.625 C-62.08169598 15.87388131 -61.46440378 13.0958175 -60.81640625 10.2890625 C-59.90507201 7.52670717 -59.26728402 6.32450428 -56.9375 4.625 C-53.5 4.125 -53.5 4.125 -49.9375 4.625 C-49.40125 5.45902344 -48.865 6.29304688 -48.3125 7.15234375 C-46.26473359 9.77381838 -46.26473359 9.77381838 -43.92358398 9.97119141 C-41.39450228 9.97275789 -38.89867643 9.85220358 -36.375 9.6875 C-27.04574019 9.36003971 -19.8548785 10.34674766 -11.9375 15.625 C-11.59138672 14.62919922 -11.59138672 14.62919922 -11.23828125 13.61328125 C-6.73996081 1.43403422 -6.73996081 1.43403422 0 0 Z " fill="#1A394E" transform="translate(117.9375,16.375)"/>
<path d="M0 0 C1.32 0.33 2.64 0.66 4 1 C4.33 2.65 4.66 4.3 5 6 C5.98355469 5.84144531 6.96710938 5.68289062 7.98046875 5.51953125 C18.26955525 4.06369921 29.8911878 3.2926832 39 9 C40.0003125 9.62390625 41.000625 10.2478125 42.03125 10.890625 C46.53352246 14.74920708 47.39137981 20.53883883 48.8125 26.0625 C49.11091797 27.15111328 49.40933594 28.23972656 49.71679688 29.36132812 C51.77854017 36.92415623 51.77854017 36.92415623 52.4675293 40.27124023 C52.84919578 42.20547535 52.84919578 42.20547535 54.9375 43.125 C55.9584375 43.558125 55.9584375 43.558125 57 44 C57.66 44.66 58.32 45.32 59 46 C57.0326859 54.77724752 54.47245211 60.52387556 47.92578125 66.78125 C45.72297525 69.31916848 44.96818916 70.63335232 45 74 C46.6505163 76.22885232 46.6505163 76.22885232 49.0625 78.1875 C57.04164344 85.69582442 61.35542351 94.39058138 64 105 C64 106.32 64 107.64 64 109 C64.4846875 108.55269531 64.969375 108.10539062 65.46875 107.64453125 C72.17188125 101.59882249 79.65342202 95.04457519 89.0625 94.75 C92.47343994 94.96656762 94.22291579 95.14861052 97 97 C97.5 99.5625 97.5 99.5625 97 103 C91.59711248 109.86432431 83.77440353 113.39444148 75.2734375 114.47265625 C73.96632813 114.60542969 72.65921875 114.73820312 71.3125 114.875 C65.50057974 115.52528478 62.82560118 116.33086442 58.83984375 120.46875 C52.08058569 126.09428962 41.81737483 126.60539802 33.41796875 126.31640625 C21.97700478 125.25729987 12.05571571 121.69556114 4.125 113.125 C-1.35424387 106.36640438 -4.12108213 99.73326975 -4.1328125 90.98828125 C-4.13410156 90.06595703 -4.13539062 89.14363281 -4.13671875 88.19335938 C-4.13285156 87.24267578 -4.12898438 86.29199219 -4.125 85.3125 C-4.12886719 84.35021484 -4.13273437 83.38792969 -4.13671875 82.39648438 C-4.13542969 81.47802734 -4.13414063 80.55957031 -4.1328125 79.61328125 C-4.13168457 78.77579346 -4.13055664 77.93830566 -4.12939453 77.07543945 C-4 75 -4 75 -3 73 C-2.195625 72.566875 -1.39125 72.13375 -0.5625 71.6875 C3.22153456 69.1955748 3.63312026 66.5775829 4.625 62.3125 C6.12849847 49.03159682 4.73854524 34.74223466 -2 23 C-3.9058321 20.86995236 -5.58561091 19.57216034 -8 18 C-7.25 16.125 -7.25 16.125 -6 14 C-5.32839844 13.72929688 -4.65679687 13.45859375 -3.96484375 13.1796875 C-3.31644531 12.79039063 -2.66804688 12.40109375 -2 12 C-1.33446517 9.64916745 -1.33446517 9.64916745 -1.3125 7 C-1.06472492 2.12944984 -1.06472492 2.12944984 0 0 Z " fill="#FB7497" transform="translate(63,27)"/>
<path d="M0 0 C-0.33 1.32 -0.66 2.64 -1 4 C-0.01 4.33 0.98 4.66 2 5 C-4.435 6.98 -4.435 6.98 -11 9 C-6.545 11.475 -6.545 11.475 -2 14 C-2.99 14.33 -3.98 14.66 -5 15 C-5 15.66 -5 16.32 -5 17 C-5.66 17 -6.32 17 -7 17 C-7 16.34 -7 15.68 -7 15 C-8.258125 14.855625 -9.51625 14.71125 -10.8125 14.5625 C-13.42667123 14.26251314 -15.47439892 13.84186703 -18 13 C-17.87625 13.78375 -17.7525 14.5675 -17.625 15.375 C-18.39775888 22.84500252 -23.48649376 29.13514156 -29 34 C-27.69370826 36.85675015 -26.61266433 38.40578023 -24.375 40.75 C-19.21352968 46.53749024 -16.28643677 54.05177201 -13 61 C-12.45472656 60.60167969 -11.90945312 60.20335937 -11.34765625 59.79296875 C-3.5800826 54.33575034 3.05203902 51.06220173 12.6953125 52.4140625 C16.17510071 53.29875442 18.26314411 54.68419886 21 57 C22.58543507 60.17087015 22.34065437 62.47990484 22 66 C19.41851323 72.11221981 15.5264182 75.53244348 10 79 C10.804375 79.804375 11.60875 80.60875 12.4375 81.4375 C16 85 16 85 16.4375 87.75 C16 91 16 91 13.1875 93.8125 C7.89893935 97.44190437 3.24336682 97.6516349 -3 97 C-7.40706205 95.730062 -11.47968838 94.17873148 -15.12109375 91.35546875 C-16.97793166 89.71971844 -16.97793166 89.71971844 -19.6875 90.125 C-22.30191084 90.81559909 -24.76784068 91.60449271 -27.3125 92.5 C-31.88425067 94.09389266 -36.18162514 94.6175893 -41 95 C-40.67 95.99 -40.34 96.98 -40 98 C-39.01 98.37125 -39.01 98.37125 -38 98.75 C-36 100 -36 100 -35.0625 103.4375 C-35 107 -35 107 -36.1875 108.875 C-38.23160744 110.14375634 -39.60531938 110.71827287 -42 111 C-43.175625 110.690625 -43.175625 110.690625 -44.375 110.375 C-47.14321263 109.71913971 -47.14321263 109.71913971 -49.875 111.5 C-53.79244143 113.38037189 -55.86247451 113.19351697 -60 112 C-61.4375 109.9375 -61.4375 109.9375 -62 108 C-63.794375 108.4021875 -63.794375 108.4021875 -65.625 108.8125 C-69.34305784 109.26817672 -69.96285061 109.02161419 -73.4375 107 C-76.43333514 103.49268082 -77.08493097 101.58627258 -77 97 C-76.0625 95.1875 -76.0625 95.1875 -74 94 C-71.34438867 93.17404215 -68.72752279 92.58127535 -66 92 C-68.26321512 90.25906529 -70.55233749 88.6356923 -72.9375 87.0625 C-82.19387367 80.82861569 -87.22711086 73.69174338 -90.31640625 62.8984375 C-91.58159207 55.68326354 -93.3784332 43.75686639 -90 37 C-90.845625 36.95875 -91.69125 36.9175 -92.5625 36.875 C-97.13571949 35.71090777 -99.66547105 33.22600877 -103 30 C-102.67 28.68 -102.34 27.36 -102 26 C-98.98968256 25.06576355 -98.13349732 24.95550089 -95 26 C-92.35900959 25.31466169 -92.35900959 25.31466169 -89.5625 24.1875 C-88.14130859 23.65189453 -88.14130859 23.65189453 -86.69140625 23.10546875 C-84.39619924 22.16273496 -82.19780282 21.14826105 -80 20 C-79.67955058 25.34082361 -80.46579873 28.33706965 -83 33 C-84.24732112 38.07882506 -84.22081949 43.04857383 -84.25 48.25 C-84.270625 49.15363281 -84.29125 50.05726562 -84.3125 50.98828125 C-84.37053492 61.071849 -81.47285518 69.22083164 -75 77 C-65.51936371 86.17480931 -53.51088907 88.39882188 -40.7421875 88.27734375 C-33.43920851 87.7361 -25.85824039 86.30798239 -20.625 80.875 C-16.49417941 76.75448071 -11.28442124 77.03579562 -5.73046875 76.4765625 C1.77680995 75.51751747 8.19705611 72.73098127 13.79296875 67.59375 C15.29961285 65.87827776 15.29961285 65.87827776 15.4375 62.625 C15.2209375 61.325625 15.2209375 61.325625 15 60 C8.45323799 57.817746 4.06245702 58.67655534 -2.0625 61.5625 C-6.72121673 64.03026524 -10.24107428 66.70989134 -13.6953125 70.6796875 C-14.12585938 71.11539063 -14.55640625 71.55109375 -15 72 C-15.66 72 -16.32 72 -17 72 C-17.27972656 70.97261719 -17.55945313 69.94523437 -17.84765625 68.88671875 C-21.29320733 56.7649503 -25.76428443 47.17726654 -35.59375 38.8515625 C-37 37 -37 37 -36.92578125 34.48046875 C-35.89520877 31.71923026 -34.89940295 30.59627278 -32.6875 28.6875 C-27.88818892 24.14388992 -25.3041964 19.66899277 -24.55078125 13.05859375 C-23.8587984 10.19598394 -23.33700337 9.23937018 -20.9050293 7.51196289 C-18.14439419 6.18417626 -15.37171116 5.06598525 -12.5 4 C-11.52417969 3.60683594 -10.54835938 3.21367188 -9.54296875 2.80859375 C-2.46766115 0 -2.46766115 0 0 0 Z " fill="#16364B" transform="translate(144,64)"/>
<path d="M0 0 C10.81635748 5.11392511 17.77823921 14.68100242 22.51953125 25.484375 C24.12755862 30.03427733 24.93278193 34.45319665 23.95703125 39.234375 C21.64540614 42.53669659 19.80225286 43.47093392 15.95703125 44.234375 C7.32924529 45.17251215 -0.3725616 43.44211201 -7.5625 38.50390625 C-13.88819275 33.24823118 -19.47052595 26.21217931 -20.28125 17.74609375 C-20.40058566 13.20505767 -20.3827179 9.98182312 -18.48046875 5.796875 C-13.31365878 0.36510042 -7.60520537 -2.85013433 0 0 Z " fill="#142C44" transform="translate(100.04296875,100.765625)"/>
<path d="M0 0 C2.1875 1.9375 2.1875 1.9375 4 5 C4.37253906 5.59683594 4.74507812 6.19367187 5.12890625 6.80859375 C8.79438293 13.5648208 9.53137876 21.51600382 8 29 C3.88021264 35.64993688 -2.88733637 36.82199581 -10.01171875 38.54492188 C-16.2200578 40.23765661 -19.3548057 42.69682436 -23 48 C-23.99 47.67 -24.98 47.34 -26 47 C-30.67821026 37.50276379 -31.57632429 27.55338674 -28.23828125 17.5234375 C-24.26106957 9.41845723 -17.37842677 3.39191004 -9 0.25 C-5.85153782 -0.14355777 -3.17504975 -0.3401839 0 0 Z " fill="#FDD017" transform="translate(55,49)"/>
<path d="M0 0 C-0.33 1.32 -0.66 2.64 -1 4 C-0.01 4.33 0.98 4.66 2 5 C-4.435 6.98 -4.435 6.98 -11 9 C-6.545 11.475 -6.545 11.475 -2 14 C-2.99 14.33 -3.98 14.66 -5 15 C-5 15.66 -5 16.32 -5 17 C-5.66 17 -6.32 17 -7 17 C-7 16.34 -7 15.68 -7 15 C-8.258125 14.855625 -9.51625 14.71125 -10.8125 14.5625 C-13.42667123 14.26251314 -15.47439892 13.84186703 -18 13 C-17.87625 13.78375 -17.7525 14.5675 -17.625 15.375 C-18.39775888 22.84500252 -23.48649376 29.13514156 -29 34 C-27.69370826 36.85675015 -26.61266433 38.40578023 -24.375 40.75 C-19.21352968 46.53749024 -16.28643677 54.05177201 -13 61 C-12.45472656 60.60167969 -11.90945312 60.20335937 -11.34765625 59.79296875 C-3.5800826 54.33575034 3.05203902 51.06220173 12.6953125 52.4140625 C16.17510071 53.29875442 18.26314411 54.68419886 21 57 C22.58543507 60.17087015 22.34065437 62.47990484 22 66 C19.62127057 71.50593838 16.40137968 75.24184867 11 78 C9.68 78 8.36 78 7 78 C6.505 79.485 6.505 79.485 6 81 C2.54210946 81.19635974 -0.91632197 81.38058252 -4.375 81.5625 C-5.85226563 81.64661133 -5.85226563 81.64661133 -7.359375 81.73242188 C-8.77089844 81.80493164 -8.77089844 81.80493164 -10.2109375 81.87890625 C-11.51490479 81.94960327 -11.51490479 81.94960327 -12.84521484 82.02172852 C-15 82 -15 82 -17 81 C-17.33 81.66 -17.66 82.32 -18 83 C-17.67 81.35 -17.34 79.7 -17 78 C-16.03320312 77.90203125 -15.06640625 77.8040625 -14.0703125 77.703125 C-3.68090762 76.50988642 5.79662387 74.93465678 13.79296875 67.59375 C15.29961285 65.87827776 15.29961285 65.87827776 15.4375 62.625 C15.293125 61.75875 15.14875 60.8925 15 60 C8.45323799 57.817746 4.06245702 58.67655534 -2.0625 61.5625 C-6.72121673 64.03026524 -10.24107428 66.70989134 -13.6953125 70.6796875 C-14.34113281 71.33324219 -14.34113281 71.33324219 -15 72 C-15.66 72 -16.32 72 -17 72 C-17.27972656 70.97261719 -17.55945313 69.94523437 -17.84765625 68.88671875 C-21.29320733 56.7649503 -25.76428443 47.17726654 -35.59375 38.8515625 C-37 37 -37 37 -36.92578125 34.48046875 C-35.89520877 31.71923026 -34.89940295 30.59627278 -32.6875 28.6875 C-27.88818892 24.14388992 -25.3041964 19.66899277 -24.55078125 13.05859375 C-23.8587984 10.19598394 -23.33700337 9.23937018 -20.9050293 7.51196289 C-18.14439419 6.18417626 -15.37171116 5.06598525 -12.5 4 C-11.52417969 3.60683594 -10.54835937 3.21367188 -9.54296875 2.80859375 C-2.46766115 0 -2.46766115 0 0 0 Z " fill="#15394D" transform="translate(144,64)"/>
<path d="M0 0 C0.95003906 -0.01675781 1.90007812 -0.03351562 2.87890625 -0.05078125 C5.4375 0.3125 5.4375 0.3125 7.265625 1.6328125 C9.01587287 4.14150111 8.6355119 6.34232154 8.4375 9.3125 C9.0975 9.6425 9.7575 9.9725 10.4375 10.3125 C10.02328031 15.14506305 7.97336014 17.13929218 4.4375 20.3125 C5.015 20.539375 5.5925 20.76625 6.1875 21 C9.12821898 22.7154194 10.61025686 24.44111793 12.4375 27.3125 C12.9375 30.375 12.9375 30.375 12.4375 33.3125 C10.20543569 36.16030619 8.88757001 37.16247666 5.4375 38.3125 C-1.10327404 38.98069654 -6.4794118 37.74413838 -12.5625 35.4375 C-13.32433594 35.16808594 -14.08617187 34.89867187 -14.87109375 34.62109375 C-20.42249693 32.59250613 -20.42249693 32.59250613 -21.5625 30.3125 C-17.9325 30.9725 -14.3025 31.6325 -10.5625 32.3125 C-10.5625 32.9725 -10.5625 33.6325 -10.5625 34.3125 C-9.9025 34.3125 -9.2425 34.3125 -8.5625 34.3125 C-8.2325 33.3225 -7.9025 32.3325 -7.5625 31.3125 C-12.0175 29.3325 -12.0175 29.3325 -16.5625 27.3125 C-13.3859932 24.53305655 -10.24781166 23.42746207 -6.26953125 22.25390625 C-4.34108672 21.45139916 -4.34108672 21.45139916 -3.95581055 19.25366211 C-3.82601807 18.61307861 -3.69622559 17.97249512 -3.5625 17.3125 C-4.14217529 17.59561035 -4.72185059 17.8787207 -5.3190918 18.17041016 C-7.95422043 19.44464827 -10.60156218 20.69117632 -13.25 21.9375 C-14.16201172 22.38351563 -15.07402344 22.82953125 -16.01367188 23.2890625 C-16.89990234 23.7015625 -17.78613281 24.1140625 -18.69921875 24.5390625 C-19.51092529 24.92658691 -20.32263184 25.31411133 -21.15893555 25.71337891 C-24.25369898 26.48479074 -25.76976329 25.72516837 -28.5625 24.3125 C-27.5725 23.6525 -26.5825 22.9925 -25.5625 22.3125 C-22.35911102 19.46435066 -20.56973002 16.70858148 -18.6875 12.875 C-14.55942387 5.05667399 -9.18180146 0.03747674 0 0 Z " fill="#153B4D" transform="translate(147.5625,46.6875)"/>
<path d="M0 0 C7.55422337 3.11356504 13.40559251 9.77965514 17 17 C16.7109375 19.83984375 16.7109375 19.83984375 16 22 C14.02 22 12.04 22 10 22 C10.33 23.65 10.66 25.3 11 27 C7.7 27 4.4 27 1 27 C0.01 29.475 0.01 29.475 -1 32 C-7.35738365 29.11028016 -11.58465419 23.07683871 -14.4375 16.875 C-15.45400584 11.6795257 -15.74973358 8.34952044 -13.125 3.625 C-9.47363125 -0.88551434 -5.51646129 -0.86194708 0 0 Z " fill="#F97295" transform="translate(99,105)"/>
<path d="M0 0 C7.30014589 6.28623674 8.83891808 16.97106034 10 26 C10.64066406 25.71125 11.28132813 25.4225 11.94140625 25.125 C18.74473948 22.20494043 23.4912313 20.83041043 30.75 23.25 C34.60121143 25.32372923 36.02054996 26.97113921 37.875 30.8125 C38.07564429 34.32377504 36.51084316 36.85744624 35 40 C33.68 39.34 32.36 38.68 31 38 C31.04125 36.88625 31.0825 35.7725 31.125 34.625 C31.41121859 30.95633975 31.41121859 30.95633975 29 29 C22.66799566 27.9873057 17.04306332 28.46640547 11.77734375 32.24609375 C8.35466511 35.62363817 6.23554481 39.78478599 4 44 C2.08734035 47.5541213 0.9335653 49.67611 -3.0625 51.0625 C-6 51 -6 51 -7.51953125 49.94140625 C-9.6236643 47.18216054 -10.58145096 44.14076562 -11.625 40.875 C-11.84373779 40.20718506 -12.06247559 39.53937012 -12.2878418 38.85131836 C-13.86571348 33.85683818 -14.72554877 29.21457328 -15 24 C-13.68 23.67 -12.36 23.34 -11 23 C-9.99572108 26.45710552 -8.9973056 29.91587697 -8 33.375 C-7.71382813 34.35984375 -7.42765625 35.3446875 -7.1328125 36.359375 C-6.86210938 37.30039062 -6.59140625 38.24140625 -6.3125 39.2109375 C-6.06113281 40.08024902 -5.80976562 40.94956055 -5.55078125 41.84521484 C-5 44 -5 44 -5 46 C0.01061759 41.853282 1.65889491 36.1812753 3 30 C3.4688925 20.77844742 2.20515324 13.87274582 -3.46484375 6.43359375 C-5.01535964 4.6587415 -5.01535964 4.6587415 -8 5 C-8.99 7.31 -9.98 9.62 -11 12 C-14 10 -14 10 -14.5625 7.6875 C-13.88000702 4.42670019 -12.50371415 2.93671791 -9.8515625 0.95703125 C-6.31789628 -0.8694418 -3.92957255 -0.63380202 0 0 Z " fill="#13374D" transform="translate(124,19)"/>
<path d="M0 0 C3.84788585 1.5676572 6.37632897 3.79329096 9 7 C9.6875 10 9.6875 10 9 13 C4.74177624 17.25822376 1.40500778 19.13050538 -4.5625 19.3125 C-11.00382296 19.25591444 -17.00391258 17.32293334 -22.12109375 13.35546875 C-23.97793166 11.71971844 -23.97793166 11.71971844 -26.6875 12.125 C-29.30191084 12.81559909 -31.76784068 13.60449271 -34.3125 14.5 C-38.26897744 15.88141416 -41.98229072 16.48016968 -46.15234375 16.7890625 C-48.09305135 16.90366143 -48.09305135 16.90366143 -50 18 C-49.505 16.515 -49.505 16.515 -49 15 C-46.36 15 -43.72 15 -41 15 C-40.67 13.02 -40.34 11.04 -40 9 C-39.25234375 8.74605469 -38.5046875 8.49210938 -37.734375 8.23046875 C-36.74953125 7.88628906 -35.7646875 7.54210937 -34.75 7.1875 C-33.77546875 6.85105469 -32.8009375 6.51460937 -31.796875 6.16796875 C-28.97375348 5.13416945 -28.97375348 5.13416945 -26.828125 3.30078125 C-26.22484375 2.87152344 -25.6215625 2.44226563 -25 2 C-24.01 2.33 -23.02 2.66 -22 3 C-20.37066846 3.01560763 -18.74026903 2.96765104 -17.11328125 2.87890625 C-15.7065918 2.80639648 -15.7065918 2.80639648 -14.27148438 2.73242188 C-13.29501953 2.67634766 -12.31855469 2.62027344 -11.3125 2.5625 C-10.32443359 2.51029297 -9.33636719 2.45808594 -8.31835938 2.40429688 C-5.87858324 2.27464694 -3.43921895 2.13968258 -1 2 C-0.67 1.34 -0.34 0.68 0 0 Z " fill="#123449" transform="translate(151,142)"/>
<path d="M0 0 C3.56385489 0.55540596 4.96213883 1.64638212 7.125 4.5 C11.60076 10.82935757 12.92699302 18.31308867 12 26 C10.71527348 32.02977481 8.91740517 37.19801947 5 42 C4.34 42 3.68 42 3 42 C2.18177267 39.62683882 1.37031293 37.2517058 0.5625 34.875 C0.33240234 34.20984375 0.10230469 33.5446875 -0.13476562 32.859375 C-2.38155317 26.21669878 -3.19754972 19.95928144 -3.25 12.9375 C-3.270625 12.24333984 -3.29125 11.54917969 -3.3125 10.83398438 C-3.3465742 6.34896755 -2.67417217 3.61013242 0 0 Z " fill="#F67699" transform="translate(116,23)"/>
<path d="M0 0 C0.95003906 -0.01675781 1.90007812 -0.03351562 2.87890625 -0.05078125 C5.4375 0.3125 5.4375 0.3125 7.26953125 1.65625 C8.4375 3.3125 8.4375 3.3125 8.5625 6.125 C6.3198531 12.4791662 0.43118406 15.48248622 -5.3203125 18.375 C-7.43705867 19.36632088 -9.5596303 20.3452865 -11.6875 21.3125 C-12.75871094 21.82683594 -13.82992187 22.34117188 -14.93359375 22.87109375 C-15.96871094 23.34675781 -17.00382813 23.82242188 -18.0703125 24.3125 C-19.47240967 24.9621875 -19.47240967 24.9621875 -20.90283203 25.625 C-24.17351206 26.47044106 -25.61895016 25.84791744 -28.5625 24.3125 C-27.5725 23.6525 -26.5825 22.9925 -25.5625 22.3125 C-22.35911102 19.46435066 -20.56973002 16.70858148 -18.6875 12.875 C-14.55942387 5.05667399 -9.18180146 0.03747674 0 0 Z " fill="#51B7C6" transform="translate(147.5625,46.6875)"/>
<path d="M0 0 C0.495 0.33 0.99 0.66 1.5 1 C2 3.5625 2 3.5625 1.5 7 C-3.81612431 13.75409236 -11.49251778 16.79820427 -19.625 18.75 C-23.27119103 19.06706009 -26.84026175 19.06309894 -30.5 19 C-30.80721993 15.4997073 -30.89508297 13.59408772 -28.91796875 10.62109375 C-21.29659376 3.15988776 -11.10078094 -4.44031238 0 0 Z " fill="#4FB7C6" transform="translate(158.5,123)"/>
<path d="M0 0 C4.89935404 2.08040511 6.67929255 5.35858509 9 10 C13.62431341 21.68447916 15.23935467 36.96875882 11 49 C9.0625 52.0625 9.0625 52.0625 7 54 C6.01 54 5.02 54 4 54 C4.4247279 51.4516326 4.81339333 49.34028275 6.0625 47.0625 C7.3119181 44.31378018 7.13551557 41.98134247 7 39 C6.34773438 39.34933594 5.69546875 39.69867188 5.0234375 40.05859375 C-5.65198238 45.61674009 -5.65198238 45.61674009 -11.375 44.5625 C-12.179375 44.2840625 -12.179375 44.2840625 -13 44 C-13.66 45.32 -14.32 46.64 -15 48 C-16.32 48 -17.64 48 -19 48 C-19 48.99 -19 49.98 -19 51 C-20.32 51 -21.64 51 -23 51 C-22.76103074 47.77391501 -21.82764519 46.82978292 -19.48046875 44.51171875 C-15.21803829 41.07118339 -10.41987977 40.19960255 -5.18945312 38.97265625 C-0.22528863 37.69072597 2.87329413 36.32042885 6 32 C7.87887075 23.00451267 5.9737225 15.28583919 1.60546875 7.390625 C0.20829438 5.31016098 -1.14562135 3.6706114 -3 2 C-2.01 1.34 -1.02 0.68 0 0 Z " fill="#1B374A" transform="translate(56,46)"/>
<path d="M0 0 C0.66 0.33 1.32 0.66 2 1 C0.38405168 3.04119788 -1.2856382 5.04072937 -3 7 C-3.66 7 -4.32 7 -5 7 C-4.773125 8.03125 -4.54625 9.0625 -4.3125 10.125 C-3.95386267 14.57210287 -4.84755568 16.19182928 -7 20 C-9.79431195 29.14502092 -7.85029196 38.47033862 -4 47 C-3.34 47.33 -2.68 47.66 -2 48 C-1.67 47.34 -1.34 46.68 -1 46 C-0.01 46.33 0.98 46.66 2 47 C2.33 46.01 2.66 45.02 3 44 C4.32 44.66 5.64 45.32 7 46 C5.92807816 47.3218362 4.84197305 48.63217927 3.75 49.9375 C3.14671875 50.66839844 2.5434375 51.39929688 1.921875 52.15234375 C-0.13045584 54.12541791 -1.184371 54.77108707 -4 55 C-9.6325264 51.76129732 -11.83113915 46.67625591 -13.7265625 40.71484375 C-16.31548894 30.10024536 -15.05385465 20.31308407 -9.83203125 10.74609375 C-7.06516004 6.59873669 -3.76371224 3.24787351 0 0 Z " fill="#233F4A" transform="translate(34,49)"/>
<path d="M0 0 C0.22640279 3.7733798 0.36959849 6.30901151 -1.4375 9.6875 C-3.36681834 13.77765488 -3.77550129 17.41483043 -4.1875 21.875 C-4.26935547 22.65875 -4.35121094 23.4425 -4.43554688 24.25 C-4.63411675 26.16561529 -4.81851747 28.08269042 -5 30 C-5.33 30 -5.66 30 -6 30 C-6.12375 29.195625 -6.2475 28.39125 -6.375 27.5625 C-6.58125 26.716875 -6.7875 25.87125 -7 25 C-7.66 24.67 -8.32 24.34 -9 24 C-9 30.6 -9 37.2 -9 44 C-9.33 44 -9.66 44 -10 44 C-11.32607729 38.97985026 -11.1470587 33.96320636 -11.125 28.8125 C-11.12886719 27.89791016 -11.13273437 26.98332031 -11.13671875 26.04101562 C-11.13542969 25.16767578 -11.13414063 24.29433594 -11.1328125 23.39453125 C-11.13168457 22.59893799 -11.13055664 21.80334473 -11.12939453 20.98364258 C-11 19 -11 19 -10 17 C-11.2684375 16.938125 -11.2684375 16.938125 -12.5625 16.875 C-17.13571949 15.71090777 -19.66547105 13.22600877 -23 10 C-22.67 8.68 -22.34 7.36 -22 6 C-18.98968256 5.06576355 -18.13349732 4.95550089 -15 6 C-12.32505153 5.31597465 -12.32505153 5.31597465 -9.5 4.1875 C-8.06140625 3.65189453 -8.06140625 3.65189453 -6.59375 3.10546875 C-4.5045962 2.21506133 -2.16982024 0 0 0 Z " fill="#233D4F" transform="translate(64,84)"/>
<path d="M0 0 C1 1 2 2 3 3 C3.515625 3.433125 4.03125 3.86625 4.5625 4.3125 C8.10546877 8.47163725 8.43446959 13.68621087 8.328125 18.94140625 C8 21 8 21 6.125 23.5625 C4 25 4 25 2 25 C2 24.01 2 23.02 2 22 C0.515 21.690625 0.515 21.690625 -1 21.375 C-5.71718213 20.05341728 -9.37610552 17.22856054 -13 14 C-13 13.67 -13 13.34 -13 13 C-10.69 13 -8.38 13 -6 13 C-6.33 11.35 -6.66 9.7 -7 8 C-5.02 7.67 -3.04 7.34 -1 7 C-0.67 4.69 -0.34 2.38 0 0 Z " fill="#103048" transform="translate(116,119)"/>
<path d="M0 0 C6.81373311 3.22150233 11.47149936 7.43266557 15.70703125 13.671875 C16.10535156 14.23197266 16.50367188 14.79207031 16.9140625 15.36914062 C19.15029091 18.61735714 20.51570978 21.29925858 20.95703125 25.234375 C19.45143586 23.27055493 18.06571442 21.45174134 16.95703125 19.234375 C15.96703125 19.234375 14.97703125 19.234375 13.95703125 19.234375 C12.4140625 17.44140625 12.4140625 17.44140625 10.76953125 15.046875 C6.91125993 9.91869047 3.09215409 5.99862212 -3.41015625 4.796875 C-6.99471446 4.6088326 -9.33304128 4.83390309 -12.48046875 6.609375 C-14.83104071 10.5583359 -15.3892322 14.72703355 -16.04296875 19.234375 C-17.36296875 19.234375 -18.68296875 19.234375 -20.04296875 19.234375 C-20.39343866 14.30832565 -20.58493904 10.40503083 -18.48046875 5.859375 C-13.36844823 0.35412213 -7.61028302 -2.85203723 0 0 Z " fill="#122B42" transform="translate(100.04296875,100.765625)"/>
<path d="M0 0 C-0.33 1.32 -0.66 2.64 -1 4 C-0.01 4.33 0.98 4.66 2 5 C-4.435 6.98 -4.435 6.98 -11 9 C-6.545 11.475 -6.545 11.475 -2 14 C-2.99 14.33 -3.98 14.66 -5 15 C-5 15.66 -5 16.32 -5 17 C-5.66 17 -6.32 17 -7 17 C-7 16.34 -7 15.68 -7 15 C-8.258125 14.855625 -9.51625 14.71125 -10.8125 14.5625 C-13.42667123 14.26251314 -15.47439892 13.84186703 -18 13 C-18 14.98 -18 16.96 -18 19 C-18.78375 18.979375 -19.5675 18.95875 -20.375 18.9375 C-22.98114961 18.81315937 -22.98114961 18.81315937 -25 20 C-24.87976749 16.08857893 -24.44796524 12.65264636 -23 9 C-19.83533952 6.36253784 -16.3650234 5.14764349 -12.5 3.8125 C-11.52417969 3.43287109 -10.54835937 3.05324219 -9.54296875 2.66210938 C-2.58201006 0 -2.58201006 0 0 0 Z " fill="#0F334A" transform="translate(144,64)"/>
<path d="M0 0 C3.04263267 -0.10845027 6.08136204 -0.18752063 9.125 -0.25 C9.9809375 -0.28351563 10.836875 -0.31703125 11.71875 -0.3515625 C17.47501553 -0.44012043 20.6150038 0.1771828 25 4 C25.875 6.25 25.875 6.25 26 8 C21.37702498 10.62812964 17.20875646 10.74940798 12 10 C7.53119445 8.32575391 3.39407601 6.39407601 0 3 C0 2.01 0 1.02 0 0 Z " fill="#F7D21B" transform="translate(128,145)"/>
<path d="M0 0 C2.59340124 2.59340124 2.73782174 4.55436056 3.5 8.125 C3.75394531 9.28644531 4.00789063 10.44789062 4.26953125 11.64453125 C4.51058594 12.75183594 4.75164062 13.85914063 5 15 C5.64539847 17.67266239 6.32085632 20.33566711 7 23 C10.33557632 20.0094833 12.15083921 17.06815373 14 13 C14.33 13.99 14.66 14.98 15 16 C15.66 16 16.32 16 17 16 C17.33 15.01 17.66 14.02 18 13 C18.33 13.66 18.66 14.32 19 15 C17.890625 17.53125 17.890625 17.53125 16.25 20.5 C15.71890625 21.4796875 15.1878125 22.459375 14.640625 23.46875 C13 26 13 26 10 28 C7.0625 28.25 7.0625 28.25 4 27 C0.16606503 20.85292426 -3.64970128 9.9444799 -2.69921875 2.7109375 C-2 1 -2 1 0 0 Z " fill="#0F2B43" transform="translate(112,42)"/>
<path d="M0 0 C7.75 0.875 7.75 0.875 10 2 C10 2.66 10 3.32 10 4 C10.66 4 11.32 4 12 4 C11.67 4.99 11.34 5.98 11 7 C9.02 7 7.04 7 5 7 C5.33 8.65 5.66 10.3 6 12 C2.7 12 -0.6 12 -4 12 C-4.66 13.65 -5.32 15.3 -6 17 C-9.02990095 15.28032649 -11.76327296 13.70761694 -14 11 C-14 10.34 -14 9.68 -14 9 C-12.35 8.67 -10.7 8.34 -9 8 C-9 6.68 -9 5.36 -9 4 C-7.35 4 -5.7 4 -4 4 C-3.67 4.99 -3.34 5.98 -3 7 C-2.01 7 -1.02 7 0 7 C0 4.69 0 2.38 0 0 Z " fill="#F9CC1D" transform="translate(104,120)"/>
<path d="M0 0 C4.43357093 0.79170909 5.84171883 2.02850194 8.5 5.625 C9.3125 8.9375 9.3125 8.9375 9.5 11.625 C8.18 11.955 6.86 12.285 5.5 12.625 C4.51 11.305 3.52 9.985 2.5 8.625 C-0.74208567 8.97549575 -2.11527704 9.18721181 -4.3125 11.6875 C-4.9003125 12.6465625 -4.9003125 12.6465625 -5.5 13.625 C-6.82 13.295 -8.14 12.965 -9.5 12.625 C-9.25554295 8.46923007 -8.84064564 6.09589251 -6.375 2.6875 C-3.5 0.625 -3.5 0.625 0 0 Z " fill="#142E46" transform="translate(83.5,58.375)"/>
<path d="M0 0 C2.34074406 2.41876886 3.80622954 4.60901689 4 8 C3.16985857 10.4481241 2.12459387 12.66084474 1 15 C-0.32 14.34 -1.64 13.68 -3 13 C-2.95875 11.88625 -2.9175 10.7725 -2.875 9.625 C-2.58878141 5.95633975 -2.58878141 5.95633975 -5 4 C-7.65537372 3.43479997 -10.29144713 3.26211802 -13 3 C-13.33 1.68 -13.66 0.36 -14 -1 C-14.99 -1 -15.98 -1 -17 -1 C-17 -0.34 -17 0.32 -17 1 C-19.31 1.33 -21.62 1.66 -24 2 C-16.6305434 -4.23569404 -8.36798332 -4.50583717 0 0 Z " fill="#1A4557" transform="translate(158,44)"/>
<path d="M0 0 C0.474375 0.45375 0.94875 0.9075 1.4375 1.375 C1.1075 3.025 0.7775 4.675 0.4375 6.375 C-7.95035271 7.21007383 -14.04891103 4.98978507 -21.5625 1.375 C-14.48676299 -4.10152992 -7.70964098 -4.88904062 0 0 Z " fill="#F4D11F" transform="translate(152.5625,72.625)"/>
<path d="M0 0 C2.9375 1.0625 2.9375 1.0625 6 3 C7.0625 6.5 7.0625 6.5 7 10 C5.59971831 12.2109711 4.52611897 12.78955241 2.125 13.75 C0 14 0 14 -2.375 13.375 C-5.14321263 12.71913971 -5.14321263 12.71913971 -7.875 14.5 C-11.72741477 16.34915909 -13.89909964 15.90219808 -18 15 C-15.92989732 11.89484598 -15.23688458 11.42803731 -12 10 C-11.401875 9.62875 -10.80375 9.2575 -10.1875 8.875 C-7.06801606 7.62720642 -4.32317392 7.81537923 -1 8 C-0.34 8.33 0.32 8.66 1 9 C1 8.01 1 7.02 1 6 C0.34 5.67 -0.32 5.34 -1 5 C-0.34 5 0.32 5 1 5 C0.67 3.35 0.34 1.7 0 0 Z " fill="#2A4550" transform="translate(102,161)"/>
<path d="M0 0 C0.598125 0.165 1.19625 0.33 1.8125 0.5 C4.11344336 1.1114124 4.11344336 1.1114124 7 1 C15.80489198 7.72100496 20.57939663 16.93989055 23.875 27.25 C24.09051514 27.92353516 24.30603027 28.59707031 24.52807617 29.29101562 C25.72322555 33.29697011 26.2202987 36.82728344 26 41 C25.34 39.68 24.68 38.36 24 37 C23.34 37 22.68 37 22 37 C21.92523438 36.41734375 21.85046875 35.8346875 21.7734375 35.234375 C19.81577113 23.0277494 13.63810307 11.0194412 3.625 3.5625 C2.93664062 3.08941406 2.24828125 2.61632812 1.5390625 2.12890625 C1.03117187 1.75636719 0.52328125 1.38382812 0 1 C0 0.67 0 0.34 0 0 Z " fill="#EC80A2" transform="translate(102,101)"/>
<path d="M0 0 C3.84788585 1.5676572 6.37632897 3.79329096 9 7 C9.6875 10 9.6875 10 9 13 C4.55990623 17.44009377 1.25909203 19.14090908 -4.9375 19.1875 C-5.79214844 19.20167969 -6.64679688 19.21585938 -7.52734375 19.23046875 C-10 19 -10 19 -14 17 C-10.04 16.67 -6.08 16.34 -2 16 C-1.67 14.68 -1.34 13.36 -1 12 C-0.01 11.67 0.98 11.34 2 11 C1.65120368 7.74456771 0.97866739 6.98126893 -1.5625 4.75 C-2.366875 4.1725 -3.17125 3.595 -4 3 C-3.01 2.67 -2.02 2.34 -1 2 C-0.67 1.34 -0.34 0.68 0 0 Z " fill="#254450" transform="translate(151,142)"/>
<path d="M0 0 C3.03264139 1.42026418 5.6527313 3.11870463 8.375 5.0625 C11.91529249 7.4675582 14.63229941 8.77601535 19 9 C18.625 10.9375 18.625 10.9375 18 13 C13.74077377 15.12961311 8.05500104 14.56644259 3.5625 13.328125 C1.68267739 12.61647787 -0.16322181 11.81634586 -2 11 C-2 10.01 -2 9.02 -2 8 C1.3 8.33 4.6 8.66 8 9 C5.03 6.69 2.06 4.38 -1 2 C-0.67 1.34 -0.34 0.68 0 0 Z " fill="#0D2D45" transform="translate(100,131)"/>
<path d="M0 0 C0.33 0 0.66 0 1 0 C1.33074549 3.63820044 1.48805542 5.3773086 -0.8125 8.3125 C-5.15981448 11.6661426 -9.7454441 11.45592224 -15 11 C-18.10164191 10.2823189 -21.02601613 9.25270111 -24 8.125 C-24.76183594 7.85558594 -25.52367187 7.58617188 -26.30859375 7.30859375 C-31.85999693 5.28000613 -31.85999693 5.28000613 -33 3 C-29.37 3.66 -25.74 4.32 -22 5 C-22 5.66 -22 6.32 -22 7 C-21.34 7 -20.68 7 -20 7 C-20 6.34 -20 5.68 -20 5 C-15.90352234 3.46382088 -12.21176063 4.30954744 -8 5 C-7.67 5.33 -7.34 5.66 -7 6 C-6.21625 5.649375 -5.4325 5.29875 -4.625 4.9375 C-3.75875 4.628125 -2.8925 4.31875 -2 4 C-1.34 4.33 -0.68 4.66 0 5 C0 3.35 0 1.7 0 0 Z " fill="#1F4450" transform="translate(159,74)"/>
<path d="M0 0 C5.75877971 2.40153367 7.94941074 7.54862507 10.3125 13.0625 C11.10585922 16.45230758 11.13878059 19.53048533 11 23 C10.67 23 10.34 23 10 23 C9.67 25.31 9.34 27.62 9 30 C8.67 30 8.34 30 8 30 C7.84144531 28.94941406 7.68289062 27.89882812 7.51953125 26.81640625 C5.97551406 17.28323538 4.29988308 8.89669186 -3 2 C-2.01 1.34 -1.02 0.68 0 0 Z " fill="#153048" transform="translate(56,46)"/>
<path d="M0 0 C0.21360826 3.63134037 0.17791933 6.47736198 -1 9.9375 C-3 12 -3 12 -6.8125 12.5625 C-11.19435869 12.31141383 -13.6214905 10.7028076 -17 8 C-14.62096609 5.62096609 -12.73375141 5.07814125 -9.5625 4 C-6.94175017 3.10664187 -2.4088697 0 0 0 Z " fill="#EACC20" transform="translate(64,84)"/>
<path d="M0 0 C0.66 0.33 1.32 0.66 2 1 C0.38405168 3.04119788 -1.2856382 5.04072937 -3 7 C-3.66 7 -4.32 7 -5 7 C-4.7525 8.0725 -4.505 9.145 -4.25 10.25 C-4 14 -4 14 -5.75 16.25 C-6.4925 16.8275 -7.235 17.405 -8 18 C-8.53625 18.5775 -9.0725 19.155 -9.625 19.75 C-11 21 -11 21 -13 21 C-13 26.94 -13 32.88 -13 39 C-13.33 39 -13.66 39 -14 39 C-15.47472286 27.40150398 -15.01954325 17.7367858 -8 8 C-5.46376256 5.18143558 -2.80268939 2.55232508 0 0 Z " fill="#3A4D4A" transform="translate(34,49)"/>
<path d="M0 0 C0 0.99 0 1.98 0 3 C-0.33 3.33 -0.66 3.66 -1 4 C0.65 4.66 2.3 5.32 4 6 C-3.75844589 10.03294507 -11.3042338 12.30985983 -20 13 C-20.99 13.495 -20.99 13.495 -22 14 C-21.67 13.01 -21.34 12.02 -21 11 C-18.36 11 -15.72 11 -13 11 C-12.67 9.02 -12.34 7.04 -12 5 C-10.82630859 4.58427734 -10.82630859 4.58427734 -9.62890625 4.16015625 C-8.61699219 3.79792969 -7.60507813 3.43570313 -6.5625 3.0625 C-5.04849609 2.52302734 -5.04849609 2.52302734 -3.50390625 1.97265625 C-1.09686255 1.23122361 -1.09686255 1.23122361 0 0 Z " fill="#223C4D" transform="translate(123,146)"/>
<path d="M0 0 C2 2 2 2 2.9375 4.5 C3.8583474 7.30191747 3.8583474 7.30191747 7 9 C7 9.99 7 10.98 7 12 C6.39671875 11.97679687 5.7934375 11.95359375 5.171875 11.9296875 C4.37265625 11.91164062 3.5734375 11.89359375 2.75 11.875 C1.56664063 11.84019531 1.56664063 11.84019531 0.359375 11.8046875 C-2.23271129 12.01926418 -3.70587195 12.83458295 -6 14 C-7.32 14 -8.64 14 -10 14 C-9.67 12.68 -9.34 11.36 -9 10 C-10.32 10 -11.64 10 -13 10 C-13 9.34 -13 8.68 -13 8 C-6.565 7.505 -6.565 7.505 0 7 C0 4.69 0 2.38 0 0 Z " fill="#E9AF21" transform="translate(96,158)"/>
<path d="M0 0 C0.33 0.66 0.66 1.32 1 2 C-2.465 3.485 -2.465 3.485 -6 5 C-6 6.32 -6 7.64 -6 9 C-7.609375 10.5546875 -7.609375 10.5546875 -9.75 11.875 C-10.44609375 12.32617188 -11.1421875 12.77734375 -11.859375 13.2421875 C-14 14 -14 14 -16.140625 13.1953125 C-16.75421875 12.80085937 -17.3678125 12.40640625 -18 12 C-18.66 11.67 -19.32 11.34 -20 11 C-19.67 9.68 -19.34 8.36 -19 7 C-18.67 7.66 -18.34 8.32 -18 9 C-17.45472656 8.60167969 -16.90945312 8.20335938 -16.34765625 7.79296875 C-11.09145613 4.10015123 -6.20190325 1.67143492 0 0 Z " fill="#204556" transform="translate(149,116)"/>
<path d="M0 0 C0 0.66 0 1.32 0 2 C0.99 2.33 1.98 2.66 3 3 C2.21625 3.4125 1.4325 3.825 0.625 4.25 C-2.21620267 6.14413511 -2.96681141 6.81433518 -4 10 C-4.44022559 12.66694805 -4.73068728 15.30687282 -5 18 C-6.32 18 -7.64 18 -9 18 C-9.36308044 12.89670273 -9.58277658 9.12536167 -7.1875 4.5 C-3.25 0 -3.25 0 0 0 Z " fill="#0C2940" transform="translate(89,102)"/>
<path d="M0 0 C3.56720996 2.67540747 6.41126424 5.35659412 9 9 C9 9.66 9 10.32 9 11 C4.00330638 11.40295916 1.62017271 10.54388264 -2.375 7.5625 C-3.24898438 6.92441406 -4.12296875 6.28632813 -5.0234375 5.62890625 C-5.67570312 5.09136719 -6.32796875 4.55382812 -7 4 C-7 3.67 -7 3.34 -7 3 C-4.69 3 -2.38 3 0 3 C0 2.01 0 1.02 0 0 Z " fill="#4BB2BE" transform="translate(110,129)"/>
<path d="M0 0 C0.99 0.33 1.98 0.66 3 1 C3.04254356 2.99954746 3.04080783 5.00041636 3 7 C1.03177114 8.96822886 -2.34808709 8.66248381 -5 9 C-4.01 9 -3.02 9 -2 9 C-2 9.66 -2 10.32 -2 11 C-5.81489674 12.46726798 -8.29011622 11.43336419 -12 10 C-11.8125 8.09765625 -11.8125 8.09765625 -11 6 C-8.75 5.05859375 -8.75 5.05859375 -6 4.4375 C-3.30400956 3.87876704 -3.30400956 3.87876704 -1 3 C-0.67 2.01 -0.34 1.02 0 0 Z " fill="#0E3047" transform="translate(80,154)"/>
<path d="M0 0 C1.58108248 4.08090208 0.54413377 7.97620767 -0.25 12.125 C-0.37246094 12.85332031 -0.49492187 13.58164063 -0.62109375 14.33203125 C-0.97793646 16.24343625 -1.48107246 18.12609499 -2 20 C-2.99 20.66 -3.98 21.32 -5 22 C-5 16.39 -5 10.78 -5 5 C-4.34 5 -3.68 5 -3 5 C-2.67 4.01 -2.34 3.02 -2 2 C-1.34 2 -0.68 2 0 2 C0 1.34 0 0.68 0 0 Z " fill="#0A304B" transform="translate(26,65)"/>
<path d="M0 0 C2.66570809 2.59555787 3.825604 4.476812 5 8 C4.34 8 3.68 8 3 8 C2.34 6.68 1.68 5.36 1 4 C-8.34068007 3.29798647 -14.88062623 5.16415516 -22.0625 11.25 C-23.05151293 12.15603452 -24.03464992 13.06879414 -25 14 C-22.3641434 7.94285479 -17.00346203 3.54564235 -10.9375 1.0625 C-7.18841741 -0.10862796 -3.92874941 -0.60442299 0 0 Z " fill="#F2DC35" transform="translate(55,49)"/>
<path d="M0 0 C0.99 0 1.98 0 3 0 C3.5 3.1875 3.5 3.1875 3 7 C-0.17266576 10.11863009 -3.58901412 11.8530223 -8 12.3125 C-8.99 12.1578125 -8.99 12.1578125 -10 12 C-10 11.34 -10 10.68 -10 10 C-8.68 9.67 -7.36 9.34 -6 9 C-6 8.34 -6 7.68 -6 7 C-7.98 7.33 -9.96 7.66 -12 8 C-11.67 7.34 -11.34 6.68 -11 6 C-8.93359375 5.5859375 -8.93359375 5.5859375 -6.4375 5.375 C-5.61121094 5.30023438 -4.78492187 5.22546875 -3.93359375 5.1484375 C-2.97646484 5.07496094 -2.97646484 5.07496094 -2 5 C-1.34 3.35 -0.68 1.7 0 0 Z " fill="#E1B32B" transform="translate(84,156)"/>
<path d="M0 0 C0.66 0.99 1.32 1.98 2 3 C4.05003955 4.19232613 4.05003955 4.19232613 6 5 C6 5.99 6 6.98 6 8 C7.32 8 8.64 8 10 8 C10 8.66 10 9.32 10 10 C11.32 10.66 12.64 11.32 14 12 C6.9840529 13.57253987 6.9840529 13.57253987 2.5625 11 C-0.40220773 7.52912266 -0.91318256 5.51450685 -1 1 C-0.67 0.67 -0.34 0.34 0 0 Z " fill="#1E3D4F" transform="translate(68,160)"/>
<path d="M0 0 C2.9375 1.0625 2.9375 1.0625 6 3 C7.0625 6.5 7.0625 6.5 7 10 C5.58577508 12.23298671 4.47232291 12.8019291 2.0625 13.8125 C-0.52279544 14.04752686 -1.8128711 13.32789969 -4 12 C-2.02 11.67 -0.04 11.34 2 11 C1.65555119 8.52733235 1.65555119 8.52733235 1 6 C0.34 5.67 -0.32 5.34 -1 5 C-0.34 5 0.32 5 1 5 C0.67 3.35 0.34 1.7 0 0 Z " fill="#2E464E" transform="translate(102,161)"/>
<path d="M0 0 C0.495 0.33 0.99 0.66 1.5 1 C1.5 2.65 1.5 4.3 1.5 6 C1.17 5.01 0.84 4.02 0.5 3 C-6.74997422 2.71692075 -13.40961228 3.49025965 -20.5 5 C-15.13937681 -0.74697441 -7.45601754 -2.98240702 0 0 Z " fill="#62CDD9" transform="translate(158.5,123)"/>
<path d="M0 0 C3.63 0.66 7.26 1.32 11 2 C11 2.66 11 3.32 11 4 C11.66 4 12.32 4 13 4 C13 3.34 13 2.68 13 2 C17.08443115 0.46833832 20.79455657 1.36918348 25 2 C25 2.33 25 2.66 25 3 C23.35 3 21.7 3 20 3 C20 3.66 20 4.32 20 5 C16.65767532 6.86251681 15.27767069 7.06540687 11.484375 6.171875 C10.25203125 5.70265625 9.0196875 5.2334375 7.75 4.75 C7.11320313 4.51925781 6.47640625 4.28851563 5.8203125 4.05078125 C1.14504833 2.29009666 1.14504833 2.29009666 0 0 Z " fill="#344E54" transform="translate(126,77)"/>
<path d="M0 0 C0.7734375 0.495 0.7734375 0.495 1.5625 1 C0.125 2.5625 0.125 2.5625 -2.4375 4 C-5.49130927 3.96846324 -8.43403222 3.53266629 -11.4375 3 C-11.7675 2.01 -12.0975 1.02 -12.4375 0 C-8.17949462 -1.41933513 -4.20838462 -1.72651677 0 0 Z " fill="#23324A" transform="translate(100.4375,101)"/>
<path d="M0 0 C0.66 0.66 1.32 1.32 2 2 C2.66 1.34 3.32 0.68 4 0 C4 3.96 4 7.92 4 12 C3.34 12 2.68 12 2 12 C1.67 13.32 1.34 14.64 1 16 C-0.50156874 12.99686252 -0.09281204 10.20932478 -0.0625 6.875 C-0.05347656 5.59367187 -0.04445312 4.31234375 -0.03515625 2.9921875 C-0.02355469 2.00476563 -0.01195312 1.01734375 0 0 Z " fill="#043148" transform="translate(54,106)"/>
<path d="M0 0 C0.66 0.33 1.32 0.66 2 1 C3.1577506 4.47325181 3.06866652 7.36067448 3 11 C2.67 11 2.34 11 2 11 C1.67 13.31 1.34 15.62 1 18 C0.67 18 0.34 18 0 18 C-0.66 12.72 -1.32 7.44 -2 2 C-1.34 2 -0.68 2 0 2 C0 1.34 0 0.68 0 0 Z " fill="#102948" transform="translate(64,58)"/>
<path d="M0 0 C-1.09068668 3.77545388 -1.9083091 6.47043472 -5 9 C-5 7.68 -5 6.36 -5 5 C-6.98 5.99 -6.98 5.99 -9 7 C-8.38722388 4.03824877 -7.74627478 2.61941217 -6 0 C-3.50907189 -1.24546405 -2.58919267 -0.7767578 0 0 Z " fill="#233E53" transform="translate(125,83)"/>
<path d="M0 0 C0.99 0.66 1.98 1.32 3 2 C2.34 2.66 1.68 3.32 1 4 C0.54025497 5.92901141 0.54025497 5.92901141 0.3671875 8.1328125 C0.24150391 9.34130859 0.24150391 9.34130859 0.11328125 10.57421875 C0.03464844 11.41597656 -0.04398438 12.25773437 -0.125 13.125 C-0.21136719 13.97449219 -0.29773438 14.82398437 -0.38671875 15.69921875 C-0.59902557 17.79869727 -0.80053603 19.89926242 -1 22 C-3.4399019 19.5600981 -3.29657409 18.85505859 -3.3125 15.5 C-3.22407098 9.98524486 -1.845823 5.16390958 0 0 Z " fill="#DDD33A" transform="translate(28,64)"/>
<path d="M0 0 C0.33 0.66 0.66 1.32 1 2 C-0.6396875 2.4021875 -0.6396875 2.4021875 -2.3125 2.8125 C-5.73166327 3.91358648 -6.77591981 4.42474926 -9 7 C-9.66 7 -10.32 7 -11 7 C-11 8.98 -11 10.96 -11 13 C-11.66 13 -12.32 13 -13 13 C-12.58634898 7.72594947 -11.71026864 4.82270102 -8 1 C-5.29120665 -0.35439668 -2.99066732 -0.06501451 0 0 Z " fill="#354A5C" transform="translate(121,17)"/>
<path d="M0 0 C1.5625 1.125 1.5625 1.125 3 3 C2.86594685 6.21727571 2.54294069 8.25962633 0.625 10.875 C-1 12 -1 12 -4 12 C-3.33501617 7.61110675 -1.81242323 4.0188515 0 0 Z " fill="#092845" transform="translate(64,88)"/>
<path d="M0 0 C3.48354375 5.22531563 4.30934332 10.8131337 4 17 C3.34 15.68 2.68 14.36 2 13 C1.34 13 0.68 13 0 13 C-0.38885039 11.21128822 -0.76069196 9.41887126 -1.125 7.625 C-1.33382812 6.62726563 -1.54265625 5.62953125 -1.7578125 4.6015625 C-1.83773437 3.74304688 -1.91765625 2.88453125 -2 2 C-1.34 1.34 -0.68 0.68 0 0 Z " fill="#E07B9B" transform="translate(124,125)"/>
<path d="M0 0 C3.33773709 3.64116773 3.97864902 7.28607242 5 12 C4.34 12 3.68 12 3 12 C1.2734375 10.25 1.2734375 10.25 -0.625 8 C-1.25664063 7.2575 -1.88828125 6.515 -2.5390625 5.75 C-3.02117187 5.1725 -3.50328125 4.595 -4 4 C-2.68 2.68 -1.36 1.36 0 0 Z " fill="#4EB5BE" transform="translate(116,124)"/>
<path d="M0 0 C0.99 0 1.98 0 3 0 C3.33 1.32 3.66 2.64 4 4 C0 6 -4 8 -8 10 C-6.83242263 6.67689517 -5.85051143 4.16638868 -3 2 C-2.01 2 -1.02 2 0 2 C0 1.34 0 0.68 0 0 Z " fill="#063247" transform="translate(141,43)"/>
<path d="M0 0 C2.97 0.33 5.94 0.66 9 1 C9.33 1.99 9.66 2.98 10 4 C8.37675914 4.22162329 6.751279 4.42689803 5.125 4.625 C3.76761719 4.79902344 3.76761719 4.79902344 2.3828125 4.9765625 C1.59648438 4.98429688 0.81015625 4.99203125 0 5 C-0.66 4.34 -1.32 3.68 -2 3 C-1.34 2.01 -0.68 1.02 0 0 Z " fill="#0E3149" transform="translate(95,169)"/>
<path d="M0 0 C3.98381075 2.16264012 6.88983545 4.71211176 10 8 C6.0507432 7.44894091 2.65079826 6.61064629 -1 5 C-0.67 3.35 -0.34 1.7 0 0 Z " fill="#50B1B3" transform="translate(99,133)"/>
<path d="M0 0 C-0.57492188 0.43054687 -1.14984375 0.86109375 -1.7421875 1.3046875 C-3.18742652 2.38986697 -4.63036281 3.47812424 -6.0703125 4.5703125 C-6.74835938 5.08335938 -7.42640625 5.59640625 -8.125 6.125 C-8.80820313 6.64320312 -9.49140625 7.16140625 -10.1953125 7.6953125 C-12 9 -12 9 -14 10 C-12.56314642 4.97101246 -10.05763331 3.04322498 -6 0 C-3.50907189 -1.24546405 -2.58919267 -0.7767578 0 0 Z " fill="#5EC7D3" transform="translate(144,49)"/>
<path d="M0 0 C4.08055151 0.50547372 5.66272295 2.50088882 8.25 5.5625 C8.95640625 6.38878906 9.6628125 7.21507812 10.390625 8.06640625 C10.92171875 8.70449219 11.4528125 9.34257812 12 10 C11.01 11.485 11.01 11.485 10 13 C9.44570312 12.28972656 8.89140625 11.57945312 8.3203125 10.84765625 C7.59585938 9.92855469 6.87140625 9.00945312 6.125 8.0625 C5.40570313 7.14597656 4.68640625 6.22945312 3.9453125 5.28515625 C2.20579164 2.93990515 2.20579164 2.93990515 0 2 C0 1.34 0 0.68 0 0 Z " fill="#082944" transform="translate(109,127)"/>
<path d="M0 0 C0.99 0.33 1.98 0.66 3 1 C3 2.65 3 4.3 3 6 C3.66 5.67 4.32 5.34 5 5 C5.33 4.01 5.66 3.02 6 2 C6.66 2 7.32 2 8 2 C8 3.98 8 5.96 8 8 C6.02 8 4.04 8 2 8 C2 7.34 2 6.68 2 6 C1.34 6 0.68 6 0 6 C0 4.02 0 2.04 0 0 Z " fill="#042A46" transform="translate(87,156)"/>
<path d="M0 0 C2.25 -0.25 2.25 -0.25 5 0 C7.3125 2 7.3125 2 9 4 C8.34 5.32 7.68 6.64 7 8 C5.8274869 7.04882866 4.66212985 6.08882991 3.5 5.125 C2.8503125 4.59132812 2.200625 4.05765625 1.53125 3.5078125 C1.0259375 3.01023438 0.520625 2.51265625 0 2 C0 1.34 0 0.68 0 0 Z " fill="#E8CF35" transform="translate(90,129)"/>
<path d="M0 0 C-2.10392865 2.10392865 -3.45989114 2.67961305 -6.1875 3.75 C-10.88850383 5.75819581 -14.34180919 8.47119858 -18 12 C-16.56394807 8.61181498 -14.79533421 6.6813402 -12 4.3125 C-11.29875 3.71050781 -10.5975 3.10851563 -9.875 2.48828125 C-6.50725944 -0.18486282 -4.23996254 -0.0921731 0 0 Z " fill="#F5E63F" transform="translate(48,51)"/>
<path d="M0 0 C-0.33 0.33 -0.66 0.66 -1 1 C-0.34 1.66 0.32 2.32 1 3 C-1.97 3.66 -4.94 4.32 -8 5 C-6.19780722 -0.02039417 -5.34443412 -1.60333024 0 0 Z " fill="#10354A" transform="translate(49,46)"/>
<path d="M0 0 C0.33 0 0.66 0 1 0 C1 2.31 1 4.62 1 7 C-2.63 7.33 -6.26 7.66 -10 8 C-10 7.01 -10 6.02 -10 5 C-8.68 4.67 -7.36 4.34 -6 4 C-6 4.66 -6 5.32 -6 6 C-4.68 6 -3.36 6 -2 6 C-1.34 4.02 -0.68 2.04 0 0 Z " fill="#303F46" transform="translate(95,158)"/>
<path d="M0 0 C0.99 0.33 1.98 0.66 3 1 C3 2.65 3 4.3 3 6 C1.68 6 0.36 6 -1 6 C-1.042721 4.33388095 -1.04063832 2.66617115 -1 1 C-0.67 0.67 -0.34 0.34 0 0 Z M-1 7 C-5.455 7.495 -5.455 7.495 -10 8 C-10 7.67 -10 7.34 -10 7 C-6.32431536 6.08107884 -4.83619425 6.04095144 -1 7 Z " fill="#07304B" transform="translate(156,73)"/>
<path d="M0 0 C9.59453303 1.74259681 9.59453303 1.74259681 13 5 C12.67 6.32 12.34 7.64 12 9 C11.38125 8.3503125 11.38125 8.3503125 10.75 7.6875 C7.44033459 4.49603692 4.33508283 2.56544658 0 1 C0 0.67 0 0.34 0 0 Z " fill="#E5D841" transform="translate(141,69)"/>
<path d="M0 0 C0.66 0.99 1.32 1.98 2 3 C0.35 4.65 -1.3 6.3 -3 8 C-3.99 7.34 -4.98 6.68 -6 6 C-6 5.34 -6 4.68 -6 4 C-5.01 3.67 -4.02 3.34 -3 3 C-1.33289654 1.50014391 -1.33289654 1.50014391 0 0 Z " fill="#0A344B" transform="translate(125,62)"/>
<path d="M0 0 C0.99 0 1.98 0 3 0 C4.25664978 2.90600261 5 4.79604584 5 8 C1.125 7.125 1.125 7.125 0 6 C-0.04080783 4.00041636 -0.04254356 1.99954746 0 0 Z " fill="#072E49" transform="translate(98,158)"/>
<path d="M0 0 C4.79415054 -0.38353204 8.12011885 -0.43994058 12.5 1.75 C14.93806165 3.94425548 15.77069943 4.78979202 16 8 C13.96166576 6.7260411 11.96147874 5.38938077 10 4 C10 3.34 10 2.68 10 2 C6.7 1.67 3.4 1.34 0 1 C0 0.67 0 0.34 0 0 Z " fill="#EEE041" transform="translate(138,145)"/>
<path d="M0 0 C-1.65 0.33 -3.3 0.66 -5 1 C-5.33 2.98 -5.66 4.96 -6 7 C-6.99 7.33 -7.98 7.66 -9 8 C-10.125 3.25 -10.125 3.25 -9 1 C-5.62083804 -0.73524533 -3.60583914 -1.33549598 0 0 Z " fill="#394E4C" transform="translate(48,45)"/>
<path d="M0 0 C0.99 0.33 1.98 0.66 3 1 C3 1.66 3 2.32 3 3 C2.34 3 1.68 3 1 3 C1 5.31 1 7.62 1 10 C0.01 10 -0.98 10 -2 10 C-2.33 9.01 -2.66 8.02 -3 7 C-2.34 7 -1.68 7 -1 7 C-1.020625 6.030625 -1.04125 5.06125 -1.0625 4.0625 C-1 1 -1 1 0 0 Z " fill="#FE6887" transform="translate(103,117)"/>
<path d="M0 0 C2.97 0.33 5.94 0.66 9 1 C8.01 1.33 7.02 1.66 6 2 C6 2.66 6 3.32 6 4 C6.66 4.33 7.32 4.66 8 5 C2.25 4.25 2.25 4.25 0 2 C0 1.34 0 0.68 0 0 Z " fill="#062F44" transform="translate(145,42)"/>
<path d="M0 0 C2.475 0.495 2.475 0.495 5 1 C5 1.66 5 2.32 5 3 C5.66 3 6.32 3 7 3 C6.67 3.99 6.34 4.98 6 6 C4.02 6 2.04 6 0 6 C0.185625 5.38125 0.37125 4.7625 0.5625 4.125 C1.23686176 1.95839822 1.23686176 1.95839822 0 0 Z " fill="#E5B932" transform="translate(109,121)"/>
<path d="M0 0 C1.98 0 3.96 0 6 0 C6 1.32 6 2.64 6 4 C6.99 4.33 7.98 4.66 9 5 C7.02 5.33 5.04 5.66 3 6 C3.33 4.68 3.66 3.36 4 2 C2.68 2 1.36 2 0 2 C0 1.34 0 0.68 0 0 Z " fill="#D2A328" transform="translate(83,166)"/>
<path d="M0 0 C1.65 0.33 3.3 0.66 5 1 C1.67692308 4.93846154 1.67692308 4.93846154 -1.75 5.25 C-2.4925 5.1675 -3.235 5.085 -4 5 C-4 4.34 -4 3.68 -4 3 C-2.68 2.67 -1.36 2.34 0 2 C0 1.34 0 0.68 0 0 Z " fill="#E7A722" transform="translate(78,163)"/>
<path d="M0 0 C0.66 0.33 1.32 0.66 2 1 C1.67 2.32 1.34 3.64 1 5 C-0.65 5.33 -2.3 5.66 -4 6 C-3.67 4.35 -3.34 2.7 -3 1 C-2.01 0.67 -1.02 0.34 0 0 Z " fill="#0F2D4B" transform="translate(57,83)"/>
<path d="M0 0 C1.32 0.66 2.64 1.32 4 2 C4 2.99 4 3.98 4 5 C3.01 5.33 2.02 5.66 1 6 C-0.32 4.68 -1.64 3.36 -3 2 C-2.01 1.34 -1.02 0.68 0 0 Z " fill="#0D2B43" transform="translate(56,46)"/>
<path d="M0 0 C2.97 0 5.94 0 9 0 C9.66 1.32 10.32 2.64 11 4 C9.35232753 3.71890887 7.70686855 3.42481474 6.0625 3.125 C4.68771484 2.88136719 4.68771484 2.88136719 3.28515625 2.6328125 C2.53105469 2.42398438 1.77695313 2.21515625 1 2 C0.67 1.34 0.34 0.68 0 0 Z " fill="#6AD6E1" transform="translate(144,47)"/>
<path d="M0 0 C0.99 0.66 1.98 1.32 3 2 C2.34 2.66 1.68 3.32 1 4 C0.54188325 5.97235333 0.54188325 5.97235333 0.375 8.125 C0.25125 9.40375 0.1275 10.6825 0 12 C-2 9 -2 9 -1.6875 5.4375 C-1 2 -1 2 0 0 Z " fill="#EBD62E" transform="translate(28,64)"/>
<path d="M0 0 C0.33 0 0.66 0 1 0 C1.25 5.625 1.25 5.625 -1 9 C-2.32 8.34 -3.64 7.68 -5 7 C-4.01 6.01 -3.02 5.02 -2 4 C-1.34 4.33 -0.68 4.66 0 5 C0 3.35 0 1.7 0 0 Z " fill="#3A565A" transform="translate(159,74)"/>
<path d="M0 0 C1.32 0 2.64 0 4 0 C3.67 0.66 3.34 1.32 3 2 C2.01 1.34 1.02 0.68 0 0 Z M8 3 C8 3.33 8 3.66 8 4 C1.9453125 4.9765625 1.9453125 4.9765625 0 5 C-0.66 4.34 -1.32 3.68 -2 3 C1.57644848 1.7619986 4.33694766 2.25073929 8 3 Z " fill="#45504F" transform="translate(74,168)"/>
<path d="M0 0 C3.96 1.98 3.96 1.98 8 4 C7.01 5.485 7.01 5.485 6 7 C3.95880212 5.38405168 1.95927063 3.7143618 0 2 C0 1.34 0 0.68 0 0 Z " fill="#0A344F" transform="translate(89,132)"/>
<path d="M0 0 C1.04449911 3.13349732 0.93423645 3.98968256 0 7 C-1.32 7 -2.64 7 -4 7 C-3.43628586 3.73045798 -2.50037734 2.17424117 0 0 Z " fill="#0C2C4A" transform="translate(37,90)"/>
<path d="M0 0 C0.33 0 0.66 0 1 0 C1 1.65 1 3.3 1 5 C0.67 5 0.34 5 0 5 C-0.33 7.31 -0.66 9.62 -1 12 C-1.33 12 -1.66 12 -2 12 C-2.05395478 10.37536158 -2.09277195 8.75021459 -2.125 7.125 C-2.14820313 6.22007813 -2.17140625 5.31515625 -2.1953125 4.3828125 C-2 2 -2 2 0 0 Z " fill="#032247" transform="translate(66,64)"/>
<path d="M0 0 C0.66 0.33 1.32 0.66 2 1 C-2.82142857 7.29464286 -2.82142857 7.29464286 -7 8 C-6.02133662 6.85373678 -5.04205413 5.70800212 -4.0625 4.5625 C-3.51722656 3.92441406 -2.97195312 3.28632812 -2.41015625 2.62890625 C-1.63204305 1.73008851 -0.84063472 0.84063472 0 0 Z " fill="#475148" transform="translate(34,49)"/>
<path d="M0 0 C2.0625 0.4375 2.0625 0.4375 4 1 C1.03 3.475 1.03 3.475 -2 6 C-1.125 1.125 -1.125 1.125 0 0 Z " fill="#2B4451" transform="translate(53,36)"/>
<path d="M0 0 C0.5534764 2.07553648 1 3.84365964 1 6 C-0.32 6.33 -1.64 6.66 -3 7 C-2.625 4.0625 -2.625 4.0625 -2 1 C-1.34 0.67 -0.68 0.34 0 0 Z " fill="#233C4B" transform="translate(94,169)"/>
<path d="M0 0 C1.98 1.65 3.96 3.3 6 5 C4.02 5.99 4.02 5.99 2 7 C0 4 0 4 0 0 Z " fill="#E37B9C" transform="translate(115,111)"/>
<path d="M0 0 C0.66 0 1.32 0 2 0 C2.98120464 3.05263664 2.98120464 4.94736336 2 8 C1.34 8 0.68 8 0 8 C0 5.36 0 2.72 0 0 Z " fill="#254C5A" transform="translate(159,48)"/>
<path d="M0 0 C-1.32 0.33 -2.64 0.66 -4 1 C-4 1.66 -4 2.32 -4 3 C-6.31 2.67 -8.62 2.34 -11 2 C-7.36576791 -0.32590854 -4.22911669 -0.16265833 0 0 Z " fill="#E8DA4D" transform="translate(55,49)"/>
<path d="M0 0 C0.66 0.66 1.32 1.32 2 2 C1.34 2 0.68 2 0 2 C0 1.34 0 0.68 0 0 Z " fill="#796F4C" transform="translate(23,99)"/>
<path d="" fill="#605D5E" transform="translate(0,0)"/>
<path d="" fill="#60635F" transform="translate(0,0)"/>
<path d="" fill="#5E655E" transform="translate(0,0)"/>
<path d="" fill="#616764" transform="translate(0,0)"/>
<path d="" fill="#616667" transform="translate(0,0)"/>
<path d="" fill="#86774C" transform="translate(0,0)"/>
<path d="" fill="#636A71" transform="translate(0,0)"/>
<path d="" fill="#5D6C71" transform="translate(0,0)"/>
<path d="" fill="#928044" transform="translate(0,0)"/>
<path d="" fill="#927F46" transform="translate(0,0)"/>
<path d="" fill="#857643" transform="translate(0,0)"/>
<path d="" fill="#7F7446" transform="translate(0,0)"/>
<path d="" fill="#4C6E7C" transform="translate(0,0)"/>
<path d="" fill="#726B55" transform="translate(0,0)"/>
<path d="" fill="#646273" transform="translate(0,0)"/>
<path d="" fill="#5E5F5C" transform="translate(0,0)"/>
</svg>
